<?xml version="1.0" encoding="UTF-8" standalone="no"?>
<svg
   id="Ilustración"
   viewBox="0 0 300 200"
   version="1.1"
   sodipodi:docname="1-contribuye-descubre.svg"
   width="300"
   height="200"
   inkscape:version="1.3.2 (091e20e, 2023-11-25, custom)"
   xmlns:inkscape="http://www.inkscape.org/namespaces/inkscape"
   xmlns:sodipodi="http://sodipodi.sourceforge.net/DTD/sodipodi-0.dtd"
   xmlns:xlink="http://www.w3.org/1999/xlink"
   xmlns="http://www.w3.org/2000/svg"
   xmlns:svg="http://www.w3.org/2000/svg">
  <sodipodi:namedview
     id="namedview32"
     pagecolor="#505050"
     bordercolor="#eeeeee"
     borderopacity="1"
     inkscape:showpageshadow="0"
     inkscape:pageopacity="0"
     inkscape:pagecheckerboard="0"
     inkscape:deskcolor="#505050"
     inkscape:zoom="2.0565657"
     inkscape:cx="247.98624"
     inkscape:cy="99.437621"
     inkscape:window-width="1920"
     inkscape:window-height="1051"
     inkscape:window-x="1911"
     inkscape:window-y="-9"
     inkscape:window-maximized="1"
     inkscape:current-layer="Ilustración" />
  <defs
     id="defs13">
    <pattern
       inkscape:collect="always"
       xlink:href="#Motivo_nuevo_8"
       id="pattern32"
       patternTransform="matrix(0.58,1.0045895,-1.0045895,0.58,-11316.17,4071.83)" />
    <style
       id="style1">.cls-1,.cls-2,.cls-3,.cls-4{fill:none;}.cls-1,.cls-5,.cls-6,.cls-7,.cls-8,.cls-3,.cls-4{stroke-linecap:round;}.cls-1,.cls-9,.cls-6,.cls-7,.cls-10{stroke:#091a2c;}.cls-1,.cls-9,.cls-10,.cls-11,.cls-4{stroke-miterlimit:10;}.cls-12,.cls-13,.cls-2,.cls-14{stroke-width:0px;}.cls-12,.cls-7{fill:#0f1b2c;}.cls-13,.cls-5,.cls-6,.cls-10{fill:#eae9e4;}.cls-5,.cls-6,.cls-7,.cls-8,.cls-3{stroke-linejoin:round;}.cls-5,.cls-3{stroke:#172e45;}.cls-9{fill:#1e9190;}.cls-6{stroke-width:1.3px;}.cls-14{fill:#101b2c;}.cls-7{stroke-width:.41px;}.cls-8{fill:url(#Motivo_nuevo_8);stroke:#0f1b2c;stroke-width:2.55px;}.cls-11{fill:url(#Motivo_nuevo_8-2);stroke-width:1.18px;}.cls-11,.cls-4{stroke:#101b2c;}.cls-4{stroke-width:.69px;}</style>
    <pattern
       id="Motivo_nuevo_8"
       x="0"
       y="0"
       width="86"
       height="81"
       patternTransform="translate(-11316.17 4071.83) rotate(60) scale(1.16)"
       patternUnits="userSpaceOnUse"
       viewBox="0 0 86 81">
      <rect
         class="cls-2"
         width="86"
         height="81"
         id="rect1" />
      <rect
         class="cls-12"
         x="0"
         y="78.5"
         width="86"
         height="86"
         id="rect2" />
      <rect
         class="cls-12"
         x="0"
         y="-2.5"
         width="86"
         height="86"
         id="rect3" />
      <rect
         class="cls-13"
         x="0"
         y="2.5"
         width="86"
         height="3"
         id="rect4" />
      <rect
         class="cls-13"
         x="0"
         y="11.5"
         width="86"
         height="3"
         id="rect5" />
      <rect
         class="cls-13"
         x="0"
         y="20.5"
         width="86"
         height="3"
         id="rect6" />
      <rect
         class="cls-13"
         x="0"
         y="29.5"
         width="86"
         height="3"
         id="rect7" />
      <rect
         class="cls-13"
         x="0"
         y="38.5"
         width="86"
         height="3"
         id="rect8" />
      <rect
         class="cls-13"
         x="0"
         y="47.5"
         width="86"
         height="3"
         id="rect9" />
      <rect
         class="cls-13"
         x="0"
         y="56.5"
         width="86"
         height="3"
         id="rect10" />
      <rect
         class="cls-13"
         x="0"
         y="65.5"
         width="86"
         height="3"
         id="rect11" />
      <rect
         class="cls-13"
         x="0"
         y="74.5"
         width="86"
         height="3"
         id="rect12" />
      <rect
         class="cls-12"
         x="0"
         y="-83.5"
         width="86"
         height="86"
         id="rect13" />
    </pattern>
    <pattern
       id="Motivo_nuevo_8-2"
       patternTransform="matrix(0.39068267,0.32782168,-0.32782168,0.39068267,-7123.16,-2332.64)"
       xlink:href="#Motivo_nuevo_8" />
  </defs>
  <g
     id="g32"
     transform="matrix(0.88105727,0,0,0.88105727,-68.061674,32.590308)">
    <path
       class="cls-10"
       d="m 189.5,71.45 v 26.06 c 0,5 11,9 20,9 9,0 11.94,-1 11.94,-5 V 79.37"
       id="path13" />
    <path
       class="cls-9"
       d="m 332.5,138.51 c 0,7 -33,45 -41,45 h -91.57 c -6.58,3.64 -12.19,6 -15.43,6 -3.24,0 -7.79,-2.38 -12.46,-6 H 134.5 c 0,-7 0,-78 16,-78 16,0 39,-19.06 39,-19.06 v 11.06 c 0,5 11,9 20,9 9,0 11.94,-1 11.94,-5 V 86.45 c 0,0 23.06,16.06 39.06,16.06 5,0 23,28.22 23,36 0,3 1,-3 3,-3 2,0 2,1 2,3 0,2 18,-23 21,-23 3,0 23,18 23,23 z"
       id="path14" />
    <path
       class="cls-3"
       d="m 143.5,148.51 c 0,4.44 15.31,24.73 28.54,35"
       id="path15" />
    <path
       class="cls-3"
       d="m 160.5,108.51 c 5,0 27,13 27,39 0,3 1,-3 3,-3 2,0 3,1 3,3 0,2 34,-27 38,-27 4,0 17,19 17,25 0,4.5 -28.74,27.04 -48.57,38"
       id="path16" />
    <path
       class="cls-5"
       d="m 311.5,115.51 c 0,0 7,-7 18,-7 8,0 10,2 10,3 0,2 -8,3 -8,3 0,0 26,-3 26,2 0,2 -13,3 -13,3 0,0 16,-2 16,2 0,2 -14,3 -14,3 0,0 11,0 11,2 0,3 -14,2 -14,2 0,0 7,0 7,3 0,3 -16.24,1.12 -19.62,3.06 0,0 -19.38,-10.06 -19.38,-19.06 z"
       id="path17" />
    <path
       class="cls-10"
       d="m 222.47,79.34 -14.31,1.31 c -9.55,0.87 -18.12,-5.25 -20.67,-14.14 h 0.01 c 1.21,0 1.51,-1.48 1.35,-3.77 -0.06,-0.85 -0.55,-1.58 -1.27,-2.04 -3.54,-2.23 -5.83,-11.95 -3.86,-13.68 0.32,-0.28 0.62,-0.46 0.92,-0.56 1.01,-0.34 1.74,-1.2 1.75,-2.26 0,-0.6 0.04,-1.17 0.11,-1.7 1,-8 5,-10 9,-10 4,0 8,3 12,3 4,0 3,-3 6,-3 1.78,0 8.13,1.41 13,0.47 1.45,-0.28 2.84,0.7 2.98,2.17 l 2.94,32.24 c 0.55,6.05 -3.9,11.4 -9.95,11.95 z"
       id="path18" />
    <path
       class="cls-7"
       d="m 207.5,53.51 c -0.55,0 -1,-0.45 -1,-1 v -8 c 0,-0.55 0.45,-1 1,-1 0.55,0 1,0.45 1,1 v 8 c 0,0.55 -0.45,1 -1,1 z"
       id="path19" />
    <path
       class="cls-7"
       d="m 227.5,53.51 c -0.55,0 -1,-0.45 -1,-1 v -8 c 0,-0.55 0.45,-1 1,-1 0.55,0 1,0.45 1,1 v 8 c 0,0.55 -0.45,1 -1,1 z"
       id="path20" />
    <path
       class="cls-7"
       d="m 213.5,72.01 c -5.21,0 -7.33,-3.09 -7.42,-3.22 -0.15,-0.23 -0.09,-0.54 0.14,-0.69 0.23,-0.15 0.54,-0.09 0.69,0.14 0.08,0.11 1.94,2.78 6.58,2.78 4.64,0 6.51,-2.67 6.58,-2.78 0.16,-0.23 0.46,-0.29 0.69,-0.14 0.23,0.15 0.29,0.46 0.14,0.69 -0.09,0.13 -2.21,3.22 -7.42,3.22 z"
       id="path21" />
    <path
       class="cls-7"
       d="m 218.5,67.01 c -7.28,0 -8.43,-3.21 -8.47,-3.34 -0.09,-0.26 0.05,-0.55 0.32,-0.63 0.26,-0.09 0.54,0.05 0.63,0.31 0.02,0.06 1.09,2.66 7.53,2.66 1.48,0 1.96,-0.28 2.1,-0.51 0.33,-0.56 -0.5,-2.04 -1.38,-3.6 -1.35,-2.4 -3.21,-5.7 -3.21,-9.39 0,-6.37 2.5,-10.9 3.58,-12.55 0.38,-0.58 0.86,-1.09 1.41,-1.5 1.24,-0.91 3.87,-2.45 7.51,-2.45 5.21,0 7.33,3.09 7.42,3.22 0.15,0.23 0.09,0.54 -0.14,0.69 -0.23,0.15 -0.54,0.09 -0.69,-0.14 -0.08,-0.11 -1.94,-2.78 -6.58,-2.78 -3.36,0 -5.77,1.41 -6.92,2.25 -0.46,0.34 -0.85,0.76 -1.17,1.24 -1.03,1.58 -3.41,5.9 -3.41,12.01 0,3.43 1.71,6.46 3.08,8.9 1.16,2.05 1.99,3.54 1.38,4.59 -0.41,0.7 -1.32,1.01 -2.96,1.01 z"
       id="path22" />
    <path
       class="cls-7"
       d="m 248.64,27.37 c 0.05,-2.21 -3.29,-5.55 -5.5,-5.5 2.21,-0.05 5.67,-2.95 5.73,-5.73 -0.06,2.78 3.29,5.55 5.5,5.5 -2.21,0.05 -5.7,4.09 -5.73,5.73 z"
       id="path23" />
    <path
       class="cls-7"
       d="m 172.64,83.37 c 0.05,-2.21 -3.29,-5.55 -5.5,-5.5 2.21,-0.05 5.67,-2.95 5.73,-5.73 -0.06,2.78 3.29,5.55 5.5,5.5 -2.21,0.05 -5.7,4.09 -5.73,5.73 z"
       id="path24" />
    <path
       class="cls-7"
       d="m 287.64,57.37 c 0.05,-2.21 -3.29,-5.55 -5.5,-5.5 2.21,-0.05 5.67,-2.95 5.73,-5.73 -0.06,2.78 3.29,5.55 5.5,5.5 -2.21,0.05 -5.7,4.09 -5.73,5.73 z"
       id="path25" />
    <path
       class="cls-7"
       d="m 281.09,63.1 c 0.03,-1.58 -2.35,-3.96 -3.93,-3.93 1.58,-0.03 4.05,-2.11 4.09,-4.09 -0.04,1.99 2.35,3.96 3.93,3.93 -1.58,0.03 -4.07,2.92 -4.09,4.09 z"
       id="path26" />
    <path
       class="cls-7"
       d="m 312.09,67.1 c 0.03,-1.58 -2.35,-3.96 -3.93,-3.93 1.58,-0.03 4.05,-2.11 4.09,-4.09 -0.04,1.99 2.35,3.96 3.93,3.93 -1.58,0.03 -4.07,2.92 -4.09,4.09 z"
       id="path27" />
    <path
       class="cls-8"
       d="m 232.5,26.51 c 0,2.89 -1.33,4.61 -3.3,5.59 -4.85,2.44 -13.57,0.41 -15.7,0.41 -3,0 -2,3 -6,3 -4,0 -8,-3 -12,-3 -4,0 -8,2 -9,10 -0.07,0.53 -0.1,1.1 -0.11,1.7 -0.02,1.07 -0.74,1.92 -1.75,2.26 -0.3,0.1 -0.6,0.28 -0.92,0.56 -1.97,1.73 0.31,11.45 3.86,13.68 0.72,0.45 1.22,1.19 1.27,2.04 0.16,2.28 -0.14,3.77 -1.35,3.77 h -0.01 c -14.99,-0.01 -10.99,-27 -10.99,-39 0,-12 9,-13 15,-11 6,2 9.5,2.5 14,-2 4.5,-4.5 12,-4 12,-4 8,0 8,9 9,9 1,0 6,2 6,7 z"
       id="path28"
       style="fill:url(#pattern32)" />
    <path
       class="cls-11"
       d="m 287.86,83.25 h 15.31 v 7.65 c 0,4.22 -3.43,7.65 -7.65,7.65 v 0 c -4.22,0 -7.65,-3.43 -7.65,-7.65 v -7.65 0 z"
       id="path29" />
    <circle
       class="cls-6"
       cx="295.51001"
       cy="75.010002"
       r="12.95"
       id="circle29" />
    <circle
       class="cls-14"
       cx="293.45999"
       cy="78.690002"
       r="1.37"
       id="circle30" />
    <line
       class="cls-4"
       x1="293.45999"
       y1="86.910004"
       x2="293.45999"
       y2="79.370003"
       id="line30" />
    <circle
       class="cls-14"
       cx="297.57001"
       cy="78.690002"
       r="1.37"
       id="circle31" />
    <line
       class="cls-4"
       x1="297.57001"
       y1="86.910004"
       x2="297.57001"
       y2="79.370003"
       id="line31" />
    <path
       class="cls-1"
       d="m 260.5,128.5 c 4.1,30.6 6,49 0,49"
       id="path31" />
    <path
       class="cls-5"
       d="m 247.72,142.37 c 0,0 -14.22,-12.86 -14.22,-21.86 0,0 7,-7 18,-7 8,0 10,2 10,3 0,2 -8,3 -8,3 0,0 26,-3 26,2 0,2 -13,3 -13,3 0,0 16,-2 16,2 0,2 -14,3 -14,3 0,0 11,0 11,2 0,3 -14,2 -14,2 0,0 7,0 7,3 0,3 -20.62,4.06 -24,6"
       id="path32" />
  </g>
</svg>
