<?xml version="1.0" encoding="UTF-8" standalone="no"?>
<svg
   id="Capa_2"
   viewBox="0 0 299.99999 249.99999"
   version="1.1"
   sodipodi:docname="2-contribuye-explora.svg"
   width="300"
   height="250"
   inkscape:version="1.3.2 (091e20e, 2023-11-25, custom)"
   xmlns:inkscape="http://www.inkscape.org/namespaces/inkscape"
   xmlns:sodipodi="http://sodipodi.sourceforge.net/DTD/sodipodi-0.dtd"
   xmlns="http://www.w3.org/2000/svg"
   xmlns:svg="http://www.w3.org/2000/svg">
  <sodipodi:namedview
     id="namedview71"
     pagecolor="#505050"
     bordercolor="#eeeeee"
     borderopacity="1"
     inkscape:showpageshadow="0"
     inkscape:pageopacity="0"
     inkscape:pagecheckerboard="0"
     inkscape:deskcolor="#505050"
     inkscape:zoom="1.5994962"
     inkscape:cx="104.40788"
     inkscape:cy="131.60394"
     inkscape:window-width="1920"
     inkscape:window-height="1051"
     inkscape:window-x="-9"
     inkscape:window-y="-9"
     inkscape:window-maximized="1"
     inkscape:current-layer="Capa_2" />
  <defs
     id="defs13">
    <style
       id="style1">.cls-1{fill:#000;}.cls-1,.cls-2,.cls-3,.cls-4,.cls-5,.cls-6{stroke-width:0px;}.cls-2{fill:#0f1b2c;}.cls-7,.cls-8,.cls-9,.cls-4,.cls-10,.cls-11,.cls-12,.cls-13,.cls-14,.cls-15,.cls-16{fill:none;}.cls-7,.cls-8,.cls-17,.cls-18,.cls-19,.cls-20,.cls-11,.cls-12,.cls-21,.cls-22,.cls-13,.cls-23,.cls-14,.cls-16{stroke:#091a2c;}.cls-7,.cls-8,.cls-10,.cls-11,.cls-12,.cls-24,.cls-13,.cls-23,.cls-14,.cls-15,.cls-16{stroke-linecap:round;}.cls-7,.cls-8,.cls-11,.cls-12,.cls-24,.cls-13,.cls-23,.cls-14,.cls-15,.cls-16{stroke-linejoin:round;}.cls-7,.cls-8,.cls-11,.cls-12,.cls-13,.cls-23{stroke-width:1.37px;}.cls-8{stroke-dasharray:0 0 4.09 4.09;}.cls-3,.cls-17,.cls-18,.cls-23{fill:#eae9e4;}.cls-9{stroke-width:1.22px;}.cls-9,.cls-17,.cls-18,.cls-19,.cls-20,.cls-10,.cls-21,.cls-22{stroke-miterlimit:10;}.cls-9,.cls-10,.cls-24,.cls-15{stroke:#0f1b2c;}.cls-17{stroke-width:1.05px;}.cls-18{stroke-width:1.18px;}.cls-19{fill:#1e9190;}.cls-20{stroke-width:.98px;}.cls-20,.cls-21,.cls-22{fill:#172e45;}.cls-10{stroke-width:1.58px;}.cls-5{fill:#101b2c;}.cls-11{stroke-dasharray:0 0 4.11 4.11;}.cls-12{stroke-dasharray:0 0 4.42 4.42;}.cls-24{fill:url(#Motivo_nuevo_8);stroke-width:2.55px;}.cls-6{fill:#091a2c;}.cls-21{stroke-width:.99px;}.cls-22{stroke-width:.99px;}.cls-13{stroke-dasharray:0 0 4.41 4.41;}.cls-14,.cls-16{stroke-width:1.26px;}.cls-16{stroke-dasharray:0 0 3.77 3.77;}</style>
    <pattern
       id="Motivo_nuevo_8"
       x="0"
       y="0"
       width="86"
       height="81"
       patternTransform="translate(-11925.71 4060.4) rotate(60) scale(1.16)"
       patternUnits="userSpaceOnUse"
       viewBox="0 0 86 81">
      <rect
         class="cls-4"
         width="86"
         height="81"
         id="rect1" />
      <rect
         class="cls-2"
         x="0"
         y="78.5"
         width="86"
         height="86"
         id="rect2" />
      <rect
         class="cls-2"
         x="0"
         y="-2.5"
         width="86"
         height="86"
         id="rect3" />
      <rect
         class="cls-3"
         x="0"
         y="2.5"
         width="86"
         height="3"
         id="rect4" />
      <rect
         class="cls-3"
         x="0"
         y="11.5"
         width="86"
         height="3"
         id="rect5" />
      <rect
         class="cls-3"
         x="0"
         y="20.5"
         width="86"
         height="3"
         id="rect6" />
      <rect
         class="cls-3"
         x="0"
         y="29.5"
         width="86"
         height="3"
         id="rect7" />
      <rect
         class="cls-3"
         x="0"
         y="38.5"
         width="86"
         height="3"
         id="rect8" />
      <rect
         class="cls-3"
         x="0"
         y="47.5"
         width="86"
         height="3"
         id="rect9" />
      <rect
         class="cls-3"
         x="0"
         y="56.5"
         width="86"
         height="3"
         id="rect10" />
      <rect
         class="cls-3"
         x="0"
         y="65.5"
         width="86"
         height="3"
         id="rect11" />
      <rect
         class="cls-3"
         x="0"
         y="74.5"
         width="86"
         height="3"
         id="rect12" />
      <rect
         class="cls-2"
         x="0"
         y="-83.5"
         width="86"
         height="86"
         id="rect13" />
    </pattern>
  </defs>
  <g
     id="g71"
     transform="matrix(0.9806806,0,0,0.9806806,-0.00490368,40.134349)">
    <g
       id="Ilustración">
      <line
         class="cls-9"
         x1="168.27"
         y1="172.46001"
         x2="138.78999"
         y2="172.46001"
         id="line13" />
      <path
         class="cls-24"
         d="M 207.96,108.07 C 197.73,92.79 189.12,90.28 193.11,65.72 197.1,41.16 176.73,32.81 157.29,32.81 c 0,0 -38.16,1.18 -38.89,41.14 -0.44,24.12 -11.39,25.53 -15.44,33.12 -8,15 6.23,20.96 6.23,20.96 l 91.09,5.88 c 0,0 18.68,-5.83 7.68,-25.83 z"
         id="path13" />
      <path
         class="cls-18"
         d="m 140.08,100.17 c 0,0 -1.12,6.15 -1.81,12.66 -0.32,2.94 -0.54,5.95 -0.54,8.5 0,7.05 10.58,9.4 15.28,9.4 4.7,0 15.28,-1.18 15.28,-8.23 0,-2.1 -0.02,-5.41 -0.05,-8.76 -0.05,-6 -0.12,-12.19 -0.12,-12.19"
         id="path14" />
      <path
         class="cls-21"
         d="m 177.57,116.28 c -0.69,10.24 -4.1,56.18 -9.3,56.18 h -29.48 c -6.5,0 -8.84,-48.76 -9.23,-57.89 2.84,-0.73 5.75,-1.32 8.71,-1.74 -0.32,2.94 -0.54,5.95 -0.54,8.5 0,7.05 10.58,9.4 15.28,9.4 4.7,0 15.28,-1.18 15.28,-8.23 0,-2.1 -0.02,-5.41 -0.05,-8.76 3.19,0.67 6.29,1.52 9.32,2.54 z"
         id="path15" />
      <path
         class="cls-17"
         d="m 156.89,47.51 c -3.63,-3.06 -7.65,-5.11 -11.81,-5.86 -9.21,5.25 -14.12,21.83 -14.12,35.43 0,18.5 10.36,28.62 25,28.62 17,0 26.5,-19.62 26.5,-33.5 0,-3.05 -0.33,-6.01 -0.94,-8.82 -9,1.63 -17.99,-9.33 -24.63,-15.86 z"
         id="path16" />
      <path
         class="cls-10"
         d="m 137.46,68.57 c 0,0 1.47,-2 5,-2 3.53,0 5,2 5,2"
         id="path17" />
      <path
         class="cls-10"
         d="m 162.46,71.57 c 0,0 1.47,-2 5,-2 3.53,0 5,2 5,2"
         id="path18" />
      <path
         class="cls-5"
         d="m 161.59,93.57 c 0,3.57 -3.48,5.88 -7.05,5.88 -3.57,0 -8.23,-2.3 -8.23,-5.88 z"
         id="path19" />
      <path
         class="cls-19"
         d="M 138.79,172.46 H 73.85 c 4.34,-27.82 26.53,-50.42 55.71,-57.89 0.39,9.13 2.73,57.89 9.23,57.89 z"
         id="path20" />
      <path
         class="cls-19"
         d="m 227.47,172.46 h -59.2 c 5.2,0 8.6,-45.94 9.3,-56.18 26.28,8.83 45.86,30.23 49.9,56.18 z"
         id="path21" />
      <circle
         class="cls-23"
         cx="39.939999"
         cy="54.07"
         r="21.67"
         id="circle21" />
      <circle
         class="cls-23"
         cx="22.360001"
         cy="123.84"
         r="21.67"
         id="circle22" />
      <circle
         class="cls-23"
         cx="283.56"
         cy="22.360001"
         r="21.67"
         id="circle23" />
      <circle
         class="cls-23"
         cx="282.76999"
         cy="124.33"
         r="21.67"
         id="circle24" />
      <path
         class="cls-7"
         d="m 109.44,52.48 c -0.72,0 -1.43,-0.01 -2.11,-0.03"
         id="path24" />
      <path
         class="cls-13"
         d="M 102.92,52.17 C 81.98,50.04 82.05,37.58 65.12,35.78"
         id="path25" />
      <path
         class="cls-7"
         d="M 62.92,35.62 C 62.24,35.59 61.54,35.57 60.81,35.57"
         id="path26" />
      <path
         class="cls-7"
         d="m 255.34,121.54 c -0.73,0 -1.44,-0.03 -2.11,-0.09"
         id="path27" />
      <path
         class="cls-8"
         d="M 249.22,120.66 C 237.24,116.88 235.5,102.19 217.19,100.27"
         id="path28" />
      <path
         class="cls-7"
         d="m 215.15,100.1 c -0.68,-0.03 -1.39,-0.05 -2.11,-0.05"
         id="path29" />
      <circle
         class="cls-20"
         cx="255.44"
         cy="84.849998"
         r="7.8000002"
         id="circle29" />
      <path
         class="cls-14"
         d="m 245.71,84.19 c -0.68,0 -1.33,-0.03 -1.95,-0.09"
         id="path30" />
      <path
         class="cls-16"
         d="M 240.07,83.38 C 229.02,79.9 227.42,66.35 210.52,64.57"
         id="path31" />
      <path
         class="cls-14"
         d="m 208.64,64.42 c -0.63,-0.03 -1.28,-0.05 -1.95,-0.05"
         id="path32" />
      <circle
         class="cls-22"
         cx="53.939999"
         cy="94.239998"
         r="7.9299998"
         id="circle32" />
      <path
         class="cls-14"
         d="m 64.07,93.71 c 0.68,0 1.33,-0.03 1.95,-0.09"
         id="path33" />
      <path
         class="cls-16"
         d="M 69.71,92.89 C 80.76,89.41 82.36,75.86 99.26,74.08"
         id="path34" />
      <path
         class="cls-14"
         d="m 101.14,73.94 c 0.63,-0.03 1.28,-0.05 1.95,-0.05"
         id="path35" />
      <path
         class="cls-7"
         d="m 256.37,14.43 c -0.72,0 -1.43,0.03 -2.11,0.08"
         id="path36" />
      <path
         class="cls-12"
         d="m 249.9,15.2 c -17.38,4.33 -22.79,25.56 -41.02,28.49"
         id="path37" />
      <path
         class="cls-7"
         d="M 206.69,43.95 C 206,44 205.3,44.03 204.58,44.03"
         id="path38" />
      <path
         class="cls-7"
         d="m 94.66,106.39 c -0.73,0 -1.44,0.02 -2.11,0.07"
         id="path39" />
      <path
         class="cls-11"
         d="m 88.48,107.06 c -14.27,3.39 -13.6,18.63 -31.97,20.61"
         id="path40" />
      <path
         class="cls-7"
         d="m 54.47,127.83 c -0.68,0.03 -1.38,0.05 -2.11,0.05"
         id="path41" />
      <path
         class="cls-6"
         d="m 40.47,53.49 c -0.92,0 -1.81,-0.2 -2.62,-0.6 -2.1,-1 -3.46,-3.15 -3.46,-5.48 0,-1.17 0.33,-2.3 0.96,-3.27 1.11,-1.76 3.03,-2.81 5.12,-2.81 2.09,0 4,1.05 5.12,2.81 0.63,0.97 0.96,2.1 0.96,3.27 0,2.33 -1.36,4.48 -3.46,5.48 -0.81,0.4 -1.7,0.6 -2.62,0.6 z m 0,-11.63 c -1.91,0 -3.65,0.96 -4.67,2.56 -0.58,0.89 -0.88,1.92 -0.88,2.99 0,2.13 1.24,4.09 3.16,5 1.49,0.72 3.3,0.72 4.78,0 1.92,-0.91 3.16,-2.88 3.16,-5.01 0,-1.07 -0.3,-2.1 -0.88,-2.99 -1.02,-1.61 -2.76,-2.56 -4.67,-2.56 z"
         id="path42" />
      <path
         class="cls-6"
         d="m 47.87,55.61 c -2.09,0 -4,-1.05 -5.12,-2.81 l -0.16,-0.25 0.27,-0.13 c 1.92,-0.91 3.16,-2.88 3.16,-5 0,-1.07 -0.3,-2.1 -0.88,-2.99 l -0.16,-0.25 0.27,-0.13 c 0.82,-0.4 1.7,-0.6 2.62,-0.6 3.35,0 6.08,2.73 6.08,6.08 0,3.35 -2.73,6.08 -6.08,6.08 z m -4.51,-2.85 c 1.03,1.46 2.7,2.32 4.51,2.32 3.06,0 5.55,-2.49 5.55,-5.55 0,-3.06 -2.49,-5.55 -5.55,-5.55 -0.74,0 -1.46,0.14 -2.12,0.42 0.53,0.91 0.8,1.95 0.8,3.01 0,2.23 -1.24,4.29 -3.19,5.34 z"
         id="path43" />
      <path
         class="cls-6"
         d="m 33.07,55.61 c -3.35,0 -6.08,-2.73 -6.08,-6.08 0,-3.35 2.73,-6.08 6.08,-6.08 0.92,0 1.81,0.2 2.62,0.6 l 0.27,0.13 -0.16,0.25 c -0.57,0.89 -0.88,1.92 -0.88,2.99 0,2.13 1.24,4.09 3.16,5 l 0.27,0.13 -0.16,0.25 c -1.11,1.76 -3.03,2.81 -5.12,2.81 z m 0,-11.63 c -3.06,0 -5.55,2.49 -5.55,5.55 0,3.06 2.49,5.55 5.55,5.55 1.81,0 3.47,-0.86 4.51,-2.32 -1.95,-1.05 -3.19,-3.12 -3.19,-5.34 0,-1.07 0.28,-2.1 0.8,-3.01 -0.67,-0.28 -1.38,-0.42 -2.12,-0.42 z"
         id="path44" />
      <rect
         class="cls-6"
         x="39.939999"
         y="54.279999"
         width="1.0599999"
         height="8.46"
         rx="0.5"
         ry="0.5"
         id="rect44" />
      <rect
         class="cls-6"
         x="47.34"
         y="57.459999"
         width="1.0599999"
         height="7.4000001"
         rx="0.47"
         ry="0.47"
         id="rect45" />
      <rect
         class="cls-6"
         x="31.49"
         y="57.459999"
         width="1.0599999"
         height="7.4000001"
         rx="0.47"
         ry="0.47"
         id="rect46" />
      <path
         class="cls-6"
         d="m 25.67,63.53 c -0.15,0 -0.26,-0.12 -0.26,-0.26 v -5.29 c 0,-1.21 1.11,-1.31 2.11,-1.32 v -1.85 c 0,-0.12 0.08,-0.22 0.19,-0.25 0.11,-0.03 0.23,0.01 0.3,0.11 0,0.01 0.68,1 1.82,1.49 0.13,0.06 0.2,0.21 0.14,0.35 -0.06,0.13 -0.21,0.2 -0.35,0.14 -0.69,-0.3 -1.22,-0.74 -1.57,-1.1 v 1.39 c 0,0.15 -0.12,0.26 -0.26,0.26 -1.26,0 -1.85,0.08 -1.85,0.79 v 5.29 c 0,0.15 -0.12,0.26 -0.26,0.26 z"
         id="path46" />
      <path
         class="cls-6"
         d="m 54.21,63.53 c -0.15,0 -0.26,-0.12 -0.26,-0.26 v -5.29 c 0,-0.71 -0.59,-0.79 -1.85,-0.79 -0.15,0 -0.26,-0.12 -0.26,-0.26 v -1.39 c -0.35,0.36 -0.88,0.81 -1.57,1.1 -0.13,0.06 -0.29,0 -0.35,-0.14 -0.06,-0.13 0,-0.29 0.14,-0.35 1.15,-0.49 1.81,-1.48 1.82,-1.49 0.06,-0.1 0.19,-0.14 0.3,-0.11 0.11,0.03 0.19,0.14 0.19,0.25 v 1.85 c 1,0 2.11,0.11 2.11,1.32 v 5.29 c 0,0.15 -0.12,0.26 -0.26,0.26 z"
         id="path47" />
      <path
         class="cls-6"
         d="m 283.76,17.13 c -3.36,0 -6.25,-2.5 -6.72,-5.82 l -0.07,-0.49 h 13.58 l -0.07,0.49 c -0.47,3.32 -3.36,5.82 -6.72,5.82 z m -5.77,-5.45 c 0.61,2.65 3.01,4.58 5.77,4.58 2.76,0 5.16,-1.94 5.77,-4.58 H 278 Z"
         id="path48" />
      <path
         class="cls-6"
         d="m 290.44,9.37 c -0.36,-2.55 -2.17,-4.61 -4.51,-5.43 -0.26,-0.09 -0.52,-0.16 -0.8,-0.21 -0.38,-0.09 -0.8,-0.14 -1.2,-0.14 0,0 0,-0.02 -0.02,-0.02 h -0.16 c -0.07,0 -0.12,0 -0.19,0.02 -0.42,0 -0.82,0.05 -1.2,0.14 -0.28,0.05 -0.54,0.12 -0.78,0.21 -2.36,0.8 -4.16,2.88 -4.53,5.43 L 277,9.82 h 13.48 L 290.43,9.37 Z M 277.93,9.02 c 0.43,-1.94 1.86,-3.52 3.66,-4.23 v 2.65 c 0,0.24 0.19,0.43 0.43,0.43 0.23,0 0.43,-0.19 0.43,-0.43 V 4.53 c 0.28,-0.07 0.57,-0.12 0.87,-0.14 v 3.05 c 0,0.24 0.19,0.43 0.43,0.43 0.23,0 0.43,-0.19 0.43,-0.43 V 4.39 c 0.29,0.02 0.59,0.07 0.87,0.14 v 2.91 c 0,0.24 0.19,0.43 0.43,0.43 0.23,0 0.43,-0.19 0.43,-0.43 V 4.79 c 1.8,0.71 3.21,2.29 3.64,4.23 h -11.64 z"
         id="path49" />
      <path
         class="cls-6"
         d="m 291.03,11.68 h -14.54 c -0.75,0 -1.34,-0.59 -1.34,-1.34 0,-0.75 0.59,-1.34 1.34,-1.34 h 14.54 c 0.75,0 1.34,0.59 1.34,1.34 0,0.75 -0.59,1.34 -1.34,1.34 z M 276.49,9.86 c -0.27,0 -0.47,0.2 -0.47,0.48 0,0.28 0.2,0.48 0.47,0.48 h 14.54 c 0.27,0 0.47,-0.2 0.47,-0.48 0,-0.28 -0.2,-0.48 -0.47,-0.48 z"
         id="path50" />
      <path
         class="cls-6"
         d="m 283.35,42.57 c -0.62,0 -2.28,0 -5.19,-16.76 h -0.01 c 0,0 -0.03,-0.16 -0.03,-0.16 -0.16,-1 -0.25,-1.62 -0.25,-1.62 0,-3.31 2.63,-5.95 5.88,-5.95 3.25,0 5.89,2.64 5.89,5.89 0,0.08 -0.17,0.94 -0.46,2.27 -3.57,16.33 -5.21,16.33 -5.82,16.33 z m -4.39,-17.2 0.03,0.03 0.02,0.25 c 2.16,12.44 3.75,15.96 4.35,16.07 0.59,-0.07 2.3,-3.44 4.97,-15.65 0.29,-1.32 0.45,-2.17 0.45,-2.17 0,-2.69 -2.26,-4.94 -5.03,-4.94 -2.77,0 -5.02,2.25 -5.02,5.02 0,0 0.08,0.54 0.22,1.4 z m 4.79,2.66 c -2.24,0 -4.07,-1.82 -4.07,-4.07 0,-2.25 1.83,-4.07 4.07,-4.07 2.24,0 4.07,1.83 4.07,4.07 0,2.24 -1.82,4.07 -4.07,4.07 z m 0,-7.27 c -1.77,0 -3.2,1.44 -3.2,3.2 0,1.76 1.44,3.2 3.2,3.2 1.76,0 3.2,-1.44 3.2,-3.2 0,-1.76 -1.44,-3.2 -3.2,-3.2 z"
         id="path51" />
      <path
         class="cls-1"
         d="m 283.56,19.59 c 0,0 0,0 0,0 v -0.02 c 0,0 0,0 0,0.01 z"
         id="path52" />
      <path
         class="cls-6"
         d="m 11.11,124.95 c -0.68,0 -1.27,-0.51 -1.35,-1.2 l -0.21,-1.77 c -0.04,-0.36 0.06,-0.71 0.28,-1 0.22,-0.28 0.55,-0.46 0.91,-0.5 l 17.84,-2.07 c 0.73,-0.07 1.42,0.45 1.5,1.19 l 0.21,1.77 c 0.04,0.36 -0.06,0.71 -0.28,1 -0.22,0.28 -0.55,0.46 -0.91,0.5 v 0 l -17.84,2.07 c -0.05,0 -0.11,0.01 -0.16,0.01 z m 17.64,-5.65 c 0,0 -0.04,0 -0.05,0 l -17.84,2.07 c -0.12,0.01 -0.23,0.07 -0.31,0.17 -0.08,0.1 -0.11,0.22 -0.1,0.34 l 0.21,1.77 c 0.03,0.25 0.27,0.45 0.51,0.4 l 17.84,-2.07 c 0.12,-0.01 0.23,-0.07 0.31,-0.17 0.08,-0.1 0.11,-0.22 0.1,-0.34 l -0.21,-1.77 c -0.03,-0.23 -0.23,-0.41 -0.46,-0.41 z"
         id="path53" />
      <path
         class="cls-6"
         d="m 17.93,136.33 c -0.7,0 -1.36,-0.29 -1.84,-0.82 -1.86,-2.03 -6.19,-7.23 -6.33,-11.8 0,-0.25 0.19,-0.45 0.44,-0.46 h 0.01 c 0.24,0 0.44,0.19 0.45,0.44 0.13,4.26 4.3,9.26 6.09,11.21 0.38,0.42 0.94,0.6 1.5,0.49 l 15.29,-3.06 c 0.13,-0.03 0.17,-0.13 0.18,-0.17 0.01,-0.05 0.02,-0.15 -0.08,-0.22 -2.12,-1.59 -5.6,-4.95 -5.03,-9.57 0.03,-0.24 0.26,-0.42 0.5,-0.39 0.25,0.03 0.42,0.25 0.39,0.5 -0.51,4.17 2.71,7.27 4.67,8.74 0.36,0.27 0.52,0.71 0.42,1.14 -0.1,0.44 -0.44,0.76 -0.88,0.85 l -15.29,3.06 c -0.17,0.03 -0.34,0.05 -0.5,0.05 z"
         id="path54" />
      <path
         class="cls-6"
         d="M 27.06,138.3 H 13.11 c -0.95,0 -1.72,-0.77 -1.72,-1.72 v -7.72 c 0,-0.25 0.2,-0.45 0.45,-0.45 0.25,0 0.45,0.2 0.45,0.45 v 7.72 c 0,0.45 0.37,0.82 0.82,0.82 h 13.95 c 0.28,0 0.51,-0.23 0.51,-0.51 v -2.63 c 0,-0.25 0.2,-0.45 0.45,-0.45 0.25,0 0.45,0.2 0.45,0.45 v 2.63 c 0,0.78 -0.63,1.41 -1.41,1.41 z"
         id="path55" />
      <path
         class="cls-6"
         d="M 24.43,140.1 H 11.09 c -0.49,0 -0.98,-0.22 -1.29,-0.58 -0.24,-0.28 -0.35,-0.63 -0.29,-0.97 0,-2.22 0.02,-5.28 0.05,-8.2 0.02,-2.65 0.05,-5.17 0.05,-6.88 0,-0.25 0.2,-0.45 0.45,-0.45 0.25,0 0.45,0.2 0.45,0.45 0,1.71 -0.02,4.24 -0.05,6.89 -0.02,2.91 -0.05,5.98 -0.05,8.26 -0.01,0.1 -0.02,0.19 0.08,0.32 0.13,0.15 0.38,0.26 0.61,0.26 H 24 v -1.28 c 0.01,-0.25 0.22,-0.44 0.46,-0.44 v 0 c 0.25,0 0.45,0.21 0.44,0.45 l -0.02,1.73 c 0,0.25 -0.2,0.44 -0.45,0.44 z"
         id="path56" />
      <path
         class="cls-6"
         d="m 21.23,132.1 c -1.5,0 -2.92,-0.26 -4.04,-0.75 -1.41,-0.61 -2.21,-1.53 -2.27,-2.58 -0.06,-1.05 0.65,-2.04 1.99,-2.8 1.23,-0.69 2.87,-1.13 4.63,-1.22 1.76,-0.09 3.44,0.17 4.73,0.73 1.41,0.61 2.21,1.53 2.27,2.58 0.06,1.05 -0.65,2.04 -1.99,2.8 -1.23,0.69 -2.87,1.13 -4.63,1.22 -0.23,0.01 -0.46,0.02 -0.69,0.02 z m 1,-6.32 c -0.21,0 -0.42,0 -0.64,0.02 -1.6,0.08 -3.08,0.47 -4.17,1.08 -0.96,0.54 -1.49,1.21 -1.46,1.83 0.03,0.62 0.63,1.23 1.64,1.67 1.15,0.5 2.67,0.73 4.25,0.65 1.6,-0.08 3.08,-0.47 4.17,-1.08 0.96,-0.54 1.49,-1.21 1.46,-1.83 v 0 c -0.03,-0.62 -0.63,-1.23 -1.64,-1.67 -0.99,-0.43 -2.26,-0.66 -3.61,-0.66 z"
         id="path57" />
      <path
         class="cls-6"
         d="m 22.63,129.54 c -0.1,0 -0.21,-0.02 -0.3,-0.07 l -7.19,-3.6 c -0.33,-0.17 -0.47,-0.57 -0.3,-0.9 0.17,-0.33 0.57,-0.47 0.9,-0.3 l 6.21,3.11 v -0.71 c 0,-0.37 0.3,-0.67 0.67,-0.67 0.37,0 0.67,0.3 0.67,0.67 v 1.8 c 0,0.23 -0.12,0.45 -0.32,0.57 -0.11,0.07 -0.23,0.1 -0.35,0.1 z"
         id="path58" />
      <path
         class="cls-6"
         d="m 22.63,113.14 c -0.07,0 -0.14,-0.02 -0.2,-0.05 l -3.6,-1.8 c -0.13,-0.06 -0.22,-0.19 -0.24,-0.33 -0.02,-0.14 0.02,-0.29 0.13,-0.39 l 1.8,-1.8 c 0.1,-0.1 0.24,-0.15 0.39,-0.13 0.14,0.02 0.27,0.11 0.33,0.24 l 1.8,3.6 c 0.09,0.17 0.05,0.38 -0.08,0.52 -0.09,0.09 -0.2,0.13 -0.32,0.13 z m -2.84,-2.37 1.83,0.92 -0.92,-1.83 -0.92,0.92 z"
         id="path59" />
      <path
         class="cls-6"
         d="m 23.98,112.05 c 0,0 -0.05,0 -0.08,0 -0.19,-0.03 -0.34,-0.19 -0.37,-0.38 l -0.59,-3.98 c -0.02,-0.14 0.03,-0.29 0.13,-0.39 0.1,-0.1 0.26,-0.14 0.39,-0.12 l 2.5,0.44 c 0.14,0.02 0.27,0.12 0.33,0.25 0.06,0.13 0.06,0.28 -0.01,0.41 l -1.92,3.53 c -0.08,0.15 -0.23,0.24 -0.39,0.24 z m -0.05,-3.88 0.3,2.02 0.98,-1.8 z"
         id="path60" />
      <path
         class="cls-6"
         d="m 31.62,113.14 c -1.24,0 -2.25,-1.01 -2.25,-2.25 0,-1.24 1.01,-2.25 2.25,-2.25 1.24,0 2.25,1.01 2.25,2.25 0,1.24 -1.01,2.25 -2.25,2.25 z m 0,-3.6 c -0.74,0 -1.35,0.6 -1.35,1.35 0,0.75 0.61,1.35 1.35,1.35 0.74,0 1.35,-0.6 1.35,-1.35 0,-0.75 -0.61,-1.35 -1.35,-1.35 z"
         id="path61" />
      <path
         class="cls-6"
         d="m 37.01,123.92 c -2.02,0 -5.84,-0.85 -5.84,-4.04 0,-3.19 -4.89,-3.15 -4.94,-3.15 -0.17,0 -0.33,-0.1 -0.4,-0.25 l -1.8,-3.6 c -0.07,-0.14 -0.06,-0.3 0.02,-0.44 0.08,-0.13 0.23,-0.21 0.38,-0.21 0.31,0 7.64,0.05 7.64,4.04 0,1.12 0.3,1.96 0.89,2.49 0.89,0.8 2.19,0.67 2.2,0.66 0.19,-0.02 0.37,0.08 0.45,0.25 l 1.8,3.6 c 0.07,0.14 0.06,0.3 -0.02,0.44 -0.08,0.13 -0.23,0.21 -0.38,0.21 z m -5.05,-4.9 c 0.07,0.27 0.1,0.55 0.1,0.86 0,2.35 2.81,2.94 4.19,3.09 l -1.32,-2.63 h -0.02 c -0.55,0 -1.67,-0.11 -2.56,-0.9 -0.15,-0.13 -0.28,-0.27 -0.4,-0.43 z m -5.45,-3.18 c 1.5,0.05 3.73,0.54 4.86,1.96 -0.13,-0.45 -0.19,-0.96 -0.19,-1.51 0,-2.48 -4.25,-3 -6,-3.12 l 1.34,2.67 z"
         id="path62" />
      <path
         class="cls-6"
         d="m 282.64,116.27 c -4.81,0 -8.72,3.91 -8.72,8.72 0,1.49 0.38,2.88 1.05,4.11 0.12,0.23 0.26,0.47 0.41,0.68 1.11,1.71 2.82,2.99 4.82,3.56 0.02,-0.05 0.03,-0.11 0.05,-0.15 0.06,-0.2 0.26,-0.32 0.47,-0.26 0.2,0.06 0.32,0.27 0.26,0.47 -0.02,0.05 -0.02,0.08 -0.03,0.12 0.55,0.12 1.12,0.18 1.7,0.18 0.67,0 1.3,-0.08 1.93,-0.23 0,-0.03 -0.02,-0.06 -0.02,-0.08 -0.06,-0.2 0.06,-0.41 0.26,-0.47 0.21,-0.06 0.41,0.06 0.47,0.26 0.02,0.03 0.02,0.06 0.03,0.09 1.96,-0.62 3.62,-1.94 4.69,-3.65 0.15,-0.23 0.29,-0.45 0.39,-0.7 0.62,-1.18 0.97,-2.53 0.97,-3.94 0,-4.81 -3.91,-8.72 -8.72,-8.72 z m 7.17,12.17 c -0.11,0.23 -0.21,0.44 -0.36,0.64 -1.38,2.32 -3.91,3.88 -6.81,3.88 -2.9,0 -5.32,-1.49 -6.72,-3.73 -0.17,-0.23 -0.29,-0.45 -0.39,-0.7 -0.55,-1.06 -0.85,-2.27 -0.85,-3.53 0,-4.4 3.58,-7.96 7.96,-7.96 4.38,0 7.96,3.56 7.96,7.96 0,1.23 -0.29,2.4 -0.79,3.44 z"
         id="path63" />
      <path
         class="cls-6"
         d="m 282.64,118.55 c -3.55,0 -6.44,2.9 -6.44,6.44 0,3.54 2.9,6.44 6.44,6.44 3.54,0 6.44,-2.9 6.44,-6.44 0,-3.54 -2.9,-6.44 -6.44,-6.44 z m 0,12.13 c -3.14,0 -5.69,-2.55 -5.69,-5.69 0,-3.14 2.55,-5.69 5.69,-5.69 3.14,0 5.69,2.55 5.69,5.69 0,3.14 -2.55,5.69 -5.69,5.69 z"
         id="path64" />
      <path
         class="cls-6"
         d="m 280.97,133.41 c 0,0 -0.02,0.08 -0.03,0.12 -0.47,1.62 -1.99,6.25 -3.61,6.25 -1.03,0 -1.46,-1.29 -1.88,-2.53 -0.29,-0.89 -0.67,-2.02 -1.15,-2.02 -0.52,0 -1.05,0.2 -1.52,0.38 -0.61,0.24 -1.12,0.44 -1.53,0.17 -0.36,-0.26 -0.36,-0.76 -0.36,-0.92 0,-1.33 2.74,-4.35 4.08,-5.75 0.12,0.23 0.26,0.47 0.41,0.68 -1.68,1.76 -3.73,4.2 -3.73,5.06 0,0.24 0.05,0.3 0.05,0.3 0.09,0.03 0.53,-0.14 0.82,-0.24 0.52,-0.2 1.14,-0.44 1.79,-0.44 1.03,0 1.46,1.29 1.88,2.53 0.29,0.89 0.67,2.02 1.15,2.02 0.73,0 2.05,-2.91 2.87,-5.67 0.02,-0.05 0.03,-0.11 0.05,-0.15 0.06,-0.2 0.26,-0.32 0.47,-0.26 0.2,0.06 0.32,0.27 0.26,0.47 z"
         id="path65" />
      <path
         class="cls-6"
         d="m 294.64,134.85 c 0,0.17 0,0.67 -0.36,0.92 -0.41,0.27 -0.92,0.08 -1.53,-0.17 -0.47,-0.18 -1,-0.38 -1.52,-0.38 -0.49,0 -0.86,1.12 -1.15,2.02 -0.42,1.24 -0.85,2.53 -1.88,2.53 -1.64,0 -3.17,-4.73 -3.62,-6.29 0,-0.03 -0.02,-0.06 -0.02,-0.08 -0.06,-0.2 0.06,-0.41 0.26,-0.47 0.21,-0.06 0.41,0.06 0.47,0.26 0.02,0.03 0.02,0.06 0.03,0.09 0.82,2.78 2.15,5.73 2.88,5.73 0.49,0 0.86,-1.12 1.15,-2.02 0.42,-1.24 0.85,-2.53 1.88,-2.53 0.65,0 1.27,0.24 1.79,0.44 0.29,0.11 0.71,0.29 0.83,0.23 0,0 0.03,-0.08 0.03,-0.29 0,-0.88 -2.18,-3.46 -3.88,-5.22 0.15,-0.23 0.29,-0.45 0.39,-0.7 1.26,1.3 4.25,4.52 4.25,5.91 z"
         id="path66" />
      <path
         class="cls-6"
         d="m 290.22,117.41 c -0.68,-1.84 -1.83,-2.89 -3.35,-3.35 1.58,-0.41 2.72,-1.51 3.35,-3.35 0.49,1.64 1.51,2.87 3.35,3.35 -1.78,0.47 -2.86,1.63 -3.35,3.35 z"
         id="path67" />
      <path
         class="cls-6"
         d="m 294.77,123.48 c -0.68,-1.84 -1.83,-2.89 -3.35,-3.35 1.58,-0.41 2.72,-1.51 3.35,-3.35 0.49,1.64 1.51,2.87 3.35,3.35 -1.78,0.47 -2.86,1.63 -3.35,3.35 z"
         id="path68" />
      <path
         class="cls-6"
         d="m 268.99,129.54 c -0.68,-1.84 -1.83,-2.89 -3.35,-3.35 1.58,-0.41 2.72,-1.51 3.35,-3.35 0.49,1.64 1.51,2.87 3.35,3.35 -1.78,0.47 -2.86,1.63 -3.35,3.35 z"
         id="path69" />
      <path
         class="cls-6"
         d="m 272.03,120.44 c -0.68,-1.84 -1.83,-2.89 -3.35,-3.35 1.58,-0.41 2.72,-1.51 3.35,-3.35 0.49,1.64 1.51,2.87 3.35,3.35 -1.78,0.47 -2.86,1.63 -3.35,3.35 z"
         id="path70" />
      <path
         class="cls-15"
         d="m 135.96,59.07 c 0,0 7.74,-7.63 14,-4 3.46,2.01 6.11,11.6 5.06,17.3 -1.05,5.7 -3,7 -6,7 -3,0 -2,8 3,8"
         id="path71" />
    </g>
  </g>
</svg>
