<?xml version="1.0" encoding="UTF-8" standalone="no"?>
<svg
   id="Ilustración"
   viewBox="0 0 300 250"
   version="1.1"
   sodipodi:docname="3-contribuye-unete.svg"
   width="300"
   height="250"
   inkscape:version="1.3.2 (091e20e, 2023-11-25, custom)"
   xmlns:inkscape="http://www.inkscape.org/namespaces/inkscape"
   xmlns:sodipodi="http://sodipodi.sourceforge.net/DTD/sodipodi-0.dtd"
   xmlns="http://www.w3.org/2000/svg"
   xmlns:svg="http://www.w3.org/2000/svg">
  <sodipodi:namedview
     id="namedview9"
     pagecolor="#505050"
     bordercolor="#eeeeee"
     borderopacity="1"
     inkscape:showpageshadow="0"
     inkscape:pageopacity="0"
     inkscape:pagecheckerboard="0"
     inkscape:deskcolor="#505050"
     inkscape:zoom="2.7959596"
     inkscape:cx="247.5"
     inkscape:cy="99.965679"
     inkscape:window-width="1920"
     inkscape:window-height="1051"
     inkscape:window-x="-9"
     inkscape:window-y="-9"
     inkscape:window-maximized="1"
     inkscape:current-layer="Ilustración" />
  <defs
     id="defs1">
    <style
       id="style1">.cls-1,.cls-2,.cls-3{fill:#eae9e4;}.cls-1,.cls-2,.cls-3,.cls-4,.cls-5,.cls-6{stroke:#091a2c;}.cls-1,.cls-2,.cls-3,.cls-5{stroke-width:1.18px;}.cls-1,.cls-2,.cls-5{stroke-linecap:round;}.cls-1,.cls-3,.cls-4,.cls-6{stroke-miterlimit:10;}.cls-2,.cls-5{stroke-linejoin:round;}.cls-4{fill:#1e9190;}.cls-5{fill:none;}.cls-6{fill:#172e45;stroke-width:1.06px;}</style>
  </defs>
  <g
     id="g9"
     transform="matrix(1.3641452,0,0,1.3641452,-187.60768,-11.419902)">
    <path
       class="cls-2"
       d="m 250.45,138.31 -11.3,4.03 c -2.31,0.99 -3.42,3.63 -2.52,5.98 l 8.23,21.37 c 0.92,2.39 3.59,3.59 5.99,2.71 l 31.39,-11.59 -12.62,-30.75 -1.87,1.22 c 0,0 -6,-6.29 -13.49,-3.47 -7.49,2.82 -7.79,10.97 -7.79,10.97"
       id="path1" />
    <rect
       class="cls-6"
       x="-187.6313"
       y="-156.84038"
       width="64"
       height="42"
       rx="7.8000002"
       ry="7.8000002"
       transform="rotate(159.43)"
       id="rect1" />
    <path
       class="cls-2"
       d="m 215.95,47.28 c -2.55,5.05 6.09,29.73 10.11,29.44 4.02,-0.29 39.1,-8.44 38.47,-11.37 -0.84,-3.91 -15.51,-0.75 -15.72,-1.72 -0.42,-1.96 24.23,-6.25 23.38,-10.16 -0.63,-2.93 -24.09,2.13 -24.3,1.15 -0.42,-1.96 27.16,-6.88 26.32,-10.79 -1.05,-4.89 -30.72,4.58 -31.15,2.63 -0.42,-1.96 21.08,-6.59 20.24,-10.5 -1.48,-6.84 -35.54,10.74 -35.96,8.78 -0.42,-1.96 11.29,-18.8 4.45,-17.33 -5.87,1.27 -15.84,19.88 -15.84,19.88"
       id="path2" />
    <path
       class="cls-1"
       d="m 221.58,55.9 c 5.14,-1.18 7.01,-4.95 5.76,-11.17"
       id="path3" />
    <path
       class="cls-5"
       d="m 236.28,47.98 c 5.31,3.27 7.52,7.85 6.42,14.13"
       id="path4" />
    <path
       class="cls-3"
       d="m 282.28,49.15 c 0,0 -9.52,-19.01 -15.33,-20.52 -6.77,-1.76 4.22,15.56 3.71,17.5 -0.51,1.94 -33.79,-17.06 -35.56,-10.28 -1.01,3.87 20.28,9.41 19.78,11.35 -0.5,1.94 -29.75,-8.77 -31.01,-3.94 -1.01,3.87 26.34,9.95 25.84,11.89 -0.25,0.97 -23.48,-5.08 -24.23,-2.17 -1.01,3.87 23.44,9.2 22.94,11.13 -0.25,0.97 -14.77,-2.81 -15.78,1.06 -0.76,2.9 37.96,12.98 37.96,12.98 l 11.68,-28.99 z"
       id="path5" />
    <rect
       class="cls-4"
       x="276.70651"
       y="-70.113632"
       width="64"
       height="42"
       rx="7.8000002"
       ry="7.8000002"
       transform="rotate(22.98)"
       id="rect5" />
    <rect
       class="cls-4"
       x="197.968"
       y="216.87532"
       width="64"
       height="42"
       rx="7.8000002"
       ry="7.8000002"
       transform="rotate(-22.02)"
       id="rect6" />
    <rect
       class="cls-6"
       x="-260.58224"
       y="-64.159195"
       width="64"
       height="42"
       rx="7.8000002"
       ry="7.8000002"
       transform="rotate(-156.17)"
       id="rect7" />
    <path
       class="cls-2"
       d="m 243.43,137.46 11.17,4.39 c 2.28,1.07 3.3,3.74 2.32,6.05 l -8.9,21.1 c -0.99,2.36 -3.7,3.48 -6.07,2.52 l -31.01,-12.58 c -1.29,-12.66 2.35,-23.15 13.58,-30.34 l 1.83,1.28 c 0,0 6.2,-6.1 13.59,-3.05 7.62,3.15 7.44,11.21 7.44,11.21"
       id="path7" />
    <line
       class="cls-5"
       x1="255.16"
       y1="152.08"
       x2="245.92999"
       y2="147.94"
       id="line7" />
    <line
       class="cls-5"
       x1="252.14"
       y1="159.39"
       x2="243.77"
       y2="155.71001"
       id="line8" />
    <line
       class="cls-5"
       x1="248.78"
       y1="166.53999"
       x2="241.61"
       y2="163.48"
       id="line9" />
  </g>
</svg>
