<?xml version="1.0" encoding="UTF-8" standalone="no"?>
<svg
   id="Ilustración"
   viewBox="0 0 300 200"
   version="1.1"
   sodipodi:docname="4-contribuye-involucrate.svg"
   width="300"
   height="200"
   inkscape:version="1.3.2 (091e20e, 2023-11-25, custom)"
   xmlns:inkscape="http://www.inkscape.org/namespaces/inkscape"
   xmlns:sodipodi="http://sodipodi.sourceforge.net/DTD/sodipodi-0.dtd"
   xmlns:xlink="http://www.w3.org/1999/xlink"
   xmlns="http://www.w3.org/2000/svg"
   xmlns:svg="http://www.w3.org/2000/svg">
  <sodipodi:namedview
     id="namedview33"
     pagecolor="#505050"
     bordercolor="#eeeeee"
     borderopacity="1"
     inkscape:showpageshadow="0"
     inkscape:pageopacity="0"
     inkscape:pagecheckerboard="0"
     inkscape:deskcolor="#505050"
     inkscape:zoom="2.7959596"
     inkscape:cx="247.5"
     inkscape:cy="99.60802"
     inkscape:window-width="1920"
     inkscape:window-height="1051"
     inkscape:window-x="-9"
     inkscape:window-y="-9"
     inkscape:window-maximized="1"
     inkscape:current-layer="Ilustración" />
  <defs
     id="defs13">
    <pattern
       inkscape:collect="always"
       xlink:href="#Motivo_nuevo_8"
       id="pattern33"
       patternTransform="matrix(0.58,1.0045895,-1.0045895,0.58,-11311.97,3850.48)" />
    <style
       id="style1">.cls-1{fill:#0f1b2c;}.cls-1,.cls-2,.cls-3{stroke-width:0px;}.cls-4{stroke-width:1.18px;}.cls-4,.cls-3,.cls-5,.cls-6,.cls-7{fill:none;}.cls-4,.cls-8,.cls-5,.cls-9,.cls-10,.cls-11,.cls-6,.cls-12,.cls-7{stroke-linecap:round;stroke-linejoin:round;}.cls-4,.cls-11,.cls-6,.cls-7{stroke:#0f1b2c;}.cls-2,.cls-12{fill:#eae9e4;}.cls-8,.cls-13,.cls-5,.cls-9,.cls-10,.cls-12{stroke:#091a2c;}.cls-8,.cls-10{fill:#29669e;}.cls-13{fill:#1e9190;stroke-miterlimit:10;}.cls-9{fill:#172e45;stroke-width:.96px;}.cls-10{stroke-width:.92px;}.cls-11{fill:url(#Motivo_nuevo_8);stroke-width:2.55px;}.cls-6{stroke-width:2px;}</style>
    <pattern
       id="Motivo_nuevo_8"
       x="0"
       y="0"
       width="86"
       height="81"
       patternTransform="translate(-11311.97 3850.48) rotate(60) scale(1.16)"
       patternUnits="userSpaceOnUse"
       viewBox="0 0 86 81">
      <rect
         class="cls-3"
         width="86"
         height="81"
         id="rect1" />
      <rect
         class="cls-1"
         x="0"
         y="78.5"
         width="86"
         height="86"
         id="rect2" />
      <rect
         class="cls-1"
         x="0"
         y="-2.5"
         width="86"
         height="86"
         id="rect3" />
      <rect
         class="cls-2"
         x="0"
         y="2.5"
         width="86"
         height="3"
         id="rect4" />
      <rect
         class="cls-2"
         x="0"
         y="11.5"
         width="86"
         height="3"
         id="rect5" />
      <rect
         class="cls-2"
         x="0"
         y="20.5"
         width="86"
         height="3"
         id="rect6" />
      <rect
         class="cls-2"
         x="0"
         y="29.5"
         width="86"
         height="3"
         id="rect7" />
      <rect
         class="cls-2"
         x="0"
         y="38.5"
         width="86"
         height="3"
         id="rect8" />
      <rect
         class="cls-2"
         x="0"
         y="47.5"
         width="86"
         height="3"
         id="rect9" />
      <rect
         class="cls-2"
         x="0"
         y="56.5"
         width="86"
         height="3"
         id="rect10" />
      <rect
         class="cls-2"
         x="0"
         y="65.5"
         width="86"
         height="3"
         id="rect11" />
      <rect
         class="cls-2"
         x="0"
         y="74.5"
         width="86"
         height="3"
         id="rect12" />
      <rect
         class="cls-1"
         x="0"
         y="-83.5"
         width="86"
         height="86"
         id="rect13" />
    </pattern>
  </defs>
  <g
     id="g33"
     transform="matrix(0.96015971,0,0,0.96015971,-87.624918,20.636348)">
    <path
       class="cls-11"
       d="m 266.7,54.15 c -2.5,-2.5 2,-7 2,-22 0,-24 -30,-21 -30,-21 -13,0 -41.86,7.79 -35,37 5,21.29 -4,13 -4,28 0,9 3,10 3,10 l 74,11 c 0,0 7,-4 7,-17 0,-13 -11.48,-20.48 -17,-26 z"
       id="path13"
       style="fill:url(#pattern33)" />
    <path
       class="cls-13"
       d="m 178.7,124.15 c 0,0 21,-8 24,-8 4,0 13.79,37.11 12,38 -2,1 -52,15 -52,-6 0,-66 57,-65 57,-65 l 30.22,2.9 c 0,0 68.78,15.1 68.78,74.1 0,59 -66,0 -69,-2 -3,-2 12,-33 16,-31 4,2 42,25 42,25"
       id="path14" />
    <path
       class="cls-12"
       d="m 229.67,144.24 c -0.94,3.89 -14.97,7.91 -14.97,7.91 -9.27,-6.4 -13.72,-15.53 -10.2,-27.65 l 1.37,-4.54 c 0,0 6.31,-9.78 10.2,-8.84 3.53,0.85 4.58,4.39 4.75,5.05 2.42,-1.09 4.55,-1.77 5.71,-1.49 3.89,0.94 6.19,16.93 3.14,29.56 z"
       id="path15" />
    <path
       class="cls-12"
       d="m 263.5,132.52 c -1,8.98 -5.76,16.56 -13.8,21.63 0,0 -15,-4 -15,-8 0,-13 6,-28 10,-28 1.2,0 3.11,1.16 5.2,2.8 0.28,-0.54 2.13,-3.8 5.8,-3.8 4,0 7.84,10.99 7.84,10.99 l -0.04,4.34 c 0,0 0,0.02 0,0.03 z"
       id="path16" />
    <path
       class="cls-10"
       d="m 207.78647,102.20464 0.29445,-0.17 c 0.96129,-0.555 2.18205,-0.22058 2.73205,0.73205 l 8.235,14.26344 -3.76721,2.175 -8.235,-14.26344 c -0.555,-0.96129 -0.22058,-2.18205 0.73205,-2.73205 z"
       id="path17" />
    <rect
       class="cls-9"
       x="294.57623"
       y="-78.269173"
       width="43.93"
       height="55.470001"
       transform="rotate(30)"
       id="rect17" />
    <rect
       class="cls-12"
       x="299.26807"
       y="-74.044991"
       width="36.009998"
       height="49.740002"
       transform="rotate(30)"
       id="rect18" />
    <polygon
       class="cls-8"
       points="325.69,91.07 306.36,79.91 303.01,85.71 300.31,84.15 296.78,90.27 321.91,104.78 325.44,98.66 322.34,96.87 "
       id="polygon18" />
    <circle
       class="cls-7"
       cx="312.20001"
       cy="109.65"
       r="3.5"
       id="circle18" />
    <circle
       class="cls-7"
       cx="306.20001"
       cy="119.65"
       r="3.5"
       id="circle19" />
    <line
       class="cls-7"
       x1="294.70001"
       y1="97.150002"
       x2="306.70001"
       y2="104.15"
       id="line19" />
    <line
       class="cls-7"
       x1="292.70001"
       y1="100.15"
       x2="304.70001"
       y2="107.15"
       id="line20" />
    <line
       class="cls-7"
       x1="289.70001"
       y1="107.15"
       x2="301.70001"
       y2="114.15"
       id="line21" />
    <line
       class="cls-7"
       x1="286.70001"
       y1="111.15"
       x2="298.70001"
       y2="118.15"
       id="line22" />
    <path
       class="cls-12"
       d="m 250.16,78.13 c 0,0 -0.46,18.02 -0.46,22.02 0,5 -30,5 -30,-9 0,-14 0.22,-20.22 0.22,-20.22"
       id="path22" />
    <path
       class="cls-12"
       d="m 260.7,51.15 c -2.59,-13.63 -10.95,-26.85 -20.79,-31.5 -6.88,10.31 -17,20.27 -29.03,24.5 0.03,2.54 0.29,5.21 0.82,8.01 3.46,18.18 16.92,31.04 30.76,28.41 13.84,-2.63 21.7,-11.23 18.24,-29.41 z"
       id="path23" />
    <path
       class="cls-7"
       d="m 251.7,32.15 c 0,0 -2,-2 -6,-2 -4,0 -5.1,7.75 -3,13 2.1,5.25 3,7 6,7 3,0 2,8 -3,8"
       id="path24" />
    <line
       class="cls-6"
       x1="230.7"
       y1="40.150002"
       x2="233.7"
       y2="47.150002"
       id="line24" />
    <line
       class="cls-6"
       x1="249.7"
       y1="36.150002"
       x2="252.7"
       y2="43.150002"
       id="line25" />
    <path
       class="cls-7"
       d="m 249.7,66.15 c 0,0 -2,2 -5,2 -5,0 -7,-4 -7,-4"
       id="path25" />
    <line
       class="cls-5"
       x1="230.5"
       y1="123.5"
       x2="224.5"
       y2="126.5"
       id="line26" />
    <line
       class="cls-5"
       x1="230.5"
       y1="131.5"
       x2="224.5"
       y2="134.5"
       id="line27" />
    <line
       class="cls-5"
       x1="230.5"
       y1="140.5"
       x2="224.5"
       y2="143.5"
       id="line28" />
    <line
       class="cls-5"
       x1="239.5"
       y1="124.5"
       x2="245.5"
       y2="127.5"
       id="line29" />
    <line
       class="cls-5"
       x1="236.5"
       y1="132.5"
       x2="242.5"
       y2="135.5"
       id="line30" />
    <line
       class="cls-5"
       x1="235.5"
       y1="140.5"
       x2="241.5"
       y2="143.5"
       id="line31" />
    <polyline
       class="cls-5"
       points="313.5 109.5 311.5 110.5 310.5 102.5"
       id="polyline31" />
    <line
       class="cls-4"
       x1="249.89999"
       y1="120.95"
       x2="257.5"
       y2="126.5"
       id="line32" />
    <line
       class="cls-4"
       x1="220.82001"
       y1="116.17"
       x2="210.5"
       y2="121.5"
       id="line33" />
  </g>
</svg>
