<?xml version="1.0" encoding="UTF-8" standalone="no"?>
<svg
   id="Ilustración"
   viewBox="0 0 300 250"
   version="1.1"
   sodipodi:docname="5-contribuye-documenta.svg"
   width="300"
   height="250"
   inkscape:version="1.3.2 (091e20e, 2023-11-25, custom)"
   xmlns:inkscape="http://www.inkscape.org/namespaces/inkscape"
   xmlns:sodipodi="http://sodipodi.sourceforge.net/DTD/sodipodi-0.dtd"
   xmlns:xlink="http://www.w3.org/1999/xlink"
   xmlns="http://www.w3.org/2000/svg"
   xmlns:svg="http://www.w3.org/2000/svg">
  <sodipodi:namedview
     id="namedview30"
     pagecolor="#505050"
     bordercolor="#eeeeee"
     borderopacity="1"
     inkscape:showpageshadow="0"
     inkscape:pageopacity="0"
     inkscape:pagecheckerboard="0"
     inkscape:deskcolor="#505050"
     inkscape:zoom="2.7959596"
     inkscape:cx="247.5"
     inkscape:cy="99.965679"
     inkscape:window-width="1920"
     inkscape:window-height="1051"
     inkscape:window-x="-9"
     inkscape:window-y="-9"
     inkscape:window-maximized="1"
     inkscape:current-layer="Ilustración" />
  <defs
     id="defs13">
    <pattern
       inkscape:collect="always"
       xlink:href="#Motivo_nuevo_8"
       id="pattern30"
       patternTransform="matrix(0.6,1.0392305,-1.0392305,0.6,-12016.03,4307.44)" />
    <style
       id="style1">.cls-1,.cls-2,.cls-3,.cls-4,.cls-5,.cls-6,.cls-7{stroke-linecap:round;}.cls-1,.cls-2,.cls-8,.cls-4,.cls-5,.cls-7{stroke:#091a2c;}.cls-1,.cls-8{stroke-miterlimit:10;}.cls-1,.cls-9,.cls-4,.cls-5,.cls-6{fill:none;}.cls-2,.cls-3,.cls-4,.cls-5,.cls-6,.cls-7{stroke-linejoin:round;}.cls-2,.cls-8,.cls-5{stroke-width:1.04px;}.cls-2,.cls-10,.cls-7{fill:#eae9e4;}.cls-11{fill:#0f1b2c;}.cls-11,.cls-10,.cls-9{stroke-width:0px;}.cls-3{fill:url(#Motivo_nuevo_8);stroke-width:2.65px;}.cls-3,.cls-6{stroke:#0f1b2c;}.cls-8{fill:#1e9190;}.cls-4{stroke-width:2.08px;}.cls-6{stroke-width:1.22px;}.cls-7{stroke-width:1.42px;}</style>
    <pattern
       id="Motivo_nuevo_8"
       x="0"
       y="0"
       width="86"
       height="81"
       patternTransform="translate(-12016.03 4307.44) rotate(60) scale(1.2)"
       patternUnits="userSpaceOnUse"
       viewBox="0 0 86 81">
      <rect
         class="cls-9"
         width="86"
         height="81"
         id="rect1" />
      <rect
         class="cls-11"
         x="0"
         y="78.5"
         width="86"
         height="86"
         id="rect2" />
      <rect
         class="cls-11"
         x="0"
         y="-2.5"
         width="86"
         height="86"
         id="rect3" />
      <rect
         class="cls-10"
         x="0"
         y="2.5"
         width="86"
         height="3"
         id="rect4" />
      <rect
         class="cls-10"
         x="0"
         y="11.5"
         width="86"
         height="3"
         id="rect5" />
      <rect
         class="cls-10"
         x="0"
         y="20.5"
         width="86"
         height="3"
         id="rect6" />
      <rect
         class="cls-10"
         x="0"
         y="29.5"
         width="86"
         height="3"
         id="rect7" />
      <rect
         class="cls-10"
         x="0"
         y="38.5"
         width="86"
         height="3"
         id="rect8" />
      <rect
         class="cls-10"
         x="0"
         y="47.5"
         width="86"
         height="3"
         id="rect9" />
      <rect
         class="cls-10"
         x="0"
         y="56.5"
         width="86"
         height="3"
         id="rect10" />
      <rect
         class="cls-10"
         x="0"
         y="65.5"
         width="86"
         height="3"
         id="rect11" />
      <rect
         class="cls-10"
         x="0"
         y="74.5"
         width="86"
         height="3"
         id="rect12" />
      <rect
         class="cls-11"
         x="0"
         y="-83.5"
         width="86"
         height="86"
         id="rect13" />
    </pattern>
  </defs>
  <g
     id="g30"
     transform="matrix(1.3268092,0,0,1.3268092,-174.18859,-2.8820684)">
    <path
       class="cls-7"
       d="m 212.82,49.98 c -7.37,8.42 -13.48,11.56 -18.19,7.8 -5.2,-4.16 -3.93,-10.32 2.5,-19.49 8.93,-12.73 18.14,-12.71 22.96,-9.09 4.16,3.12 0,12.47 -7.28,20.79 z"
       id="path13" />
    <path
       class="cls-4"
       d="m 194.63,57.77 -8.32,9.35 z"
       id="path14" />
    <path
       class="cls-8"
       d="m 303.77,149.24 c 0,0 -43.65,-8.32 -43.65,-5.2 0,10.39 5.2,36.38 9.35,36.38 17.76,0 58.21,4.16 58.21,-22.87 0,-27.03 -7.05,-33.6 -13.51,-38.46 -4.16,-3.12 -34.2,-21.83 -34.2,-21.83 h -39.6 l -0.08,0.08 c -1.46,1.37 -21.96,20.7 -27.98,20.7 0,0 1.04,-6.24 -2.08,-6.24 -3.12,0 -3.12,3.12 -3.12,4.16 0,1.04 -7.28,-37.42 -11.43,-37.42 -4.15,0 -25.98,9.35 -25.98,12.47 0,3.12 19.75,78.99 30.14,78.99 h 63.4"
       id="path15" />
    <path
       class="cls-2"
       d="m 271.24,152.1 c 0,0 0,0.02 0.01,0.03 2.6,9.03 1.02,18.19 -4.69,26.25 0,0 -16,2.1 -17.58,-1.74 -5.15,-12.49 -5.33,-29.28 -1.48,-30.87 1.15,-0.48 3.45,-0.12 6.11,0.63 0.06,-0.63 -2.54,-5.95 4.07,-5.95 6.61,0 10.76,4.62 13.57,11.64 z"
       id="path16" />
    <line
       class="cls-5"
       x1="245.00999"
       y1="153.94"
       x2="251.97"
       y2="154.44"
       id="line16" />
    <line
       class="cls-5"
       x1="245.3"
       y1="162.81"
       x2="252.25"
       y2="163.32001"
       id="line17" />
    <line
       class="cls-5"
       x1="247.50999"
       y1="170.89999"
       x2="254.46001"
       y2="171.39999"
       id="line18" />
    <path
       class="cls-2"
       d="m 194.25,83.06 c -5.65,7.51 -13.91,11.77 -23.79,12.06 0,0 -11.3,-11.51 -9.19,-15.09 6.88,-11.63 20.18,-21.88 23.76,-19.76 1.07,0.63 2.17,2.68 3.17,5.26 0.54,-0.34 3.92,-2.27 7.2,-0.33 3.58,2.12 1.2,13.98 1.2,13.98 l -2.33,3.87 c 0,0 -0.01,0.02 -0.02,0.03 z"
       id="path18" />
    <line
       class="cls-5"
       x1="177.02"
       y1="63.200001"
       x2="185.28"
       y2="75.440002"
       id="line19" />
    <line
       class="cls-5"
       x1="170.11"
       y1="68.769997"
       x2="178"
       y2="81.68"
       id="line20" />
    <polyline
       class="cls-6"
       points="188.2 65.52 190.48 71.28 167.61 91.03"
       id="polyline20" />
    <line
       class="cls-6"
       x1="164.49001"
       y1="75.440002"
       x2="172.02"
       y2="86.690002"
       id="line21" />
    <line
       class="cls-6"
       x1="253.60001"
       y1="146.41"
       x2="259.07999"
       y2="147.16"
       id="line22" />
    <path
       class="cls-2"
       d="m 280.03,75.77 c 0,0 -0.09,13.11 -0.15,21.49 -0.01,2.87 -0.02,5.18 -0.02,6.24 0,4.16 -11.43,12.47 -23.91,11.43 -12.48,-1.04 -16.63,-11.43 -16.63,-11.43 l 0.96,-6.15 2.33,-15.03"
       id="path22" />
    <path
       class="cls-2"
       d="m 246.95904,24.703604 30.89399,5.614389 c 6.46413,1.174731 10.76327,7.383481 9.58854,13.847606 l -4.30019,23.662435 C 281.00469,79.58546 269.72484,87.404602 257.95757,85.266128 L 240.0607,82.013715 c -8.34334,-1.516242 -13.89036,-9.527158 -12.37412,-17.870503 l 5.42486,-29.851072 c 1.17473,-6.464124 7.38348,-10.763267 13.8476,-9.588536 z"
       id="path23" />
    <line
       class="cls-4"
       x1="259.07999"
       y1="47.380001"
       x2="258.04001"
       y2="55.689999"
       id="line23" />
    <line
       class="cls-4"
       x1="238.28999"
       y1="44.259998"
       x2="237.25"
       y2="52.57"
       id="line24" />
    <path
       class="cls-5"
       d="m 239.85,37.5 c 0,0 2.08,-2.08 5.2,-2.08 3.12,0 10.99,5.6 3.12,16.63 -2.6,3.64 -7.8,8.83 -8.32,9.35 -2.2,2.2 3.12,6.24 7.28,6.24"
       id="path24" />
    <path
       class="cls-5"
       d="m 246.6,74.4 c 0,0 5.2,1.04 9.35,-2.08"
       id="path25" />
    <path
       class="cls-3"
       d="m 231.2,43.97 c 0,0 -5.38,-10.1 -1.23,-21.54 4.15,-11.44 12.47,-9.35 23.91,-9.35 11.44,0 14.55,7.28 17.67,7.28 3.12,0 22.87,-2.08 22.87,14.55 0,16.63 -8.32,41.58 -12.47,41.58 -4.15,0 -5.2,-3.12 -5.2,-5.2 0,-2.08 6.24,1.04 6.24,-8.32 0,-9.36 -6.24,-4.16 -7.28,-4.16 -1.04,0 1.04,-12.47 1.04,-14.55 0,-2.08 1.97,-12.48 -17.67,-14.55 -19.75,-2.08 -23.91,-2.08 -27.88,14.26 z"
       id="path26"
       style="fill:url(#pattern30)" />
    <path
       class="cls-2"
       d="m 274.67,122.21 c 0,0 14.55,-7.28 14.55,-1.04 0,6.24 -3.12,24.95 -3.12,24.95 0,0 -18.71,-3.12 -19.75,-3.12 -1.04,0 -2.08,-9.35 -2.08,-11.43 0,-4.16 10.39,-5.2 14.55,-5.2 4.16,0 -1.04,-4.16 -4.16,-4.16 z"
       id="path27" />
    <path
       class="cls-5"
       d="m 289.22,121.17 c 0,0 -2.08,5.2 -10.39,5.2"
       id="path28" />
    <path
       class="cls-5"
       d="m 279.86,145.08 1.04,-12.47 c 0,0 -16.63,5.62 -16.63,-1.04"
       id="path29" />
    <path
       class="cls-1"
       d="m 222.32,118.5 c -4.1,30.6 -6,49 0,49"
       id="path30" />
  </g>
</svg>
