<?xml version="1.0" encoding="UTF-8" standalone="no"?>
<svg
   id="Propuetas_finales"
   viewBox="0 0 32 32"
   version="1.1"
   sodipodi:docname="blog.svg"
   inkscape:version="1.3.2 (091e20e, 2023-11-25, custom)"
   xmlns:inkscape="http://www.inkscape.org/namespaces/inkscape"
   xmlns:sodipodi="http://sodipodi.sourceforge.net/DTD/sodipodi-0.dtd"
   xmlns="http://www.w3.org/2000/svg"
   xmlns:svg="http://www.w3.org/2000/svg">
  <sodipodi:namedview
     id="namedview8"
     pagecolor="#505050"
     bordercolor="#eeeeee"
     borderopacity="1"
     inkscape:showpageshadow="0"
     inkscape:pageopacity="0"
     inkscape:pagecheckerboard="0"
     inkscape:deskcolor="#505050"
     inkscape:zoom="53.4375"
     inkscape:cx="9.2725146"
     inkscape:cy="20.781287"
     inkscape:window-width="1920"
     inkscape:window-height="1051"
     inkscape:window-x="-9"
     inkscape:window-y="-9"
     inkscape:window-maximized="1"
     inkscape:current-layer="g8" />
  <defs
     id="defs1">
    <inkscape:path-effect
       effect="bspline"
       id="path-effect9"
       is_visible="true"
       lpeversion="1.3"
       weight="33.333333"
       steps="2"
       helper_size="0"
       apply_no_weight="true"
       apply_with_weight="true"
       only_selected="false"
       uniform="false" />
    <inkscape:path-effect
       effect="bspline"
       id="path-effect8"
       is_visible="true"
       lpeversion="1.3"
       weight="33.333333"
       steps="2"
       helper_size="0"
       apply_no_weight="true"
       apply_with_weight="true"
       only_selected="false"
       uniform="false" />
    <style
       id="style1">.cls-1{stroke:#101b2c;stroke-linecap:round;stroke-linejoin:round;}.cls-1,.cls-2{fill:none;stroke-width:.75px;}.cls-2{stroke:#0f1b2c;stroke-miterlimit:10;}</style>
  </defs>
  <path
     style="fill:#1e9190;stroke:none;stroke-width:1px;stroke-linecap:butt;stroke-linejoin:miter;stroke-opacity:1;fill-opacity:1"
     d="m 17.422223,9.0510717 c 0.01871,-0.043665 0.05614,-0.1309925 0.09357,-0.1746579 0.03743,-0.043665 0.07485,-0.043665 0.13099,-0.062378 0.05614,-0.018713 0.130998,-0.056141 0.18714,-0.074855 0.05614,-0.018713 0.09356,-0.018713 0.130991,-0.037428 0.03743,-0.018714 0.07485,-0.056138 0.130993,-0.074852 0.05614,-0.018714 0.130997,-0.018714 0.230802,-0.037428 0.0998,-0.018714 0.224561,-0.05614 0.305654,-0.074854 0.08109,-0.018713 0.118513,-0.018713 0.174653,-0.018713 0.05614,0 0.130999,0 0.18714,0 0.05614,0 0.09356,0 0.112277,0.012475 0.01872,0.012476 0.01872,0.037427 0.03743,0.049903 0.01872,0.012475 0.05613,0.012475 0.0998,0.031188 0.04367,0.018713 0.09357,0.056138 0.17466,0.1185177 0.08109,0.062379 0.193374,0.1497089 0.268229,0.212088 0.07485,0.062379 0.112278,0.099803 0.130992,0.1372305 0.01871,0.037428 0.01871,0.074855 0.03743,0.1122823 0.01872,0.037427 0.05614,0.074851 0.07485,0.1122789 0.01871,0.037428 0.01871,0.074855 0.05614,0.1309943 0.03743,0.056139 0.112282,0.1309953 0.149708,0.1871355 0.03743,0.05614 0.03743,0.093567 0.06238,0.1372311 0.02495,0.043664 0.07485,0.093565 0.0998,0.1559449 0.02495,0.06238 0.02495,0.1372326 0.04367,0.1933746 0.01872,0.05614 0.05613,0.09356 0.07485,0.168418 0.01872,0.07486 0.01872,0.187136 0.03743,0.261992 0.01872,0.07485 0.05613,0.112275 0.07485,0.155941 0.01872,0.04366 0.01872,0.09356 0.01872,0.137233 0,0.04367 0,0.08109 0.01872,0.118519 0.01872,0.03743 0.05614,0.07485 0.07485,0.112281 0.01872,0.03743 0.01872,0.07485 0.03743,0.112281 0.01872,0.03743 0.05614,0.07485 0.07485,0.13099 0.01872,0.05614 0.01872,0.130999 0.03743,0.168425 0.01872,0.03743 0.05613,0.03743 0.07485,0.05614 0.01872,0.01872 0.01872,0.05614 0.01872,0.118515 0,0.06238 0,0.14971 0,0.230799 0,0.08109 0,0.155948 0.01872,0.21209 0.01872,0.05614 0.05613,0.09356 0.07485,0.130993 0.01872,0.03743 0.01872,0.07485 0.03743,0.130991 0.01871,0.05614 0.05614,0.130995 0.07485,0.193373 0.01871,0.06238 0.01871,0.112278 0.01871,0.155946 0,0.04367 0,0.08109 0,0.118519 0,0.03743 0,0.07485 0.02495,0.09357 0.02495,0.01872 0.07485,0.01872 0.0998,0.03743 0.02495,0.01872 0.02495,0.05613 0.02495,0.174655 0,0.118521 0,0.318131 0,0.455361 0,0.13723 0,0.212087 0,0.268229 0,0.05614 0,0.09356 0.01871,0.149704 0.01871,0.05614 0.05614,0.130996 0.07485,0.205848 0.01871,0.07485 0.01871,0.14971 0.01871,0.230802 0,0.08109 0,0.168421 0,0.2308 0,0.06238 0,0.0998 0.01871,0.155941 0.01871,0.05614 0.05614,0.130995 0.07485,0.187138 0.01871,0.05614 0.01871,0.09356 0.01871,0.174656 0,0.08109 0,0.205851 0,0.286944 0,0.08109 0,0.118513 0,0.155943 0,0.03743 0,0.07485 0.01871,0.130992 0.01871,0.05614 0.05614,0.130995 0.07485,0.187138 0.01871,0.05614 0.01871,0.09356 0.01871,0.174656 0,0.08109 0,0.20585 0,0.380509 0,0.174659 0,0.39922 0,0.592592 0,0.193373 0,0.355556 0,0.455362 0,0.09981 0,0.137227 -0.01247,0.155942 -0.01248,0.01872 -0.03743,0.01872 -0.0499,0.03743 -0.01247,0.01872 -0.01247,0.05614 -0.01247,0.174655 0,0.118521 0,0.318131 0,0.573881 0,0.255751 0,0.567642 0,0.761012 0,0.193371 0,0.268228 0,0.32437 0,0.05614 0,0.09356 -0.01872,0.130992 -0.01872,0.03743 -0.05614,0.07485 -0.07485,0.155944 -0.01872,0.08109 -0.01872,0.20585 -0.01872,0.380509 0,0.174659 0,0.39922 0,0.555166 0,0.155946 0,0.243274 -0.02495,0.305652 -0.02495,0.06238 -0.07485,0.0998 -0.0998,0.155943 -0.02495,0.05614 -0.02495,0.130997 -0.02495,0.268229 0,0.137232 0,0.336842 0,0.455362 0,0.11852 0,0.15594 0,0.19337 0,0.03743 0,0.07485 -0.01872,0.112281 -0.01872,0.03743 -0.05613,0.07485 -0.07485,0.130991 -0.01872,0.05614 -0.01872,0.130998 -0.01872,0.26823 0,0.137232 0,0.336842 0,0.455362 0,0.11852 0,0.15594 0,0.19337 0,0.03743 0,0.07485 -0.01871,0.130992 -0.01871,0.05614 -0.05614,0.130995 -0.07485,0.187138 -0.01871,0.05614 -0.01871,0.09356 -0.01871,0.137228 0,0.04367 0,0.09357 0,0.17466 0,0.08109 0,0.193375 0,0.442887 0,0.249513 0,0.636258 0,0.910722 0,0.274464 0,0.436647 0,0.536453 0,0.09981 0,0.137227 0,0.174657 0,0.03743 0,0.07485 -0.01872,0.112281 -0.01872,0.03743 -0.05614,0.07485 -0.07485,0.112281 -0.01872,0.03743 -0.01872,0.07485 -0.01872,0.13099 0,0.05614 0,0.130999 0,0.193375 0,0.06238 0,0.112277 -0.01872,0.137231 -0.01872,0.02495 -0.05614,0.02495 -0.07485,0.04367 -0.01872,0.01872 -0.01872,0.05614 -0.05614,0.09356 -0.03743,0.03743 -0.112281,0.07486 -0.168421,0.130995 -0.05614,0.05614 -0.09357,0.130995 -0.155946,0.168422 -0.06238,0.03743 -0.149708,0.03743 -0.193373,0.05614 -0.04367,0.01872 -0.04367,0.05614 -0.06238,0.07485 -0.01871,0.01872 -0.05613,0.01872 -0.07485,0.03743 -0.01872,0.01872 -0.01872,0.05614 -0.03743,0.07485 -0.01872,0.01872 -0.05614,0.01872 -0.07485,0.03743 -0.01872,0.01872 -0.01872,0.05613 -0.03743,0.07485 -0.01872,0.01872 -0.05614,0.01872 -0.07485,0.04367 -0.01872,0.02495 -0.01872,0.07485 -0.03743,0.0998 -0.01872,0.02495 -0.05614,0.02495 -0.07485,0.04367 -0.01872,0.01872 -0.01872,0.05613 -0.03743,0.07485 -0.01872,0.01872 -0.05613,0.01872 -0.09357,0.03743 -0.03743,0.01872 -0.07485,0.05614 -0.118516,0.07485 -0.04367,0.01872 -0.09357,0.01872 -0.193372,0.01872 -0.09981,0 -0.249516,0 -0.38051,0 -0.130994,0 -0.243275,0 -0.324365,0 -0.08109,0 -0.13099,0 -0.174659,0 -0.04367,0 -0.08109,0 -0.118519,-0.01248 -0.03743,-0.01248 -0.07485,-0.03742 -0.112282,-0.0499 -0.03743,-0.01248 -0.07485,-0.01248 -0.09356,-0.03743 -0.01872,-0.02495 -0.01872,-0.07485 -0.03743,-0.0998 -0.01872,-0.02495 -0.05613,-0.02495 -0.07485,-0.04367 -0.01872,-0.01872 -0.01872,-0.05614 -0.03743,-0.09357 -0.01872,-0.03743 -0.05614,-0.07485 -0.07485,-0.112281 -0.01872,-0.03743 -0.01872,-0.07485 -0.03743,-0.112281 -0.01872,-0.03743 -0.05614,-0.07485 -0.07485,-0.11228 -0.01872,-0.03743 -0.01872,-0.07485 -0.01872,-0.155944 0,-0.08109 0,-0.20585 0,-0.324369 0,-0.118518 0,-0.230798 0,-0.305654 0,-0.07485 0,-0.112275 0.01248,-0.130991 0.01247,-0.01872 0.03742,-0.01872 0.0499,-0.03743 0.01247,-0.01872 0.01247,-0.05614 0.03119,-0.09356 0.01872,-0.03743 0.05614,-0.07485 0.09357,-0.112281 0.03743,-0.03743 0.07485,-0.07485 0.112281,-0.09357 0.03743,-0.01872 0.07485,-0.01872 0.09357,-0.04367 0.01872,-0.02495 0.01872,-0.07485 0.03743,-0.118519 0.01872,-0.04367 0.05613,-0.08109 0.07485,-0.118519 0.01872,-0.03743 0.01872,-0.07485 0.01872,-0.112281 0,-0.03743 0,-0.07485 0,-0.212084 0,-0.137234 0,-0.374271 0,-0.511505 0,-0.137233 0,-0.174653 0.02495,-0.193368 0.02495,-0.01872 0.07485,-0.01872 0.0998,-0.03743 0.02495,-0.01872 0.02495,-0.05614 0.02495,-0.09357 0,-0.03743 0,-0.07485 0,-0.212084 0,-0.137234 0,-0.374271 0,-0.530215 0,-0.155943 0,-0.230801 0,-0.286943 0,-0.05614 0,-0.09356 0.01872,-0.130992 0.01872,-0.03743 0.05614,-0.07485 0.07485,-0.112281 0.01872,-0.03743 0.01872,-0.07485 0.01872,-0.118515 0,-0.04367 0,-0.09358 0,-0.230805 0,-0.137229 0,-0.361791 0,-0.492787 0,-0.130995 0,-0.168415 0,-0.212081 0,-0.04367 0,-0.09356 0.01872,-0.137234 0.01872,-0.04367 0.05614,-0.08109 0.07485,-0.118519 0.01872,-0.03743 0.01872,-0.07485 0.01872,-0.112281 0,-0.03743 0,-0.07485 0,-0.149706 0,-0.07485 0,-0.187136 0,-0.324368 0,-0.137232 0,-0.299415 0,-0.399222 0,-0.09981 0,-0.137226 0,-0.174657 0,-0.03743 0,-0.07485 0.01872,-0.112281 0.01872,-0.03743 0.05613,-0.07485 0.07485,-0.112281 0.01872,-0.03743 0.01872,-0.07485 0.01872,-0.11228 0,-0.03743 0,-0.07485 0,-0.174657 0,-0.09981 0,-0.26199 0,-0.380507 0,-0.118517 0,-0.193374 0,-0.249516 0,-0.05614 0,-0.09356 0.01871,-0.174656 0.01871,-0.08109 0.05614,-0.205848 0.07485,-0.324367 0.01871,-0.11852 0.01871,-0.2308 0.01871,-0.305656 0,-0.07485 0,-0.112275 0,-0.149706 0,-0.03743 0,-0.07485 0.01872,-0.11228 0.01872,-0.03743 0.05614,-0.07485 0.07485,-0.118516 0.01872,-0.04367 0.01872,-0.09356 0.01872,-0.193373 0,-0.09981 0,-0.249515 0,-0.343084 0,-0.09357 0,-0.130988 0,-0.168419 0,-0.03743 0,-0.07485 0.01871,-0.137231 0.01871,-0.06238 0.05614,-0.149707 0.07485,-0.212088 0.01871,-0.06238 0.01871,-0.0998 0.01871,-0.155941 0,-0.05614 0,-0.130997 0,-0.268229 0,-0.137232 0,-0.336843 0,-0.455363 0,-0.11852 0,-0.15594 0,-0.19337 0,-0.03743 0,-0.07485 0.01872,-0.09356 0.01872,-0.01872 0.05613,-0.01872 0.07485,-0.03743 0.01872,-0.01872 0.01872,-0.05614 0.01872,-0.112275 0,-0.05614 0,-0.130998 0,-0.230803 0,-0.0998 0,-0.224562 0,-0.305655 0,-0.08109 0,-0.118513 0,-0.155943 0,-0.03743 0,-0.07485 -0.01248,-0.09357 -0.01247,-0.01872 -0.03742,-0.01872 -0.0499,-0.03743 -0.01248,-0.01872 -0.01248,-0.05614 -0.03119,-0.09356 -0.01872,-0.03743 -0.05613,-0.07485 -0.07485,-0.11228 -0.01872,-0.03743 -0.01872,-0.07485 -0.03743,-0.09357 -0.01872,-0.01872 -0.05613,-0.01872 -0.07485,-0.05614 -0.01872,-0.03742 -0.01872,-0.112282 -0.03743,-0.149709 -0.01872,-0.03743 -0.05614,-0.03743 -0.07485,-0.06238 -0.01871,-0.02495 -0.01871,-0.07485 -0.01871,-0.193371 0,-0.118521 0,-0.305656 0,-0.536455 0,-0.230799 0,-0.505263 0,-0.66121 0,-0.155947 0,-0.193367 -0.01872,-0.212082 -0.01872,-0.01872 -0.05614,-0.01872 -0.07485,-0.05614 -0.01872,-0.03742 -0.01872,-0.112282 -0.06238,-0.149709 -0.04367,-0.03743 -0.130994,-0.03743 -0.174658,-0.08109 -0.04367,-0.04366 -0.04367,-0.130994 -0.06238,-0.174658 -0.01872,-0.04367 -0.05614,-0.04367 -0.07485,-0.06238 -0.01872,-0.01872 -0.01872,-0.05613 -0.01872,-0.09356 0,-0.03743 0,-0.07485 0,-0.112281 0,-0.03743 0,-0.07485 -0.01872,-0.112281 -0.01872,-0.03743 -0.05614,-0.07485 -0.07485,-0.130991 -0.01872,-0.05614 -0.01872,-0.130998 -0.01872,-0.193375 0,-0.06238 0,-0.112277 0,-0.155945 0,-0.04367 0,-0.08109 -0.01872,-0.118519 -0.01871,-0.03743 -0.05613,-0.07485 -0.07485,-0.112281 -0.01872,-0.03743 -0.01872,-0.07485 -0.01872,-0.130991 0,-0.05614 0,-0.130998 0,-0.18714 0,-0.05614 0,-0.09356 -0.01872,-0.112277 -0.01872,-0.01872 -0.05613,-0.01872 -0.07485,-0.06238 -0.01872,-0.04366 -0.01872,-0.130994 -0.03743,-0.174659 -0.01872,-0.04366 -0.05614,-0.04366 -0.07485,-0.08109 -0.01872,-0.03742 -0.01872,-0.112282 -0.03743,-0.149709 -0.01872,-0.03743 -0.05614,-0.03743 -0.07485,-0.07485 -0.01872,-0.03743 -0.01872,-0.112283 -0.03743,-0.14971 -0.01872,-0.03743 -0.05614,-0.03743 -0.07485,-0.05614 -0.01872,-0.01872 -0.01872,-0.05613 -0.04367,-0.09356 -0.02495,-0.03743 -0.07485,-0.07485 -0.0998,-0.112282 -0.02495,-0.03743 -0.02495,-0.07485 -0.04367,-0.09357 -0.01871,-0.01872 -0.05613,-0.01872 -0.07485,-0.062381 -0.01872,-0.043664 -0.01872,-0.1309938 -0.03743,-0.1746585 -0.01872,-0.043665 -0.05614,-0.043665 -0.07485,-0.081092 -0.01872,-0.037427 -0.01872,-0.1122806 -0.03743,-0.1497075 -0.01872,-0.037427 -0.05614,-0.037427 -0.07485,-0.074854 -0.01872,-0.037427 -0.01872,-0.1122806 -0.03743,-0.1497075 -0.01872,-0.037427 -0.05614,-0.037427 -0.07485,-0.05614 -0.01872,-0.018713 -0.01872,-0.05614 -0.01872,-0.093567 0,-0.037427 0,-0.074854 0,-0.1185182 0,-0.043664 0,-0.093567 0.01248,-0.1185187 0.01247,-0.024951 0.03742,-0.024951 0.06861,-0.024951 0.03119,0 0.06861,0 0.106041,0 0.03743,0 0.07485,0 0.0998,0.024952 0.02495,0.024952 0.03743,0.074852 0.04367,0.099804 0.0062,0.024952 0.0062,0.024947 0.02495,-0.018718 z"
     id="path8"
     inkscape:path-effect="#path-effect8"
     inkscape:original-d="m 17.403509,9.0947368 c 0.03743,-0.087329 0.07485,-0.1746588 0.11228,-0.2619883 0.03743,0 0.07485,0 0.112281,0 0.07485,-0.037427 0.149708,-0.074854 0.224562,-0.1122807 0.03743,0 0.07485,0 0.11228,0 0.03743,-0.037427 0.07485,-0.074854 0.112281,-0.1122807 0.07485,0 0.149708,0 0.224561,0 0.124757,-0.037427 0.249513,-0.074854 0.374269,-0.1122807 0.03743,0 0.07485,0 0.112281,0 0.07485,0 0.149708,0 0.224561,0 0.03743,0 0.07485,0 0.112281,0 0,0.024951 0,0.049903 0,0.074854 0.03743,0 0.07485,0 0.112281,0 0.0499,0.037427 0.0998,0.074854 0.149708,0.1122807 0.11228,0.087329 0.224561,0.1746589 0.336842,0.2619883 0.03743,0.037427 0.07485,0.074854 0.11228,0.1122807 0,0.037427 0,0.074854 0,0.1122807 0.03743,0.037427 0.07485,0.074854 0.112281,0.1122807 0,0.037427 0,0.074854 0,0.1122807 0.07485,0.074854 0.149708,0.1497076 0.224561,0.2245615 0,0.037427 0,0.074854 0,0.1122807 0.0499,0.049902 0.0998,0.099805 0.149708,0.1497076 0,0.074854 0,0.149707 0,0.224561 0.03743,0.03743 0.07485,0.07485 0.112281,0.112281 0,0.112281 0,0.224561 0,0.336842 0.03743,0.03743 0.07485,0.07485 0.11228,0.112281 0,0.0499 0,0.0998 0,0.149707 0,0.03743 0,0.07485 0,0.112281 0.03743,0.03743 0.07485,0.07485 0.112281,0.112281 0,0.03743 0,0.07485 0,0.11228 0.03743,0.03743 0.07485,0.07485 0.112281,0.112281 0,0.07485 0,0.149708 0,0.224561 0.03743,0 0.07485,0 0.112281,0 0,0.03743 0,0.07485 0,0.112281 0,0.08733 0,0.174659 0,0.261988 0,0.07485 0,0.149708 0,0.224562 0.03743,0.03743 0.07485,0.07485 0.11228,0.112281 0,0.03743 0,0.07485 0,0.11228 0.03743,0.07485 0.07485,0.149708 0.112281,0.224562 0,0.0499 0,0.0998 0,0.149707 0,0.03743 0,0.07485 0,0.112281 0,0.03743 0,0.07485 0,0.112281 0.0499,0 0.0998,0 0.149708,0 0,0.03743 0,0.07485 0,0.11228 0,0.199611 0,0.399221 0,0.598831 0,0.07485 0,0.149707 0,0.224561 0,0.03743 0,0.07485 0,0.112281 0.03743,0.07485 0.07485,0.149708 0.11228,0.224561 0,0.07485 0,0.149708 0,0.224562 0,0.08733 0,0.174659 0,0.261988 0,0.03743 0,0.07485 0,0.112281 0.03743,0.07485 0.07485,0.149707 0.112281,0.224561 0,0.03743 0,0.07485 0,0.112281 0,0.124756 0,0.249513 0,0.374269 0,0.03743 0,0.07485 0,0.112281 0,0.03743 0,0.07485 0,0.11228 0.03743,0.07485 0.07485,0.149708 0.112281,0.224562 0,0.03743 0,0.07485 0,0.11228 0,0.124757 0,0.249513 0,0.374269 0,0.224562 0,0.449123 0,0.673685 0,0.162183 0,0.324366 0,0.486549 0,0.03743 0,0.07485 0,0.112281 -0.02495,0 -0.0499,0 -0.07485,0 0,0.03743 0,0.07485 0,0.112281 0,0.19961 0,0.39922 0,0.59883 0,0.311891 0,0.623782 0,0.935673 0,0.07485 0,0.149707 0,0.224561 0,0.03743 0,0.07485 0,0.112281 -0.03743,0.03743 -0.07485,0.07485 -0.112281,0.11228 0,0.124757 0,0.249513 0,0.374269 0,0.224562 0,0.449123 0,0.673685 0,0.08733 0,0.174658 0,0.261988 -0.0499,0.03743 -0.0998,0.07485 -0.149707,0.112281 0,0.07485 0,0.149707 0,0.224561 0,0.19961 0,0.39922 0,0.59883 0,0.03743 0,0.07485 0,0.112281 0,0.03743 0,0.07485 0,0.112281 -0.03743,0.03743 -0.07485,0.07485 -0.112281,0.112281 0,0.07485 0,0.149707 0,0.224561 0,0.19961 0,0.39922 0,0.59883 0,0.03743 0,0.07485 0,0.112281 0,0.03743 0,0.07485 0,0.112281 -0.03743,0.07485 -0.07485,0.149707 -0.112281,0.224561 0,0.03743 0,0.07485 0,0.112281 0,0.0499 0,0.0998 0,0.149707 0,0.112281 0,0.224562 0,0.336843 0,0.386744 0,0.773489 0,1.160233 0,0.162184 0,0.324367 0,0.48655 0,0.03743 0,0.07485 0,0.112281 0,0.03743 0,0.07485 0,0.112281 -0.03743,0.03743 -0.07485,0.07485 -0.112281,0.11228 0,0.03743 0,0.07485 0,0.112281 0,0.07485 0,0.149708 0,0.224561 0,0.0499 0,0.0998 0,0.149708 -0.03743,0 -0.07485,0 -0.11228,0 0,0.03743 0,0.07485 0,0.112281 -0.07485,0.03743 -0.149708,0.07485 -0.224562,0.11228 -0.03743,0.07485 -0.07485,0.149708 -0.11228,0.224562 -0.08733,0 -0.174659,0 -0.261989,0 0,0.03743 0,0.07485 0,0.112281 -0.03743,0 -0.07485,0 -0.11228,0 0,0.03743 0,0.07485 0,0.11228 -0.03743,0 -0.07485,0 -0.112281,0 0,0.03743 0,0.07485 0,0.112281 -0.03743,0 -0.07485,0 -0.112281,0 0,0.0499 0,0.0998 0,0.149708 -0.03743,0 -0.07485,0 -0.11228,0 0,0.03743 0,0.07485 0,0.11228 -0.03743,0 -0.07485,0 -0.112281,0 -0.03743,0.03743 -0.07485,0.07485 -0.112281,0.112281 -0.0499,0 -0.0998,0 -0.149707,0 -0.149708,0 -0.299416,0 -0.449123,0 -0.112281,0 -0.224562,0 -0.336842,0 -0.0499,0 -0.0998,0 -0.149708,0 -0.03743,0 -0.07485,0 -0.112281,0 -0.03743,-0.02495 -0.07485,-0.0499 -0.11228,-0.07485 -0.03743,0 -0.07485,0 -0.112281,0 0,-0.0499 0,-0.0998 0,-0.149707 -0.03743,0 -0.07485,0 -0.112281,0 0,-0.03743 0,-0.07485 0,-0.112281 -0.03743,-0.03743 -0.07485,-0.07485 -0.112281,-0.112281 0,-0.03743 0,-0.07485 0,-0.112281 -0.03743,-0.03743 -0.07485,-0.07485 -0.11228,-0.11228 0,-0.03743 0,-0.07485 0,-0.112281 0,-0.124756 0,-0.249513 0,-0.374269 0,-0.112281 0,-0.224561 0,-0.336842 0,-0.03743 0,-0.07485 0,-0.112281 0.02495,0 0.0499,0 0.07485,0 0,-0.03743 0,-0.07485 0,-0.11228 0.03743,-0.03743 0.07485,-0.07485 0.11228,-0.112281 0.03743,-0.03743 0.07485,-0.07485 0.112281,-0.112281 0.03743,0 0.07485,0 0.112281,0 0,-0.0499 0,-0.0998 0,-0.149707 0.03743,-0.03743 0.07485,-0.07485 0.11228,-0.112281 0,-0.03743 0,-0.07485 0,-0.112281 0,-0.03743 0,-0.07485 0,-0.112281 0,-0.237037 0,-0.474074 0,-0.711111 0,-0.03743 0,-0.07485 0,-0.11228 0.0499,0 0.0998,0 0.149708,0 0,-0.03743 0,-0.07485 0,-0.112281 0,-0.03743 0,-0.07485 0,-0.112281 0,-0.237037 0,-0.474074 0,-0.711111 0,-0.07485 0,-0.149708 0,-0.224561 0,-0.03743 0,-0.07485 0,-0.112281 0.03743,-0.03743 0.07485,-0.07485 0.112281,-0.112281 0,-0.03743 0,-0.07485 0,-0.11228 0,-0.0499 0,-0.09981 0,-0.149708 0,-0.224561 0,-0.449123 0,-0.673684 0,-0.03743 0,-0.07485 0,-0.112281 0,-0.0499 0,-0.0998 0,-0.149708 0.03743,-0.03743 0.07485,-0.07485 0.11228,-0.11228 0,-0.03743 0,-0.07485 0,-0.112281 0,-0.03743 0,-0.07485 0,-0.112281 0,-0.11228 0,-0.224561 0,-0.336842 0,-0.162183 0,-0.324366 0,-0.486549 0,-0.03743 0,-0.07485 0,-0.112281 0,-0.03743 0,-0.07485 0,-0.112281 0.03743,-0.03743 0.07485,-0.07485 0.112281,-0.112281 0,-0.03743 0,-0.07485 0,-0.11228 0,-0.03743 0,-0.07485 0,-0.112281 0,-0.162183 0,-0.324366 0,-0.48655 0,-0.07485 0,-0.149707 0,-0.224561 0,-0.03743 0,-0.07485 0,-0.112281 0.03743,-0.124756 0.07485,-0.249512 0.112281,-0.374269 0,-0.112281 0,-0.224561 0,-0.336842 0,-0.03743 0,-0.07485 0,-0.112281 0,-0.03743 0,-0.07485 0,-0.11228 0.03743,-0.03743 0.07485,-0.07485 0.11228,-0.112281 0,-0.0499 0,-0.0998 0,-0.149708 0,-0.149707 0,-0.299415 0,-0.449122 0,-0.03743 0,-0.07485 0,-0.112281 0,-0.03743 0,-0.07485 0,-0.112281 0.03743,-0.08733 0.07485,-0.174659 0.112281,-0.261988 0,-0.03743 0,-0.07485 0,-0.112281 0,-0.07485 0,-0.149707 0,-0.224561 0,-0.19961 0,-0.399221 0,-0.598831 0,-0.03743 0,-0.07485 0,-0.11228 0,-0.03743 0,-0.07485 0,-0.112281 0.03743,0 0.07485,0 0.112281,0 0,-0.03743 0,-0.07485 0,-0.112281 0,-0.07485 0,-0.149707 0,-0.224561 0,-0.124756 0,-0.249513 0,-0.374269 0,-0.03743 0,-0.07485 0,-0.112281 0,-0.03743 0,-0.07485 0,-0.112281 -0.02495,0 -0.0499,0 -0.07485,0 0,-0.03743 0,-0.07485 0,-0.11228 -0.03743,-0.03743 -0.07485,-0.07485 -0.112281,-0.112281 0,-0.03743 0,-0.07485 0,-0.112281 -0.03743,0 -0.07485,0 -0.11228,0 0,-0.07485 0,-0.149707 0,-0.224561 -0.03743,0 -0.07485,0 -0.112281,0 0,-0.0499 0,-0.0998 0,-0.149708 0,-0.187134 0,-0.374269 0,-0.561403 0,-0.274464 0,-0.548928 0,-0.823392 0,-0.03743 0,-0.07485 0,-0.112281 -0.03743,0 -0.07485,0 -0.112281,0 0,-0.07485 0,-0.149707 0,-0.224561 -0.08733,0 -0.174659,0 -0.261988,0 0,-0.08733 0,-0.174659 0,-0.261988 -0.03743,0 -0.07485,0 -0.112281,0 0,-0.03743 0,-0.07485 0,-0.112281 0,-0.03743 0,-0.07485 0,-0.112281 0,-0.03743 0,-0.07485 0,-0.112281 -0.03743,-0.03743 -0.07485,-0.07485 -0.11228,-0.11228 0,-0.07485 0,-0.149708 0,-0.224562 0,-0.0499 0,-0.0998 0,-0.149707 0,-0.03743 0,-0.07485 0,-0.112281 -0.03743,-0.03743 -0.07485,-0.07485 -0.112281,-0.112281 0,-0.03743 0,-0.07485 0,-0.11228 0,-0.07485 0,-0.149708 0,-0.224562 0,-0.03743 0,-0.07485 0,-0.11228 -0.03743,0 -0.07485,0 -0.112281,0 0,-0.08733 0,-0.174659 0,-0.261989 -0.03743,0 -0.07485,0 -0.112281,0 0,-0.07485 0,-0.149707 0,-0.224561 -0.03743,0 -0.07485,0 -0.11228,0 0,-0.07485 0,-0.149708 0,-0.224562 -0.03743,0 -0.07485,0 -0.112281,0 0,-0.03743 0,-0.07485 0,-0.11228 -0.0499,-0.03743 -0.0998,-0.07485 -0.149708,-0.112281 0,-0.03743 0,-0.07485 0,-0.112281 -0.03743,0 -0.07485,0 -0.11228,0 0,-0.087329 0,-0.1746583 0,-0.2619877 -0.03743,0 -0.07485,0 -0.112281,0 0,-0.074854 0,-0.1497076 0,-0.2245615 -0.03743,0 -0.07485,0 -0.112281,0 0,-0.074854 0,-0.1497076 0,-0.2245614 -0.03743,0 -0.07485,0 -0.11228,0 0,-0.037427 0,-0.074854 0,-0.1122807 0,-0.037427 0,-0.074854 0,-0.1122807 0,-0.049902 0,-0.099805 0,-0.1497076 0.02495,0 0.0499,0 0.07485,0 0.03743,0 0.07485,0 0.112281,0 0.03743,0 0.07485,0 0.112281,0 0.01248,0.049903 0.02495,0.099805 0.03743,0.1497076 z" />
  <g
     id="g8"
     transform="matrix(1.284114,0,0,1.284114,-4.8411702,-4.1213272)"
     style="fill:none;fill-opacity:1;stroke-width:0.999906;stroke-dasharray:none">
    <path
       class="cls-1"
       d="m 22.49,7.77 1.58,-2.63 c 0.21,-0.34 0.68,-0.4 0.96,-0.12 l 1.31,1.31 c 0.3,0.3 0.21,0.82 -0.18,1 L 23.27,8.64 C 22.72,8.89 22.18,8.28 22.49,7.76 Z"
       id="path1"
       style="fill:none;fill-opacity:1;stroke-width:0.999906;stroke-dasharray:none" />
    <path
       class="cls-1"
       d="m 24.45,9.91 2.97,-0.74 c 0.39,-0.1 0.77,0.2 0.77,0.6 v 1.86 c 0,0.43 -0.43,0.73 -0.83,0.58 L 24.39,11.1 c -0.57,-0.21 -0.52,-1.03 0.07,-1.18 z"
       id="path2"
       style="fill:none;fill-opacity:1;stroke-width:0.999906;stroke-dasharray:none" />
    <path
       style="fill:#1e9190;stroke:none;stroke-width:0.778747px;stroke-linecap:butt;stroke-linejoin:miter;stroke-opacity:1;fill-opacity:1"
       d="m 4.5035549,15.402252 c 0.019429,-0.0049 0.058294,-0.01458 0.1020139,-0.03401 0.04372,-0.01943 0.092294,-0.04858 0.1238698,-0.06315 0.031575,-0.01457 0.046149,-0.01457 0.060721,-0.02429 0.014573,-0.0097 0.029146,-0.02915 0.051006,-0.05343 0.02186,-0.02429 0.051003,-0.05343 0.065577,-0.07529 0.014574,-0.02186 0.014574,-0.03644 0.02186,-0.04372 0.00729,-0.0073 0.02186,-0.0073 0.046149,-0.02186 0.024289,-0.01457 0.05829,-0.04372 0.089866,-0.07287 0.031577,-0.02915 0.060719,-0.05829 0.097152,-0.08258 0.036433,-0.02429 0.080152,-0.04372 0.109299,-0.05343 0.029147,-0.0097 0.043719,-0.0097 0.060721,-0.0097 0.017002,0 0.036432,0 0.053434,0 0.017002,0 0.031575,0 0.046149,0.01457 0.014574,0.01457 0.029144,0.04372 0.043717,0.06558 0.014573,0.02186 0.029149,0.03644 0.043721,0.05101 0.014571,0.01457 0.029148,0.02915 0.075295,0.06801 0.046147,0.03886 0.1238698,0.10201 0.1627313,0.14087 0.038862,0.03886 0.038862,0.05344 0.038862,0.08987 0,0.03643 0,0.09472 0,0.184591 0,0.08987 0,0.21131 0,0.296321 0,0.08501 0,0.133581 -0.00729,0.172446 -0.00729,0.03886 -0.021857,0.06801 -0.029145,0.09715 -0.00729,0.02915 -0.00729,0.05829 -0.00729,0.10444 0,0.04615 0,0.1093 0,0.155449 0,0.04615 0,0.07529 -0.00729,0.111725 -0.00729,0.03644 -0.02186,0.08016 -0.029146,0.109298 -0.00729,0.02914 -0.00729,0.04372 -0.00729,0.08258 0,0.03886 0,0.10201 0,0.16273 0,0.06072 0,0.119014 0,0.165161 0,0.04615 0,0.08016 0,0.104441 0,0.02429 0,0.03887 0.00729,0.06073 0.00729,0.02186 0.021857,0.051 0.029145,0.07286 0.00729,0.02186 0.00729,0.03644 0.00729,0.0583 0,0.02186 0,0.051 0.00729,0.08258 0.00729,0.03158 0.021859,0.06558 0.029145,0.08986 0.00729,0.02429 0.00729,0.03887 0.00729,0.0753 0,0.03643 0,0.09472 0,0.131156 0,0.03643 0,0.05101 0.00729,0.06558 0.00729,0.01457 0.021862,0.02915 0.029148,0.05343 0.00729,0.02429 0.00729,0.0583 0.00729,0.08258 0,0.02429 0,0.03887 0.00729,0.06073 0.00729,0.02186 0.021857,0.051 0.029145,0.07286 0.00729,0.02186 0.00729,0.03644 0.014573,0.05101 0.00729,0.01457 0.021862,0.02915 0.029148,0.06072 0.00729,0.03158 0.00729,0.08015 0.00729,0.133581 0,0.05344 0,0.11173 0,0.225886 0,0.114155 0,0.284173 0,0.391043 0,0.106869 0,0.150589 0,0.179733 0,0.02914 0,0.04372 0,0.05829 0,0.01457 0,0.02915 -0.00486,0.05101 -0.00486,0.02186 -0.014571,0.051 -0.01943,0.07529 -0.00486,0.02429 -0.00486,0.04372 -0.00486,0.06072 0,0.017 0,0.03158 0,0.08258 0,0.051 0,0.138441 0,0.206451 0,0.06801 0,0.116579 -0.00729,0.140869 -0.00729,0.02429 -0.021859,0.02429 -0.029146,0.03158 -0.00729,0.0073 -0.00729,0.02187 -0.00729,0.08259 0,0.06072 0,0.167588 0,0.228308 0,0.06072 0,0.0753 -0.00729,0.08258 -0.00729,0.0073 -0.021859,0.0073 -0.03886,0.0073 -0.017002,0 -0.036434,0 -0.053434,0.0073 -0.017001,0.0073 -0.031577,0.02186 -0.04615,0.02915 -0.014573,0.0073 -0.029145,0.0073 -0.043717,0.01457 -0.014572,0.0073 -0.029148,0.02186 -0.043721,0.02915 -0.014572,0.0073 -0.029145,0.0073 -0.058291,0.0073 -0.029146,0 -0.072865,0 -0.1262997,0 -0.053435,0 -0.1165845,0 -0.1627324,0 -0.046148,0 -0.075294,0 -0.09715,-0.0049 -0.021856,-0.0049 -0.036435,-0.01458 -0.051009,-0.01944 -0.014574,-0.0049 -0.029147,-0.0049 -0.046148,-0.01215 -0.017001,-0.0073 -0.036435,-0.02186 -0.053436,-0.02915 -0.017001,-0.0073 -0.031574,-0.0073 -0.046148,-0.02186 -0.014574,-0.01457 -0.029144,-0.04372 -0.043718,-0.05829 -0.014574,-0.01457 -0.029147,-0.01457 -0.043721,-0.03158 -0.014574,-0.017 -0.029146,-0.051 -0.051006,-0.08258 -0.02186,-0.03158 -0.051003,-0.06072 -0.065576,-0.08258 -0.014574,-0.02186 -0.014574,-0.03644 -0.02186,-0.04372 -0.00729,-0.0073 -0.021859,-0.0073 -0.029146,-0.01457 -0.00729,-0.0073 -0.00729,-0.02186 -0.017002,-0.02915 -0.00972,-0.0073 -0.029147,-0.0073 -0.046149,-0.02186 -0.017002,-0.01457 -0.031572,-0.04372 -0.053432,-0.07529 -0.021859,-0.03158 -0.051008,-0.06558 -0.072867,-0.08258 -0.021859,-0.017 -0.036432,-0.017 -0.043718,-0.02429 -0.00729,-0.0073 -0.00729,-0.02186 -0.021859,-0.03644 -0.014572,-0.01457 -0.043721,-0.02915 -0.065579,-0.04372 -0.021858,-0.01457 -0.036434,-0.02915 -0.060723,-0.05101 -0.024288,-0.02186 -0.058289,-0.051 -0.075292,-0.07286 -0.017003,-0.02186 -0.017003,-0.03644 -0.024289,-0.05344 -0.00729,-0.017 -0.021859,-0.03643 -0.029146,-0.05343 -0.00729,-0.017 -0.00729,-0.03158 -0.014572,-0.04615 -0.00729,-0.01457 -0.021862,-0.02915 -0.029148,-0.05101 -0.00729,-0.02186 -0.00729,-0.051 -0.014571,-0.07286 -0.00729,-0.02186 -0.021862,-0.03644 -0.029148,-0.05101 -0.00729,-0.01457 -0.00729,-0.02915 -0.00729,-0.05344 0,-0.02428 0,-0.05829 0,-0.143303 0,-0.08501 0,-0.221024 0,-0.41776 0,-0.196736 0,-0.454192 0,-0.629071 0,-0.174878 0,-0.26717 0,-0.320604 0,-0.05343 0,-0.06801 0,-0.08987 0,-0.02186 0,-0.051 0.00486,-0.08015 0.00486,-0.02915 0.014571,-0.05829 0.01943,-0.08015 0.00486,-0.02186 0.00486,-0.03644 0.00486,-0.06802 0,-0.03158 0,-0.08014 0,-0.119011 0,-0.03886 0,-0.068 0,-0.08986 0,-0.02186 0,-0.03644 0.00729,-0.06558 0.00729,-0.02914 0.02186,-0.07287 0.029146,-0.104438 0.00729,-0.03157 0.00729,-0.051 0.00729,-0.068 0,-0.017 0,-0.03158 0,-0.0753 0,-0.04372 0,-0.11658 0,-0.160298 0,-0.04372 0,-0.0583 0,-0.0753 0,-0.017 0,-0.03643 0.00729,-0.06072 0.00729,-0.02429 0.021858,-0.05343 0.029145,-0.07529 0.00729,-0.02186 0.00729,-0.03644 0.00729,-0.05101 0,-0.01457 0,-0.02915 0,-0.04372 0,-0.01457 0,-0.02915 0.00971,-0.04372 0.00971,-0.01457 0.029148,-0.02915 0.053437,-0.05344 0.024289,-0.02429 0.053433,-0.05829 0.068006,-0.08258 0.014572,-0.02429 0.014572,-0.03887 0.021858,-0.05344 0.00729,-0.01457 0.021862,-0.02915 0.029148,-0.04372 0.00729,-0.01457 0.00729,-0.02915 0.00729,-0.0583 0,-0.02914 0,-0.07287 0,-0.102009 0,-0.02914 0,-0.04372 0.00729,-0.05101 0.00729,-0.0073 0.021859,-0.0073 0.029146,-0.017 0.00729,-0.0097 0.00729,-0.02914 0.00729,-0.04614 0,-0.017 0,-0.03158 0,-0.04615 0,-0.01457 0,-0.02915 0,-0.04372 0,-0.01457 0,-0.02915 0.00243,-0.04615 0.00243,-0.017 0.00729,-0.03643 0.00972,-0.04615 0.00243,-0.0097 0.00243,-0.0097 0.021856,-0.01456 z"
       id="path9"
       inkscape:path-effect="#path-effect9"
       inkscape:original-d="m 4.4841263,15.40711 c 0.038861,-0.0097 0.077723,-0.01943 0.1165844,-0.02915 0.048577,-0.02915 0.097154,-0.05829 0.1457304,-0.08744 0.014573,0 0.029146,0 0.043719,0 0.014573,-0.01943 0.029146,-0.03886 0.043719,-0.05829 0.029146,-0.02915 0.058292,-0.05829 0.087438,-0.08744 0,-0.01457 0,-0.02915 0,-0.04372 0.014573,0 0.029146,0 0.043719,0 0.034004,-0.02915 0.068008,-0.05829 0.1020114,-0.08744 0.029146,-0.02915 0.058292,-0.05829 0.087438,-0.08744 0.043719,-0.01943 0.087438,-0.03886 0.1311573,-0.05829 0.014574,0 0.029146,0 0.043719,0 0.019431,0 0.038861,0 0.058292,0 0.014573,0 0.029146,0 0.043719,0 0.014573,0.02915 0.029146,0.05829 0.043719,0.08744 0.014573,0.01457 0.029146,0.02915 0.043719,0.04372 0.014573,0.01457 0.029146,0.02915 0.043719,0.04372 0.077723,0.06315 0.1554458,0.126299 0.2331688,0.189449 0,0.01457 0,0.02915 0,0.04372 0,0.05829 0,0.116584 0,0.174877 0,0.121442 0,0.242884 0,0.364326 0,0.04858 0,0.09715 0,0.14573 -0.014574,0.02915 -0.029146,0.05829 -0.043719,0.08744 0,0.02915 0,0.05829 0,0.08744 0,0.06315 0,0.1263 0,0.189449 0,0.02915 0,0.05829 0,0.08744 -0.014573,0.04372 -0.029146,0.08744 -0.043719,0.131157 0,0.01457 0,0.02915 0,0.04372 0,0.06315 0,0.1263 0,0.18945 0,0.05829 0,0.116584 0,0.174877 0,0.034 0,0.06801 0,0.102011 0,0.01457 0,0.02915 0,0.04372 0.014573,0.02915 0.029146,0.05829 0.043719,0.08744 0,0.01457 0,0.02915 0,0.04372 0,0.02915 0,0.05829 0,0.08744 0.014574,0.03401 0.029146,0.06801 0.043719,0.102011 0,0.01457 0,0.02915 0,0.04372 0,0.05829 0,0.116584 0,0.174877 0,0.01457 0,0.02915 0,0.04372 0.014573,0.01457 0.029146,0.02915 0.043719,0.04372 0,0.034 0,0.06801 0,0.102012 0,0.01457 0,0.02915 0,0.04372 0.014574,0.02915 0.029146,0.05829 0.043719,0.08744 0,0.01457 0,0.02915 0,0.04372 0.014573,0.01457 0.029146,0.02915 0.043719,0.04372 0,0.04858 0,0.09715 0,0.14573 0,0.05829 0,0.116585 0,0.174877 0,0.170019 0,0.340037 0,0.510056 0,0.04372 0,0.08744 0,0.131158 0,0.01457 0,0.02915 0,0.04372 0,0.01457 0,0.02915 0,0.04372 -0.00972,0.02915 -0.019431,0.05829 -0.029146,0.08744 0,0.01943 0,0.03886 0,0.05829 0,0.01457 0,0.02915 0,0.04372 0,0.08744 0,0.174876 0,0.262315 0,0.04858 0,0.09715 0,0.14573 -0.014573,0 -0.029146,0 -0.043719,0 0,0.01457 0,0.02915 0,0.04372 0,0.106869 0,0.213738 0,0.320607 0,0.01457 0,0.02915 0,0.04372 -0.014574,0 -0.029146,0 -0.043719,0 -0.01943,0 -0.038862,0 -0.058292,0 -0.014573,0.01457 -0.029146,0.02915 -0.043719,0.04372 -0.014574,0 -0.029146,0 -0.043719,0 -0.014573,0.01457 -0.029146,0.02915 -0.043719,0.04372 -0.014573,0 -0.029146,0 -0.043719,0 -0.043719,0 -0.087438,0 -0.1311574,0 -0.06315,0 -0.1262998,0 -0.1894496,0 -0.029146,0 -0.058292,0 -0.087438,0 -0.014573,-0.0097 -0.029146,-0.01943 -0.043719,-0.02915 -0.014573,0 -0.029146,0 -0.043719,0 -0.01943,-0.01457 -0.038861,-0.02915 -0.058292,-0.04372 -0.014573,0 -0.029146,0 -0.043719,0 -0.014573,-0.02915 -0.029146,-0.05829 -0.043719,-0.08744 -0.014573,0 -0.029146,0 -0.043719,0 -0.014574,-0.03401 -0.029146,-0.06801 -0.043719,-0.102012 -0.029146,-0.02915 -0.058292,-0.05829 -0.087438,-0.08744 0,-0.01457 0,-0.02915 0,-0.04372 -0.014573,0 -0.029146,0 -0.043719,0 0,-0.01457 0,-0.02915 0,-0.04372 -0.019431,0 -0.038862,0 -0.058292,0 -0.014573,-0.02915 -0.029146,-0.05829 -0.043719,-0.08744 -0.029146,-0.034 -0.058292,-0.06801 -0.087438,-0.102011 -0.014573,0 -0.029146,0 -0.043719,0 0,-0.01457 0,-0.02915 0,-0.04372 -0.029146,-0.01457 -0.058292,-0.02915 -0.087438,-0.04372 -0.014573,-0.01457 -0.029146,-0.02915 -0.043719,-0.04372 -0.034004,-0.02915 -0.068008,-0.05829 -0.1020113,-0.08744 0,-0.01457 0,-0.02915 0,-0.04372 -0.014573,-0.01943 -0.029146,-0.03886 -0.043719,-0.05829 0,-0.01457 0,-0.02915 0,-0.04372 -0.014573,-0.01457 -0.029146,-0.02915 -0.043719,-0.04372 0,-0.02915 0,-0.05829 0,-0.08744 -0.014573,-0.01457 -0.029146,-0.02915 -0.043719,-0.04372 0,-0.01457 0,-0.02915 0,-0.04372 0,-0.034 0,-0.06801 0,-0.102011 0,-0.136015 0,-0.272031 0,-0.408046 0,-0.257457 0,-0.514913 0,-0.77237 0,-0.0923 0,-0.184592 0,-0.276889 0,-0.01457 0,-0.02915 0,-0.04372 0,-0.02915 0,-0.05829 0,-0.08744 0.00972,-0.02915 0.019431,-0.05829 0.029146,-0.08744 0,-0.01457 0,-0.02915 0,-0.04372 0,-0.04858 0,-0.09715 0,-0.145731 0,-0.02915 0,-0.05829 0,-0.08744 0,-0.01457 0,-0.02915 0,-0.04372 0.014573,-0.04372 0.029146,-0.08744 0.043719,-0.131157 0,-0.01943 0,-0.03886 0,-0.05829 0,-0.01457 0,-0.02915 0,-0.04372 0,-0.07287 0,-0.14573 0,-0.218596 0,-0.01457 0,-0.02915 0,-0.04372 0,-0.01943 0,-0.03886 0,-0.05829 0.014573,-0.02915 0.029146,-0.05829 0.043719,-0.08744 0,-0.01457 0,-0.02915 0,-0.04372 0,-0.01457 0,-0.02915 0,-0.04372 0,-0.01457 0,-0.02915 0,-0.04372 0.019431,-0.01457 0.038861,-0.02915 0.058292,-0.04372 0.029146,-0.03401 0.058292,-0.06801 0.087438,-0.102011 0,-0.01457 0,-0.02915 0,-0.04372 0.014573,-0.01457 0.029146,-0.02915 0.043719,-0.04372 0,-0.01457 0,-0.02915 0,-0.04372 0,-0.04372 0,-0.08744 0,-0.131157 0,-0.01457 0,-0.02915 0,-0.04372 0.014573,0 0.029146,0 0.043719,0 0,-0.01943 0,-0.03886 0,-0.05829 0,-0.01457 0,-0.02915 0,-0.04372 0,-0.01457 0,-0.02915 0,-0.04372 0,-0.01457 0,-0.02915 0,-0.04372 0.00486,-0.01943 0.00972,-0.03886 0.014573,-0.05829 z" />
    <path
       class="cls-2"
       d="m 5.75,14.4 c 0.23,-1.11 1.09,-1.98 2.2,-2.22 2.59,-0.57 7.79,-1.68 8.53,-1.68 1,0 2,2 2,6 0,4 0,8 -2,8 -1.09,0 -2.18,-0.3 -2.95,-0.57 -0.63,-0.22 -1.32,-0.03 -1.75,0.47 -0.76,0.88 -2.03,2.09 -3.3,2.09 -1.63,0 0.05,-1.32 0.74,-2.89 C 9.45,23.07 9.03,22.49 8.45,22.49 H 7.48 c 0,0 -1.7526872,-0.515679 -1.7526872,-4.515679 0,-1.35 -0.034266,-2.20543 0.012687,-3.130914 z"
       id="path3"
       style="fill:none;fill-opacity:1;stroke-width:0.999906;stroke-dasharray:none"
       sodipodi:nodetypes="ccsssccscscscc" />
    <path
       class="cls-2"
       d="m 16.48,10.5 c 0,0 1.5,-1.5 2.5,-0.5 1,1 1.5,4.5 1.5,7.5 0,3 0,6 -1,7 -1,1 -2.19,-0.31 -2.19,-0.31"
       id="path4"
       style="fill:none;fill-opacity:1;stroke-width:0.999906;stroke-dasharray:none" />
    <path
       class="cls-2"
       d="m 20.48,13.5 v 0 c 1.1,0 2,0.9 2,2 v 4 c 0,1.1 -0.9,2 -2,2 v 0"
       id="path5"
       style="fill:none;fill-opacity:1;stroke-width:0.999906;stroke-dasharray:none" />
    <path
       class="cls-2"
       d="m 5.67,14.69 v 0 c -0.77,0 -1.4,0.63 -1.4,1.4 v 2.8 c 0,0.77 0.63,1.4 1.4,1.4 v 0"
       id="path6"
       style="fill:none;fill-opacity:1;stroke-width:0.999906;stroke-dasharray:none" />
    <line
       class="cls-1"
       x1="8.4799995"
       y1="15.58"
       x2="15.48"
       y2="15.58"
       id="line6"
       style="fill:none;fill-opacity:1;stroke-width:0.999906;stroke-dasharray:none" />
    <line
       class="cls-1"
       x1="8.4799995"
       y1="17.58"
       x2="15.48"
       y2="17.58"
       id="line7"
       style="fill:none;fill-opacity:1;stroke-width:0.999906;stroke-dasharray:none" />
    <line
       class="cls-1"
       x1="8.4799995"
       y1="19.58"
       x2="12.48"
       y2="19.58"
       id="line8"
       style="fill:none;fill-opacity:1;stroke-width:0.999906;stroke-dasharray:none" />
  </g>
</svg>
