<?xml version="1.0" encoding="UTF-8" standalone="no"?>
<svg
   id="Propuetas_finales"
   viewBox="0 0 32 32"
   version="1.1"
   sodipodi:docname="capacitacion-acompañamiento.svg"
   inkscape:version="1.3.2 (091e20e, 2023-11-25, custom)"
   xmlns:inkscape="http://www.inkscape.org/namespaces/inkscape"
   xmlns:sodipodi="http://sodipodi.sourceforge.net/DTD/sodipodi-0.dtd"
   xmlns="http://www.w3.org/2000/svg"
   xmlns:svg="http://www.w3.org/2000/svg">
  <sodipodi:namedview
     id="namedview8"
     pagecolor="#505050"
     bordercolor="#eeeeee"
     borderopacity="1"
     inkscape:showpageshadow="0"
     inkscape:pageopacity="0"
     inkscape:pagecheckerboard="0"
     inkscape:deskcolor="#505050"
     inkscape:zoom="18.893009"
     inkscape:cx="22.15105"
     inkscape:cy="18.604765"
     inkscape:window-width="1920"
     inkscape:window-height="1051"
     inkscape:window-x="-9"
     inkscape:window-y="-9"
     inkscape:window-maximized="1"
     inkscape:current-layer="Propuetas_finales" />
  <defs
     id="defs1">
    <inkscape:path-effect
       effect="bspline"
       id="path-effect13"
       is_visible="true"
       lpeversion="1.3"
       weight="33.333333"
       steps="2"
       helper_size="0"
       apply_no_weight="true"
       apply_with_weight="true"
       only_selected="false"
       uniform="false" />
    <style
       id="style1">.cls-1{stroke-width:.69px;}.cls-1,.cls-2,.cls-3,.cls-4,.cls-5{fill:none;stroke:#0f1b2c;}.cls-1,.cls-3,.cls-4,.cls-5{stroke-miterlimit:10;}.cls-2{stroke-linejoin:round;}.cls-2,.cls-3,.cls-4{stroke-linecap:round;}.cls-2,.cls-5{stroke-width:.75px;}.cls-3,.cls-4{stroke-width:.5px;}.cls-4{stroke-dasharray:0 0 1.02 1.02;}</style>
  </defs>
  <path
     style="fill:#1e9190;stroke-width:1;stroke-linecap:round;stroke-dasharray:none;paint-order:fill markers stroke"
     id="path8"
     sodipodi:type="arc"
     sodipodi:cx="5.4643273"
     sodipodi:cy="18.414036"
     sodipodi:rx="2.4701755"
     sodipodi:ry="2.4701755"
     sodipodi:start="5.6186163"
     sodipodi:end="5.6099769"
     sodipodi:open="true"
     sodipodi:arc-type="arc"
     d="M 7.4088067,16.890629 A 2.4701755,2.4701755 0 0 1 6.99193,20.35522 2.4701755,2.4701755 0 0 1 3.5264468,19.945828 a 2.4701755,2.4701755 0 0 1 0.4019068,-3.46636 2.4701755,2.4701755 0 0 1 3.4672193,0.394419" />
  <circle
     class="cls-5"
     cx="5.4929681"
     cy="18.457989"
     r="2.5503066"
     id="circle1"
     style="stroke-width:1.15398;stroke-dasharray:none" />
  <path
     class="cls-5"
     d="m 10.363633,18.754137 c 0,4.077116 -2.2985077,12.3408 -5.1032337,12.3408 -2.804727,0 -4.528607,-8.263684 -4.528607,-12.3408 0,-2.654229 2.161692,-4.815921 4.81592,-4.815921 2.65423,0 4.8159207,2.161692 4.8159207,4.815921 z"
     id="path1"
     style="stroke-width:1.36816;stroke-dasharray:none" />
  <path
     style="fill:#1e9190;fill-opacity:1;stroke:none;stroke-width:1px;stroke-linecap:butt;stroke-linejoin:miter;stroke-opacity:1"
     d="m 34.6248,9.8625544 c 0.02647,0.017644 0.06175,0.1058582 0.132324,0.1499666 0.07057,0.04411 0.176432,0.04411 0.255827,0.04411 0.07939,0 0.132324,0 0.185254,0 0.05293,0 0.105858,0 0.194075,0.02646 0.08822,0.02646 0.211718,0.07939 0.352863,0.105859 0.141146,0.02646 0.299935,0.02646 0.432259,0.07939 0.132324,0.05293 0.238184,0.158789 0.317578,0.211719 0.0794,0.05293 0.132324,0.05293 0.158789,0.07939 0.02647,0.02646 0.02647,0.07939 0.02647,0.141145 0,0.06175 0,0.132325 0,0.194077 0,0.06175 0,0.11468 0.02647,0.141145 0.02647,0.02646 0.07939,0.02646 0.105859,0.05293 0.02646,0.02646 0.02646,0.07939 0.06175,0.105859 0.03529,0.02646 0.10586,0.02646 0.141146,0.05293 0.03529,0.02646 0.03529,0.07939 0.06175,0.132324 0.02647,0.05293 0.0794,0.105859 0.158789,0.11468 0.07939,0.0088 0.185253,-0.02646 0.264648,-0.04411 0.0794,-0.01764 0.132324,-0.01764 0.185254,-0.07057 0.05293,-0.05293 0.105859,-0.158788 0.158789,-0.211718 0.05293,-0.05293 0.105859,-0.05293 0.132324,-0.114681 0.02647,-0.06175 0.02647,-0.185254 0.05293,-0.27347 0.02646,-0.08822 0.07939,-0.141145 0.105859,-0.194075 0.02647,-0.05293 0.02647,-0.105859 0.08822,-0.158789 0.06175,-0.05293 0.185253,-0.105859 0.273469,-0.132324 0.08822,-0.02646 0.141146,-0.02646 0.167611,-0.05293 0.02647,-0.02646 0.02647,-0.07939 0.05293,-0.105859 0.02647,-0.02646 0.07939,-0.02646 0.185253,-0.0794 0.10586,-0.05293 0.264648,-0.1587881 0.405794,-0.2117177 0.141146,-0.05293 0.264648,-0.05293 0.352864,-0.088216 0.08822,-0.035287 0.141146,-0.105859 0.194076,-0.1411455 0.05293,-0.035286 0.105859,-0.035286 0.132324,-0.061751 0.02647,-0.026465 0.02647,-0.079394 0.05293,-0.1058591 0.02647,-0.026465 0.07939,-0.026465 0.158788,-0.026465 0.07939,0 0.185254,0 0.291113,0 0.10586,0 0.211719,0 0.299933,0 0.08821,0 0.158791,0 0.194077,0.026465 0.03529,0.026465 0.03529,0.079394 0.06175,0.1058591 0.02647,0.026465 0.07939,0.026465 0.105858,0.05293 0.02647,0.026465 0.02647,0.079394 0.05293,0.1058591 0.02647,0.026465 0.07939,0.026465 0.105859,0.05293 0.02646,0.026465 0.02646,0.079394 0.02646,0.1323241 0,0.05293 0,0.1058589 0,0.1852539 0,0.07939 0,0.185253 0.02647,0.238183 0.02647,0.05293 0.07939,0.05293 0.105859,0.07939 0.02647,0.02646 0.02647,0.07939 0.02647,0.220539 0,0.141146 0,0.370508 0,0.511654 0,0.141146 0,0.194075 0,0.247005 0,0.05293 0,0.105859 -0.04411,0.185254 -0.04411,0.0794 -0.132323,0.185253 -0.176431,0.264647 -0.04411,0.07939 -0.04411,0.132324 -0.105859,0.158789 -0.06175,0.02646 -0.185254,0.02646 -0.247005,0.06175 -0.06175,0.03529 -0.06175,0.105861 -0.08822,0.141148 -0.02646,0.03529 -0.07939,0.03529 -0.132325,0.06175 -0.05293,0.02646 -0.105858,0.07939 -0.158788,0.105859 -0.05293,0.02646 -0.105859,0.02646 -0.211719,0.07939 -0.105859,0.05293 -0.264648,0.158789 -0.379328,0.211718 -0.114679,0.05293 -0.185254,0.05293 -0.194076,0.05293 -0.0088,0 0.04411,0 0.149968,0.05293 0.105859,0.05293 0.264647,0.158789 0.396972,0.238183 0.132324,0.07939 0.238183,0.132324 0.317577,0.185254 0.07939,0.05293 0.132324,0.105859 0.194074,0.132324 0.06175,0.02646 0.132326,0.02646 0.167612,0.06175 0.03529,0.03529 0.03529,0.105861 0.06175,0.167612 0.02647,0.06175 0.07939,0.114681 0.105859,0.16761 0.02646,0.05293 0.02646,0.10586 0.05293,0.132325 0.02647,0.02646 0.07939,0.02646 0.158789,0.05293 0.07939,0.02646 0.185254,0.07939 0.379329,0.105859 0.194075,0.02646 0.476367,0.02646 0.643977,0.02646 0.167611,0 0.22054,0 0.247005,0.02646 0.02647,0.02646 0.02647,0.07939 0.05293,0.105859 0.02647,0.02646 0.07939,0.02646 0.105859,0.05293 0.02647,0.02646 0.02647,0.07939 0.05293,0.105859 0.02647,0.02646 0.07939,0.02646 0.105859,0.05293 0.02646,0.02646 0.02646,0.07939 0.05293,0.105859 0.02647,0.02646 0.07939,0.02646 0.105859,0.05293 0.02647,0.02646 0.02647,0.07939 0.07939,0.105859 0.05293,0.02646 0.158789,0.02646 0.247005,0.08821 0.08822,0.06175 0.158789,0.185255 0.220541,0.247006 0.06175,0.06175 0.11468,0.06175 0.16761,0.08822 0.05293,0.02646 0.105859,0.07939 0.185253,0.105859 0.07939,0.02646 0.185254,0.02646 0.238184,0.05293 0.05293,0.02646 0.05293,0.07939 0.10586,0.132324 0.05293,0.05293 0.158788,0.105859 0.273469,0.185254 0.114681,0.07939 0.238183,0.185253 0.3264,0.238182 0.08822,0.05293 0.141145,0.05293 0.16761,0.07939 0.02647,0.02646 0.02647,0.0794 0.05293,0.10586 0.02646,0.02646 0.07939,0.02646 0.105859,0.06175 0.02647,0.03528 0.02647,0.105861 0.07939,0.194077 0.05293,0.08822 0.158789,0.194075 0.238183,0.27347 0.0794,0.07939 0.132324,0.132325 0.158789,0.185254 0.02646,0.05293 0.02646,0.105859 0.02646,0.185254 0,0.07939 0,0.185253 0,0.299934 0,0.114681 0,0.238183 0,0.3264 0,0.08822 0,0.141145 -0.01764,0.16761 -0.01765,0.02647 -0.05293,0.02647 -0.09704,0.02647 -0.04411,0 -0.09704,0 -0.123503,-0.02647 -0.02646,-0.02646 -0.02646,-0.07939 -0.05293,-0.105859 -0.02647,-0.02646 -0.07939,-0.02646 -0.194075,-0.02646 -0.114681,0 -0.291113,0 -0.432259,0 -0.141145,0 -0.247005,0 -0.405794,0 -0.158788,0 -0.370507,0 -0.538118,-0.02647 -0.16761,-0.02646 -0.291112,-0.07939 -0.405793,-0.105859 -0.114681,-0.02647 -0.22054,-0.02647 -0.299935,-0.02647 -0.07939,0 -0.132324,0 -0.379329,0.02647 -0.247005,0.02646 -0.688085,0.07939 -0.93509,0.105859 -0.247005,0.02647 -0.299935,0.02647 -0.379329,0.02647 -0.07939,0 -0.185254,0 -0.273469,0 -0.08821,0 -0.15879,0 -0.220541,-0.02647 -0.06175,-0.02646 -0.114681,-0.07939 -0.167611,-0.105859 -0.05293,-0.02647 -0.105859,-0.02647 -0.211718,-0.05293 -0.105859,-0.02647 -0.264648,-0.07939 -0.370507,-0.105859 -0.10586,-0.02646 -0.158789,-0.02646 -0.247005,-0.02646 -0.08822,0 -0.211719,0 -0.520475,0 -0.308756,0 -0.802766,0 -1.270311,0 -0.467545,0 -0.908625,0 -1.20856,0 -0.299935,0 -0.458723,0 -0.591048,0 -0.132324,0 -0.238183,0 -0.317578,0.01764 -0.0794,0.01764 -0.132322,0.05293 -0.194072,0.07057 -0.06175,0.01764 -0.132327,0.01764 -0.194078,0.01764 -0.06175,0 -0.114681,0 -0.27347,0 -0.158789,0 -0.423437,0 -0.582226,0 -0.158789,0 -0.211718,0 -0.273468,0 -0.06175,0 -0.132325,0 -0.167612,-0.01764 -0.03529,-0.01765 -0.03529,-0.05293 -0.03529,-0.09703 0,-0.04411 0,-0.09704 0,-0.291114 0,-0.194076 0,-0.529297 0,-0.917447 0,-0.388151 0,-0.829231 0,-1.076236 0,-0.247006 0,-0.299935 0.02647,-0.3264 0.02646,-0.02646 0.07939,-0.02646 0.105859,-0.05293 0.02647,-0.02646 0.02647,-0.07939 0.02647,-0.132324 0,-0.05293 0,-0.105859 0,-0.379328 0,-0.27347 0,-0.76748 0,-1.102701 0,-0.335221 0,-0.511653 0,-0.626334 0,-0.114681 0,-0.167611 -0.02647,-0.194075 -0.02646,-0.02646 -0.07939,-0.02646 -0.10586,-0.05293 -0.02646,-0.02646 -0.02646,-0.07939 -0.02646,-0.211719 0,-0.132324 0,-0.344042 -0.02647,-0.511653 -0.02647,-0.16761 -0.07939,-0.291113 -0.105859,-0.379329 -0.02646,-0.08822 -0.02646,-0.141145 -0.02646,-0.247004 0,-0.10586 0,-0.264649 0,-0.370508 0,-0.10586 0,-0.158789 0,-0.211719 0,-0.05293 0,-0.105859 0.05293,-0.1323237 0.05293,-0.026465 0.158789,-0.026465 0.22054,-0.052929 0.06175,-0.026465 0.07939,-0.079396 0.10586,-0.061752 z"
     id="path13"
     inkscape:path-effect="#path-effect13"
     inkscape:original-d="m 34.615978,9.7919816 c 0.03529,0.088216 0.07057,0.1764321 0.10586,0.2646484 0.105859,0 0.211718,0 0.317577,0 0.05293,0 0.10586,0 0.158789,0 0.05293,0 0.105859,0 0.158789,0 0.123503,0.05293 0.247005,0.105859 0.370508,0.158789 0.158788,0 0.317577,0 0.476366,0 0.105859,0.105859 0.211719,0.211718 0.317578,0.317577 0.05293,0 0.105859,0 0.158789,0 0,0.05293 0,0.10586 0,0.158789 0,0.07057 0,0.141146 0,0.211719 0,0.05293 0,0.105859 0,0.158789 0.05293,0 0.105859,0 0.158789,0 0,0.05293 0,0.105859 0,0.158789 0.07057,0 0.141145,0 0.211718,0 0,0.05293 0,0.105859 0,0.158789 0.05293,0.05293 0.10586,0.105859 0.158789,0.158788 0.105859,-0.03529 0.211719,-0.07057 0.317578,-0.105859 0.05293,0 0.105859,0 0.158789,0 0.05293,-0.105859 0.105859,-0.211718 0.158789,-0.317578 0.05293,0 0.105859,0 0.158789,0 0,-0.123502 0,-0.247005 0,-0.370507 0.05293,-0.05293 0.105859,-0.105859 0.158789,-0.158789 0,-0.05293 0,-0.105859 0,-0.158789 0.123502,-0.05293 0.247004,-0.105859 0.370507,-0.158789 0.05293,0 0.105859,0 0.158789,0 0,-0.05293 0,-0.105859 0,-0.158789 0.05293,0 0.105859,0 0.158789,0 0.158789,-0.105859 0.317577,-0.2117181 0.476366,-0.3175774 0.123503,0 0.247005,0 0.370508,0 0.05293,-0.070573 0.105859,-0.1411457 0.158789,-0.2117185 0.05293,0 0.105859,0 0.158789,0 0,-0.05293 0,-0.1058593 0,-0.1587889 0.05293,0 0.105859,0 0.158788,0 0.10586,0 0.211719,0 0.317578,0 0.10586,0 0.211719,0 0.317578,0 0.07057,0 0.141146,0 0.211719,0 0,0.05293 0,0.1058593 0,0.1587889 0.05293,0 0.105859,0 0.158788,0 0,0.05293 0,0.1058593 0,0.1587889 0.05293,0 0.10586,0 0.158789,0 0,0.05293 0,0.1058593 0,0.1587889 0,0.05293 0,0.1058591 0,0.1587891 0,0.105859 0,0.211718 0,0.317578 0.05293,0 0.10586,0 0.158789,0 0,0.05293 0,0.105859 0,0.158788 0,0.229362 0,0.458724 0,0.688086 0,0.05293 0,0.105859 0,0.158789 0,0.05293 0,0.105859 0,0.158788 -0.08822,0.10586 -0.176432,0.211719 -0.264648,0.317578 0,0.05293 0,0.105859 0,0.158789 -0.123502,0 -0.247005,0 -0.370507,0 0,0.07057 0,0.141146 0,0.211719 -0.05293,0 -0.10586,0 -0.158789,0 -0.05293,0.05293 -0.105859,0.105859 -0.158789,0.158789 -0.05293,0 -0.105859,0 -0.158789,0 -0.158789,0.105859 -0.317578,0.211718 -0.476367,0.317577 -0.07057,0 -0.141145,0 -0.211718,0 0.05293,0 0.105859,0 0.158789,0 0.158789,0.10586 0.317577,0.211719 0.476366,0.317578 0.10586,0.05293 0.211719,0.105859 0.317578,0.158789 0.05293,0.05293 0.105859,0.105859 0.158789,0.158789 0.07057,0 0.141146,0 0.211719,0 0,0.07057 0,0.141146 0,0.211718 0.05293,0.05293 0.105859,0.10586 0.158788,0.158789 0,0.05293 0,0.10586 0,0.158789 0.05293,0 0.10586,0 0.158789,0 0.10586,0.05293 0.211719,0.105859 0.317578,0.158789 0.282291,0 0.564583,0 0.846874,0 0.05293,0 0.105859,0 0.158789,0 0,0.05293 0,0.105859 0,0.158789 0.05293,0 0.105859,0 0.158789,0 0,0.05293 0,0.105859 0,0.158789 0.05293,0 0.105859,0 0.158789,0 0,0.05293 0,0.105859 0,0.158789 0.05293,0 0.105859,0 0.158789,0 0,0.05293 0,0.105859 0,0.158789 0.105859,0 0.211718,0 0.317578,0 0.07057,0.123502 0.141145,0.247005 0.211718,0.370507 0.05293,0 0.105859,0 0.158789,0 0.05293,0.05293 0.105859,0.105859 0.158789,0.158789 0.105859,0 0.211718,0 0.317578,0 0,0.05293 0,0.105859 0,0.158789 0.105859,0.05293 0.211718,0.105859 0.317577,0.158789 0.123503,0.105859 0.247005,0.211718 0.370508,0.317577 0.05293,0 0.105859,0 0.158789,0 0,0.05293 0,0.10586 0,0.158789 0.05293,0 0.105859,0 0.158789,0 0,0.07057 0,0.141146 0,0.211719 0.105859,0.105859 0.211718,0.211718 0.317577,0.317578 0.05293,0.05293 0.10586,0.105859 0.158789,0.158789 0,0.05293 0,0.105859 0,0.158788 0,0.10586 0,0.211719 0,0.317578 0,0.123503 0,0.247005 0,0.370508 0,0.05293 0,0.105859 0,0.158789 -0.03529,0 -0.07057,0 -0.105859,0 -0.05293,0 -0.105859,0 -0.158789,0 0,-0.05293 0,-0.10586 0,-0.158789 -0.05293,0 -0.105859,0 -0.158789,0 -0.176432,0 -0.352864,0 -0.529296,0 -0.105859,0 -0.211719,0 -0.317578,0 -0.211718,0 -0.423437,0 -0.635155,0 -0.123503,-0.05293 -0.247005,-0.10586 -0.370508,-0.158789 -0.105859,0 -0.211718,0 -0.317578,0 -0.05293,0 -0.105859,0 -0.158788,0 -0.441081,0.05293 -0.882161,0.105859 -1.323241,0.158789 -0.05293,0 -0.10586,0 -0.158789,0 -0.105859,0 -0.211719,0 -0.317578,0 -0.07057,0 -0.141146,0 -0.211718,0 -0.05293,-0.05293 -0.10586,-0.10586 -0.158789,-0.158789 -0.05293,0 -0.10586,0 -0.158789,0 -0.158789,-0.05293 -0.317578,-0.105859 -0.476367,-0.158789 -0.05293,0 -0.105859,0 -0.158789,0 -0.123502,0 -0.247005,0 -0.370507,0 -0.49401,0 -0.98802,0 -1.48203,0 -0.44108,0 -0.88216,0 -1.323241,0 -0.158789,0 -0.317577,0 -0.476366,0 -0.10586,0 -0.211719,0 -0.317578,0 -0.05293,0.03529 -0.105859,0.07057 -0.158789,0.105859 -0.07057,0 -0.141146,0 -0.211718,0 -0.05293,0 -0.10586,0 -0.158789,0 -0.264649,0 -0.529297,0 -0.793945,0 -0.05293,0 -0.105859,0 -0.158789,0 -0.07057,0 -0.141145,0 -0.211718,0 0,-0.03529 0,-0.07057 0,-0.105859 0,-0.05293 0,-0.105859 0,-0.158789 0,-0.335221 0,-0.670442 0,-1.005663 0,-0.44108 0,-0.88216 0,-1.323241 0,-0.05293 0,-0.105859 0,-0.158789 0.05293,0 0.105859,0 0.158789,0 0,-0.05293 0,-0.105859 0,-0.158789 0,-0.05293 0,-0.105859 0,-0.158788 0,-0.49401 0,-0.98802 0,-1.48203 0,-0.176432 0,-0.352864 0,-0.529296 0,-0.05293 0,-0.10586 0,-0.158789 -0.05293,0 -0.10586,0 -0.158789,0 0,-0.05293 0,-0.10586 0,-0.158789 0,-0.211719 0,-0.423437 0,-0.635156 -0.05293,-0.123502 -0.10586,-0.247005 -0.158789,-0.370507 0,-0.05293 0,-0.105859 0,-0.158789 0,-0.158789 0,-0.317578 0,-0.476367 0,-0.05293 0,-0.105859 0,-0.158789 0,-0.05293 0,-0.105859 0,-0.1587885 0.105859,0 0.211718,0 0.317578,0 0.01764,-0.05293 0.03529,-0.1058592 0.05293,-0.1587889 z"
     transform="translate(-21.330641,-1.3761706)" />
  <rect
     class="cls-5"
     x="12.520736"
     y="3.1561494"
     width="18.786873"
     height="12.693832"
     rx="2.3310492"
     ry="2.3310492"
     id="rect1"
     style="stroke-width:1.38478;stroke-dasharray:none" />
  <circle
     class="cls-1"
     cx="5.4352684"
     cy="7.6457701"
     r="4.7428775"
     id="circle2"
     style="stroke-width:1.38478;stroke-dasharray:none" />
  <circle
     class="cls-5"
     cx="26.160837"
     cy="24.100973"
     r="4.7428775"
     id="circle3"
     style="stroke-width:1.38478;stroke-dasharray:none" />
  <path
     class="cls-2"
     d="m 13.097728,8.3490809 c 0,0 0.576992,-0.5769924 2.307969,1.1539848 1.153985,1.1539843 2.30797,-3.4619544 4.61594,-1.1539848 1.823296,1.8232961 -1.153985,2.3079691 -1.153985,3.4619541 0,1.153985 5.585286,1.107826 5.585286,4.015867"
     id="path3"
     style="stroke-width:0.864622;stroke-dasharray:none" />
  <path
     class="cls-3"
     d="m 13.097728,6.0411113 c 0,0 0.207717,-0.034619 0.565452,-0.069239"
     id="path4"
     style="stroke-width:0.576415;stroke-dasharray:none" />
  <path
     class="cls-4"
     d="m 14.840245,5.8795534 c 2.28489,-0.1038586 6.277677,0.1038587 8.643346,2.4695275 2.227191,2.2271911 3.02344,4.4659211 3.311936,5.7699241"
     id="path5"
     style="stroke-width:0.576415;stroke-dasharray:0, 0, 1.17589, 1.17589;stroke-dashoffset:0" />
  <path
     class="cls-3"
     d="m 26.899386,14.707537 c 0.04616,0.357735 0.04616,0.565453 0.04616,0.565453"
     id="path6"
     style="stroke-width:0.576415;stroke-dasharray:none" />
  <line
     class="cls-3"
     x1="24.637575"
     y1="4.8871264"
     x2="29.253513"
     y2="4.8871264"
     id="line6"
     style="stroke-width:0.576415;stroke-dasharray:none" />
  <line
     class="cls-3"
     x1="24.637575"
     y1="6.0411115"
     x2="29.253513"
     y2="6.0411115"
     id="line7"
     style="stroke-width:0.576415;stroke-dasharray:none" />
  <line
     class="cls-3"
     x1="24.637575"
     y1="7.195096"
     x2="26.945545"
     y2="7.195096"
     id="line8"
     style="stroke-width:0.576415;stroke-dasharray:none" />
</svg>
