<?xml version="1.0" encoding="UTF-8" standalone="no"?>
<svg
   id="Propuetas_finales"
   viewBox="0 0 32 32"
   version="1.1"
   sodipodi:docname="cartografia-colaborativa.svg"
   inkscape:version="1.3.2 (091e20e, 2023-11-25, custom)"
   xmlns:inkscape="http://www.inkscape.org/namespaces/inkscape"
   xmlns:sodipodi="http://sodipodi.sourceforge.net/DTD/sodipodi-0.dtd"
   xmlns="http://www.w3.org/2000/svg"
   xmlns:svg="http://www.w3.org/2000/svg">
  <sodipodi:namedview
     id="namedview6"
     pagecolor="#505050"
     bordercolor="#eeeeee"
     borderopacity="1"
     inkscape:showpageshadow="0"
     inkscape:pageopacity="0"
     inkscape:pagecheckerboard="0"
     inkscape:deskcolor="#505050"
     inkscape:zoom="26.71875"
     inkscape:cx="16"
     inkscape:cy="16"
     inkscape:window-width="1920"
     inkscape:window-height="1051"
     inkscape:window-x="-9"
     inkscape:window-y="-9"
     inkscape:window-maximized="1"
     inkscape:current-layer="Propuetas_finales" />
  <defs
     id="defs1">
    <style
       id="style1">.cls-1{fill:#091a2c;stroke-width:0px;}</style>
  </defs>
  <path
     style="fill:#1e9190;fill-opacity:1;stroke:none;stroke-width:0.4;stroke-linecap:round;stroke-dasharray:none;stroke-opacity:1;paint-order:fill markers stroke"
     id="path7-7"
     sodipodi:type="arc"
     sodipodi:cx="8.5251465"
     sodipodi:cy="12.277193"
     sodipodi:rx="6.063158"
     sodipodi:ry="6.063158"
     sodipodi:start="5.6186163"
     sodipodi:end="5.6099769"
     sodipodi:open="true"
     sodipodi:arc-type="arc"
     d="M 13.297959,8.5379227 A 6.063158,6.063158 0 0 1 12.274717,17.041919 6.063158,6.063158 0 0 1 3.7685306,16.037046 6.063158,6.063158 0 0 1 4.7550292,7.528709 6.063158,6.063158 0 0 1 13.265477,8.4968286" />
  <path
     style="fill:#1e9190;fill-opacity:1;stroke:none;stroke-width:0.4;stroke-linecap:round;stroke-dasharray:none;stroke-opacity:1;paint-order:fill markers stroke"
     id="path7-0"
     sodipodi:type="arc"
     sodipodi:cx="24.596491"
     sodipodi:cy="12.233918"
     sodipodi:rx="6.063158"
     sodipodi:ry="6.063158"
     sodipodi:start="5.6186163"
     sodipodi:end="5.6099769"
     sodipodi:open="true"
     sodipodi:arc-type="arc"
     d="m 29.369304,8.4946479 a 6.063158,6.063158 0 0 1 -1.023243,8.5039961 6.063158,6.063158 0 0 1 -8.506186,-1.004873 6.063158,6.063158 0 0 1 0.986499,-8.5083369 6.063158,6.063158 0 0 1 8.510447,0.9681196" />
  <path
     style="fill:#f9f9f9;fill-opacity:1;stroke:none;stroke-width:0.4;stroke-linecap:round;stroke-dasharray:none;stroke-opacity:1;paint-order:fill markers stroke"
     id="path7"
     sodipodi:type="arc"
     sodipodi:cx="16.617542"
     sodipodi:cy="9.8432751"
     sodipodi:rx="6.063158"
     sodipodi:ry="6.063158"
     sodipodi:start="5.6186163"
     sodipodi:end="5.6099769"
     sodipodi:open="true"
     sodipodi:arc-type="arc"
     d="m 21.390355,6.1040047 a 6.063158,6.063158 0 0 1 -1.023243,8.5039963 6.063158,6.063158 0 0 1 -8.506186,-1.004873 6.063158,6.063158 0 0 1 0.986499,-8.508337 6.063158,6.063158 0 0 1 8.510447,0.9681196" />
  <g
     id="g6"
     transform="translate(-2.0499999,-1.5502868)">
    <path
       class="cls-1"
       d="m 18.623477,18.089355 c -0.99785,0 -1.961291,-0.217921 -2.844445,-0.653764 -2.282437,-1.078136 -3.750537,-3.417921 -3.750537,-5.941218 0,-1.273119 0.355555,-2.5003587 1.043727,-3.5555558 1.204301,-1.9039426 3.280287,-3.0394265 5.551255,-3.0394265 2.270967,0 4.346953,1.1354839 5.551254,3.050896 0.676703,1.0551972 1.043728,2.2824373 1.043728,3.5440863 0,2.523297 -1.468101,4.863082 -3.750538,5.952688 -0.883154,0.424373 -1.835125,0.642294 -2.844444,0.642294 z m 0,-12.6164876 c -2.064516,0 -3.968459,1.0437276 -5.069534,2.7756272 -0.619355,0.9634409 -0.951972,2.0874554 -0.951972,3.2458784 0,2.305376 1.341936,4.438709 3.429391,5.425089 1.617204,0.779929 3.578495,0.779929 5.184229,0 2.087456,-0.98638 3.429391,-3.119713 3.429391,-5.436559 0,-1.158423 -0.332616,-2.2709675 -0.951971,-3.2344084 C 22.591935,6.5051254 20.687993,5.4613978 18.623477,5.4613978 Z"
       id="path1"
       style="stroke:#091a2c;stroke-width:0.458781;stroke-dasharray:none;stroke-opacity:1" />
    <path
       class="cls-1"
       d="m 26.652151,20.394731 c -2.270968,0 -4.346954,-1.135484 -5.551255,-3.050896 l -0.172043,-0.275269 0.286738,-0.137634 c 2.075986,-0.98638 3.429391,-3.119713 3.429391,-5.42509 0,-1.158423 -0.332616,-2.2709674 -0.951971,-3.2344083 L 23.520968,7.9961649 23.807706,7.8585305 C 24.69086,7.4226882 25.654301,7.204767 26.652151,7.204767 c 3.635842,0 6.594982,2.95914 6.594982,6.594982 0,3.635842 -2.95914,6.594982 -6.594982,6.594982 z m -4.886022,-3.096774 c 1.124014,1.582796 2.924731,2.523297 4.886022,2.523297 3.314695,0 6.021505,-2.70681 6.021505,-6.021505 0,-3.314695 -2.70681,-6.0215053 -6.021505,-6.0215053 -0.802868,0 -1.582796,0.149104 -2.305377,0.4587814 0.573477,0.9863799 0.871685,2.1103939 0.871685,3.2688169 0,2.420072 -1.341936,4.656631 -3.45233,5.803585 z"
       id="path2"
       style="stroke:#091a2c;stroke-width:0.458781;stroke-dasharray:none;stroke-opacity:1" />
    <path
       class="cls-1"
       d="m 10.594803,20.394731 c -3.6358424,0 -6.5949822,-2.95914 -6.5949822,-6.594982 0,-3.635842 2.9591398,-6.594982 6.5949822,-6.594982 0.997849,0 1.96129,0.2179212 2.844444,0.6537635 l 0.286739,0.1376344 -0.172043,0.2752688 c -0.619355,0.9634409 -0.951972,2.0874553 -0.951972,3.2344083 0,2.305377 1.341936,4.43871 3.429391,5.42509 l 0.286738,0.137634 -0.172043,0.275269 c -1.204301,1.903943 -3.280286,3.050896 -5.551254,3.050896 z m 0,-12.6279568 c -3.326165,0 -6.0215055,2.6953408 -6.0215055,6.0215058 0,3.326164 2.6953405,6.021505 6.0215055,6.021505 1.96129,0 3.773477,-0.940502 4.897491,-2.523298 -2.110394,-1.135483 -3.463799,-3.383512 -3.463799,-5.803584 0,-1.158423 0.298208,-2.2824371 0.871684,-3.268817 C 12.177599,7.9044086 11.39767,7.7553047 10.594803,7.7553047 Z"
       id="path3"
       style="stroke:#091a2c;stroke-width:0.458781;stroke-dasharray:none;stroke-opacity:1" />
    <rect
       class="cls-1"
       x="18.049999"
       y="18.961039"
       width="1.1469535"
       height="9.1756277"
       rx="0.5390681"
       ry="0.5390681"
       id="rect3" />
    <rect
       class="cls-1"
       x="26.078674"
       y="22.401899"
       width="1.1469535"
       height="8.0286741"
       rx="0.50465947"
       ry="0.50465947"
       id="rect4" />
    <rect
       class="cls-1"
       x="8.8743725"
       y="22.401899"
       width="1.1469535"
       height="8.0286741"
       rx="0.50465947"
       ry="0.50465947"
       id="rect5" />
    <path
       class="cls-1"
       d="m 2.566129,28.996882 c -0.1605734,0 -0.2867383,-0.126165 -0.2867383,-0.286739 v -5.734767 c 0,-1.318996 1.2043011,-1.422222 2.2939068,-1.433691 v -2.007169 c 0,-0.126165 0.080287,-0.24086 0.2064516,-0.275269 0.1146953,-0.03441 0.2523298,0 0.321147,0.114696 0,0 0.7340501,1.089605 1.9727598,1.617204 0.149104,0.05735 0.2179212,0.229391 0.149104,0.378495 -0.068817,0.149104 -0.2293907,0.217921 -0.3784947,0.149104 -0.7455197,-0.321147 -1.3189964,-0.802868 -1.697491,-1.192832 v 1.502509 c 0,0.160573 -0.1261649,0.286738 -0.2867384,0.286738 -1.3648745,0 -2.0071684,0.08029 -2.0071684,0.860215 v 5.734767 c 0,0.160574 -0.1261649,0.286739 -0.2867384,0.286739 z"
       id="path5"
       style="stroke:#091a2c;stroke-width:0.458781;stroke-dasharray:none;stroke-opacity:1" />
    <path
       class="cls-1"
       d="m 33.533871,28.996882 c -0.160574,0 -0.286738,-0.126165 -0.286738,-0.286739 v -5.734767 c 0,-0.779928 -0.642294,-0.860215 -2.007169,-0.860215 -0.160573,0 -0.286738,-0.126165 -0.286738,-0.286738 v -1.502509 c -0.378495,0.389964 -0.951972,0.871685 -1.697491,1.192832 -0.137635,0.05735 -0.309678,0 -0.378495,-0.149104 -0.05735,-0.149104 0,-0.309678 0.149104,-0.378495 1.250179,-0.539068 1.97276,-1.605735 1.97276,-1.617204 0.06882,-0.103226 0.206452,-0.149104 0.321147,-0.114696 0.126165,0.03441 0.206452,0.149104 0.206452,0.275269 v 2.007169 c 1.089605,0 2.293906,0.114695 2.293906,1.433691 v 5.734767 c 0,0.160574 -0.126165,0.286739 -0.286738,0.286739 z"
       id="path6"
       style="fill:#091a2c;fill-opacity:1;stroke:#091a2c;stroke-width:0.458781;stroke-dasharray:none;stroke-opacity:1" />
  </g>
</svg>
