<?xml version="1.0" encoding="UTF-8" standalone="no"?>
<svg
   id="Propuetas_finales"
   viewBox="0 0 32 32"
   version="1.1"
   sodipodi:docname="eventos.svg"
   inkscape:version="1.3.2 (091e20e, 2023-11-25, custom)"
   xmlns:inkscape="http://www.inkscape.org/namespaces/inkscape"
   xmlns:sodipodi="http://sodipodi.sourceforge.net/DTD/sodipodi-0.dtd"
   xmlns="http://www.w3.org/2000/svg"
   xmlns:svg="http://www.w3.org/2000/svg">
  <sodipodi:namedview
     id="namedview10"
     pagecolor="#505050"
     bordercolor="#eeeeee"
     borderopacity="1"
     inkscape:showpageshadow="0"
     inkscape:pageopacity="0"
     inkscape:pagecheckerboard="0"
     inkscape:deskcolor="#505050"
     inkscape:zoom="26.71875"
     inkscape:cx="16"
     inkscape:cy="16"
     inkscape:window-width="1920"
     inkscape:window-height="1051"
     inkscape:window-x="-9"
     inkscape:window-y="-9"
     inkscape:window-maximized="1"
     inkscape:current-layer="g10" />
  <defs
     id="defs1">
    <style
       id="style1">.cls-1{fill:#091a2c;stroke-width:0px;}</style>
  </defs>
  <g
     id="g10"
     transform="matrix(1.3657419,0,0,1.3657419,-5.8423706,-5.8613743)"
     style="stroke-width:0.21966083;stroke-dasharray:none;stroke:#091a2c;stroke-opacity:1">
    <rect
       style="fill:#1e9190;stroke:none;stroke-width:0.146441;stroke-linecap:round;stroke-dasharray:none;stroke-opacity:1;paint-order:fill markers stroke"
       id="rect11"
       width="13.70204"
       height="1.9456898"
       x="5.026021"
       y="15.037951"
       ry="0.93173873"
       transform="rotate(-6.5370871)" />
    <path
       style="fill:#1e9190;stroke:#091a2c;stroke-width:0.146441;stroke-linecap:round;stroke-dasharray:none;stroke-opacity:1;paint-order:fill markers stroke"
       id="path11"
       sodipodi:type="arc"
       sodipodi:cx="21.391649"
       sodipodi:cy="7.4705877"
       sodipodi:rx="1.2207896"
       sodipodi:ry="1.2789223"
       sodipodi:start="5.6186163"
       sodipodi:end="5.6099769"
       sodipodi:open="true"
       sodipodi:arc-type="arc"
       d="M 22.352634,6.6818509 A 1.2207896,1.2789223 0 0 1 22.146608,8.4756273 1.2207896,1.2789223 0 0 1 20.433926,8.2636661 1.2207896,1.2789223 0 0 1 20.632553,6.468974 1.2207896,1.2789223 0 0 1 22.346093,6.6731827" />
    <path
       class="cls-1"
       d="m 7.75,16.88 c -0.45,0 -0.85,-0.34 -0.9,-0.8 L 6.71,14.9 C 6.68,14.66 6.75,14.42 6.9,14.23 7.05,14.04 7.26,13.92 7.5,13.89 l 11.9,-1.38 c 0.49,-0.05 0.95,0.3 1,0.8 l 0.14,1.18 c 0.03,0.24 -0.04,0.48 -0.19,0.67 -0.15,0.19 -0.36,0.31 -0.6,0.34 v 0 l -11.9,1.38 c 0,0 -0.07,0 -0.1,0 z m 11.77,-3.77 c 0,0 -0.02,0 -0.04,0 l -11.9,1.38 c -0.08,0 -0.15,0.05 -0.2,0.11 -0.05,0.06 -0.07,0.14 -0.06,0.22 L 7.46,16 c 0.02,0.17 0.18,0.3 0.34,0.27 l 11.9,-1.38 c 0.08,0 0.15,-0.05 0.2,-0.11 0.05,-0.06 0.07,-0.14 0.06,-0.22 l -0.14,-1.18 c -0.02,-0.16 -0.15,-0.27 -0.3,-0.27 z"
       id="path1"
       style="stroke-width:0.21966083;stroke-dasharray:none;stroke:#091a2c;stroke-opacity:1" />
    <path
       class="cls-1"
       d="m 12.3,24.47 c -0.46,0 -0.91,-0.19 -1.23,-0.55 -1.24,-1.35 -4.13,-4.83 -4.22,-7.87 0,-0.17 0.13,-0.3 0.29,-0.31 v 0 c 0.16,0 0.3,0.13 0.3,0.29 0.08,2.84 2.87,6.18 4.06,7.48 0.26,0.28 0.63,0.4 1,0.33 L 22.7,21.8 c 0.09,-0.02 0.11,-0.09 0.12,-0.11 0,-0.03 0.01,-0.1 -0.06,-0.15 -1.41,-1.06 -3.73,-3.3 -3.35,-6.39 0.02,-0.16 0.17,-0.28 0.33,-0.26 0.17,0.02 0.28,0.17 0.26,0.33 -0.34,2.78 1.81,4.85 3.12,5.83 0.24,0.18 0.35,0.47 0.28,0.76 -0.07,0.29 -0.29,0.51 -0.59,0.57 l -10.2,2.04 c -0.11,0.02 -0.22,0.03 -0.33,0.03 z"
       id="path2"
       style="stroke-width:0.21966083;stroke-dasharray:none;stroke:#091a2c;stroke-opacity:1" />
    <path
       class="cls-1"
       d="m 18.39,25.79 h -9.3 c -0.63,0 -1.15,-0.51 -1.15,-1.15 v -5.15 c 0,-0.17 0.13,-0.3 0.3,-0.3 0.17,0 0.3,0.13 0.3,0.3 v 5.15 c 0,0.3 0.25,0.55 0.55,0.55 h 9.3 c 0.19,0 0.34,-0.15 0.34,-0.34 v -1.76 c 0,-0.17 0.13,-0.3 0.3,-0.3 0.17,0 0.3,0.13 0.3,0.3 v 1.76 c 0,0.52 -0.42,0.94 -0.94,0.94 z"
       id="path3"
       style="stroke-width:0.21966083;stroke-dasharray:none;stroke:#091a2c;stroke-opacity:1" />
    <path
       class="cls-1"
       d="m 16.63,26.99 h -8.9 c -0.33,0 -0.65,-0.15 -0.86,-0.38 -0.16,-0.19 -0.23,-0.42 -0.2,-0.65 0,-1.48 0.01,-3.53 0.03,-5.47 0.02,-1.77 0.03,-3.45 0.03,-4.59 0,-0.17 0.13,-0.3 0.3,-0.3 0.17,0 0.3,0.13 0.3,0.3 0,1.14 -0.01,2.83 -0.03,4.6 -0.02,1.94 -0.03,3.99 -0.03,5.51 0,0.07 -0.02,0.13 0.06,0.21 0.09,0.1 0.26,0.18 0.4,0.18 h 8.6 v -0.86 c 0,-0.16 0.14,-0.3 0.31,-0.3 v 0 c 0.17,0 0.3,0.14 0.3,0.3 v 1.15 c -0.01,0.16 -0.15,0.3 -0.31,0.3 z"
       id="path4"
       style="stroke-width:0.21966083;stroke-dasharray:none;stroke:#091a2c;stroke-opacity:1" />
    <path
       class="cls-1"
       d="m 14.5,22.006252 c -1,0 -1.95,-0.17 -2.7,-0.5 -0.94,-0.41 -1.48,-1.02 -1.51,-1.72 -0.04,-0.7 0.43,-1.36 1.33,-1.87 0.82,-0.46 1.91,-0.75 3.09,-0.81 1.17,-0.06 2.29,0.11 3.16,0.49 0.94,0.41 1.48,1.02 1.51,1.72 0.04,0.7 -0.43,1.36 -1.33,1.87 -0.82,0.46 -1.91,0.75 -3.09,0.81 -0.15,0 -0.31,0.01 -0.46,0.01 z m 0.67,-4.22 c -0.14,0 -0.28,0 -0.43,0.01 -1.07,0.06 -2.05,0.31 -2.78,0.72 -0.64,0.36 -0.99,0.81 -0.97,1.22 0.02,0.42 0.42,0.82 1.1,1.12 0.76,0.33 1.78,0.48 2.84,0.43 1.07,-0.06 2.05,-0.31 2.78,-0.72 0.64,-0.36 0.99,-0.81 0.97,-1.22 v 0 c -0.02,-0.42 -0.42,-0.82 -1.1,-1.12 -0.66,-0.29 -1.51,-0.44 -2.41,-0.44 z"
       id="path5"
       style="stroke:#091a2c;stroke-width:0.219661;stroke-dasharray:none;stroke-opacity:1" />
    <path
       class="cls-1"
       d="m 15.494808,20.515484 c -0.07,0 -0.14,-0.02 -0.2,-0.05 l -4.8,-2.4 c -0.22,-0.11 -0.31,-0.38 -0.2,-0.6 0.11,-0.22 0.38,-0.31 0.6,-0.2 l 4.15,2.07 v -0.47 c 0,-0.25 0.2,-0.45 0.45,-0.45 0.25,0 0.45,0.2 0.45,0.45 v 1.2 c 0,0.16 -0.08,0.3 -0.21,0.38 -0.07,0.04 -0.15,0.07 -0.24,0.07 z"
       id="path6"
       style="stroke:#091a2c;stroke-width:0.219661;stroke-dasharray:none;stroke-opacity:1" />
    <path
       class="cls-1"
       d="m 15.44,8.99 c 0,0 -0.09,-0.01 -0.13,-0.03 l -2.4,-1.2 C 12.82,7.72 12.76,7.63 12.75,7.54 12.74,7.45 12.77,7.35 12.83,7.28 l 1.2,-1.2 C 14.1,6.01 14.19,5.98 14.29,6 c 0.09,0.02 0.18,0.08 0.22,0.16 l 1.2,2.4 C 15.77,8.68 15.75,8.81 15.65,8.91 15.59,8.97 15.52,9 15.44,9 Z M 13.54,7.41 14.76,8.02 14.15,6.8 Z"
       id="path7"
       style="stroke-width:0.14644055;stroke-dasharray:none;stroke:#091a2c;stroke-opacity:1" />
    <path
       class="cls-1"
       d="m 16.34,8.27 c 0,0 -0.04,0 -0.05,0 C 16.16,8.25 16.07,8.15 16.05,8.02 L 15.66,5.37 c -0.01,-0.1 0.02,-0.19 0.09,-0.26 0.07,-0.07 0.17,-0.1 0.26,-0.08 l 1.67,0.29 c 0.1,0.02 0.18,0.08 0.22,0.16 0.04,0.09 0.04,0.19 0,0.27 l -1.28,2.36 c -0.05,0.1 -0.15,0.16 -0.26,0.16 z m -0.04,-2.59 0.2,1.35 0.65,-1.2 z"
       id="path8"
       style="stroke-width:0.14644055;stroke-dasharray:none;stroke:#091a2c;stroke-opacity:1" />
    <path
       class="cls-1"
       d="m 21.43,8.99 c -0.83,0 -1.5,-0.67 -1.5,-1.5 0,-0.83 0.67,-1.5 1.5,-1.5 0.83,0 1.5,0.67 1.5,1.5 0,0.83 -0.67,1.5 -1.5,1.5 z m 0,-2.39 c -0.5,0 -0.9,0.4 -0.9,0.9 0,0.5 0.4,0.9 0.9,0.9 0.5,0 0.9,-0.4 0.9,-0.9 0,-0.5 -0.4,-0.9 -0.9,-0.9 z"
       id="path9"
       style="stroke-width:0.14644055;stroke-dasharray:none;stroke:#091a2c;stroke-opacity:1" />
    <path
       class="cls-1"
       d="m 25.03,16.19 c -1.35,0 -3.9,-0.56 -3.9,-2.7 0,-2.14 -3.27,-2.1 -3.3,-2.1 -0.11,0 -0.22,-0.06 -0.27,-0.17 l -1.2,-2.4 c -0.05,-0.09 -0.04,-0.2 0.01,-0.29 0.06,-0.09 0.15,-0.14 0.26,-0.14 0.21,0 5.1,0.03 5.1,2.7 0,0.75 0.2,1.31 0.59,1.66 0.6,0.53 1.46,0.45 1.47,0.44 0.13,-0.01 0.25,0.05 0.3,0.16 l 1.2,2.4 c 0.05,0.09 0.04,0.2 -0.01,0.29 -0.06,0.09 -0.15,0.14 -0.26,0.14 z m -3.37,-3.27 c 0.04,0.18 0.07,0.37 0.07,0.57 0,1.57 1.87,1.96 2.8,2.07 L 23.65,13.8 h -0.01 c -0.37,0 -1.12,-0.07 -1.71,-0.6 -0.1,-0.09 -0.19,-0.18 -0.27,-0.29 z M 18.02,10.8 c 1,0.04 2.49,0.36 3.24,1.31 -0.09,-0.3 -0.13,-0.64 -0.13,-1.01 0,-1.65 -2.83,-2 -4,-2.08 z"
       id="path10"
       style="stroke-width:0.14644055;stroke-dasharray:none;stroke:#091a2c;stroke-opacity:1" />
  </g>
</svg>
