<?xml version="1.0" encoding="UTF-8" standalone="no"?>
<svg
   id="Propuetas_finales"
   viewBox="0 0 32 32"
   version="1.1"
   sodipodi:docname="gtools.svg"
   inkscape:version="1.3.2 (091e20e, 2023-11-25, custom)"
   xmlns:inkscape="http://www.inkscape.org/namespaces/inkscape"
   xmlns:sodipodi="http://sodipodi.sourceforge.net/DTD/sodipodi-0.dtd"
   xmlns="http://www.w3.org/2000/svg"
   xmlns:svg="http://www.w3.org/2000/svg">
  <sodipodi:namedview
     id="namedview6"
     pagecolor="#505050"
     bordercolor="#eeeeee"
     borderopacity="1"
     inkscape:showpageshadow="0"
     inkscape:pageopacity="0"
     inkscape:pagecheckerboard="0"
     inkscape:deskcolor="#505050"
     inkscape:zoom="26.71875"
     inkscape:cx="19.667836"
     inkscape:cy="10.123977"
     inkscape:window-width="1920"
     inkscape:window-height="1051"
     inkscape:window-x="-9"
     inkscape:window-y="-9"
     inkscape:window-maximized="1"
     inkscape:current-layer="g6" />
  <defs
     id="defs1">
    <style
       id="style1">.cls-1{fill:#000;}.cls-1,.cls-2,.cls-3{stroke-width:0px;}.cls-2{fill:#0f1b2c;}.cls-4{fill:none;stroke:#0f1b2c;stroke-miterlimit:10;stroke-width:.75px;}.cls-3{fill:#091a2c;}</style>
  </defs>
  <g
     id="g6"
     transform="matrix(1.4047259,0,0,1.4047259,-8.6880577,-6.5597258)">
    <rect
       style="fill:#1e9190;fill-opacity:1;stroke:none;stroke-width:0.1722756;stroke-linecap:round;stroke-dasharray:none;stroke-opacity:1;paint-order:fill markers stroke;opacity:1"
       id="rect7"
       width="9.8890791"
       height="1.3388292"
       x="9.8945208"
       y="9.1401577" />
    <path
       style="opacity:1;fill:#1e9190;fill-opacity:1;stroke:none;stroke-width:0.172276;stroke-linecap:round;stroke-dasharray:none;stroke-opacity:1;paint-order:fill markers stroke"
       id="path8"
       sodipodi:type="arc"
       sodipodi:cx="15.043861"
       sodipodi:cy="18.084789"
       sodipodi:rx="2.0915196"
       sodipodi:ry="2.0915196"
       sodipodi:start="5.6186163"
       sodipodi:end="5.6099769"
       sodipodi:open="true"
       sodipodi:arc-type="arc"
       d="m 16.690269,16.794907 a 2.0915196,2.0915196 0 0 1 -0.352973,2.9335 2.0915196,2.0915196 0 0 1 -2.934255,-0.346636 2.0915196,2.0915196 0 0 1 0.340298,-2.934997 2.0915196,2.0915196 0 0 1 2.935725,0.333958" />
    <g
       id="g7"
       transform="matrix(0.93928691,0,0,0.93928691,1.0467357,0.95469155)">
      <path
         class="cls-3"
         d="m 14.85,13.9 c -2.25,0 -4.19,-1.68 -4.51,-3.91 L 10.29,9.66 h 9.11 l -0.05,0.33 c -0.32,2.23 -2.25,3.91 -4.51,3.91 z m -3.87,-3.65 c 0.41,1.77 2.02,3.07 3.87,3.07 1.85,0 3.46,-1.3 3.87,-3.07 z"
         id="path1"
         style="stroke:#0f1b2c;stroke-width:0.142377;stroke-dasharray:none;stroke-opacity:1" />
      <path
         class="cls-3"
         d="M 19.34,8.7 C 19.1,6.99 17.89,5.61 16.31,5.06 16.14,5 15.96,4.96 15.77,4.92 15.51,4.86 15.23,4.83 14.97,4.83 c 0,0 0,-0.01 -0.01,-0.01 h -0.1 c 0,0 -0.08,0 -0.13,0.01 -0.28,0 -0.55,0.03 -0.8,0.09 C 13.74,4.95 13.57,5 13.41,5.06 11.83,5.6 10.62,6.99 10.37,8.7 L 10.34,9 h 9.04 L 19.35,8.7 Z M 10.95,8.47 c 0.29,-1.3 1.24,-2.36 2.46,-2.84 v 1.78 c 0,0.16 0.13,0.29 0.29,0.29 0.15,0 0.29,-0.13 0.29,-0.29 V 5.46 c 0.19,-0.05 0.38,-0.08 0.58,-0.09 v 2.05 c 0,0.16 0.13,0.29 0.29,0.29 0.15,0 0.29,-0.13 0.29,-0.29 V 5.37 c 0.2,0.01 0.4,0.05 0.58,0.09 v 1.95 c 0,0.16 0.13,0.29 0.29,0.29 0.15,0 0.29,-0.13 0.29,-0.29 V 5.63 c 1.21,0.48 2.15,1.54 2.44,2.84 h -7.81 z"
         id="path2"
         style="stroke:#0f1b2c;stroke-width:0.213565;stroke-dasharray:none;stroke-opacity:1" />
      <path
         class="cls-3"
         d="M 19.73,10.25 H 9.98 c -0.5,0 -0.9,-0.4 -0.9,-0.9 0,-0.5 0.4,-0.9 0.9,-0.9 h 9.75 c 0.5,0 0.9,0.4 0.9,0.9 0,0.5 -0.4,0.9 -0.9,0.9 z M 9.97,9.03 c -0.18,0 -0.32,0.14 -0.32,0.32 0,0.18 0.14,0.32 0.32,0.32 h 9.75 c 0.18,0 0.32,-0.14 0.32,-0.32 0,-0.18 -0.14,-0.32 -0.32,-0.32 z"
         id="path3"
         style="stroke:#0f1b2c;stroke-width:0.213565;stroke-dasharray:none;stroke-opacity:1" />
      <path
         class="cls-1"
         d="m 26.22,17.35 c 0,0 0,0 0,0 v -0.02 c 0,0 0,0.01 0,0.02 z"
         id="path4" />
      <path
         class="cls-2"
         d="m 24.37,11.83 c -0.33,0 -0.54,0.16 -0.71,0.29 -0.15,0.1 -0.24,0.17 -0.37,0.17 -0.06,0 -0.1,-0.03 -0.23,-0.14 -0.23,-0.19 -0.59,-0.48 -1.45,-0.48 -1.24,0 -3.22,0.77 -3.22,1.68 0,0.15 0.05,0.27 0.15,0.35 0.16,0.13 0.35,0.07 0.52,0.02 0.14,-0.03 0.31,-0.08 0.54,-0.08 0.24,0 0.49,0.1 0.49,0.94 0,0.22 0.13,0.45 0.34,0.65 v 4.97 c 0,0.55 0.44,0.99 1.01,0.99 0.57,0 0.99,-0.44 0.99,-0.99 v -5 c 0.24,-0.23 0.4,-0.54 0.4,-0.77 0,-0.14 0.17,-0.33 0.48,-0.33 0.13,0 0.22,0.06 0.37,0.16 0.17,0.14 0.38,0.29 0.71,0.29 0.76,0 0.76,-0.88 0.76,-1.36 0,-0.48 0,-1.37 -0.76,-1.37 z m 0,2.15 c -0.13,0 -0.22,-0.06 -0.36,-0.17 -0.17,-0.13 -0.38,-0.28 -0.72,-0.28 -0.38,0 -0.73,0.19 -0.91,0.45 -0.1,0.13 -0.15,0.29 -0.15,0.45 0,0.09 -0.15,0.35 -0.4,0.5 v 5.27 c 0,0.22 -0.19,0.41 -0.44,0.41 -0.22,0 -0.4,-0.19 -0.4,-0.41 v -5.26 c -0.21,-0.12 -0.34,-0.29 -0.34,-0.36 0,-0.23 -0.02,-0.43 -0.06,-0.61 -0.15,-0.74 -0.62,-0.92 -1.01,-0.92 -0.17,0 -0.34,0.02 -0.47,0.05 0.4,-0.36 1.49,-0.85 2.48,-0.85 0.66,0 0.88,0.19 1.09,0.35 0.15,0.12 0.31,0.27 0.59,0.27 0.34,0 0.55,-0.16 0.72,-0.29 0.14,-0.12 0.23,-0.17 0.36,-0.17 0.16,0 0.17,0.41 0.17,0.79 0,0.38 -0.01,0.78 -0.17,0.78 z"
         id="path5"
         style="stroke:#0f1b2c;stroke-width:0.213565;stroke-dasharray:none;stroke-opacity:1" />
      <circle
         class="cls-4"
         cx="14.93"
         cy="18.26"
         r="2.21"
         id="circle5"
         style="stroke-width:0.8;stroke-dasharray:none" />
      <path
         class="cls-4"
         d="m 18.4,18.03 c 0,2.98 -1.68,9.02 -3.73,9.02 -2.05,0 -3.31,-6.04 -3.31,-9.02 0,-1.94 1.58,-3.52 3.52,-3.52 1.94,0 3.52,1.58 3.52,3.52 z"
         id="path6"
         style="stroke-width:0.8;stroke-dasharray:none" />
    </g>
  </g>
</svg>
