<?xml version="1.0" encoding="UTF-8" standalone="no"?>
<svg
   id="Propuetas_finales"
   viewBox="0 0 32 32"
   version="1.1"
   sodipodi:docname="recompensas.svg"
   inkscape:version="1.3.2 (091e20e, 2023-11-25, custom)"
   xmlns:inkscape="http://www.inkscape.org/namespaces/inkscape"
   xmlns:sodipodi="http://sodipodi.sourceforge.net/DTD/sodipodi-0.dtd"
   xmlns="http://www.w3.org/2000/svg"
   xmlns:svg="http://www.w3.org/2000/svg">
  <sodipodi:namedview
     id="namedview8"
     pagecolor="#505050"
     bordercolor="#eeeeee"
     borderopacity="1"
     inkscape:showpageshadow="0"
     inkscape:pageopacity="0"
     inkscape:pagecheckerboard="0"
     inkscape:deskcolor="#505050"
     inkscape:zoom="13.359375"
     inkscape:cx="-3.5555556"
     inkscape:cy="21.894737"
     inkscape:window-width="1920"
     inkscape:window-height="1051"
     inkscape:window-x="-9"
     inkscape:window-y="-9"
     inkscape:window-maximized="1"
     inkscape:current-layer="g8" />
  <defs
     id="defs1">
    <style
       id="style1">.cls-1{fill:none;stroke:#0f1b2c;stroke-linecap:round;stroke-linejoin:round;stroke-width:.5px;}.cls-2{fill:#091a2c;stroke-width:0px;}</style>
  </defs>
  <path
     style="fill:#1e9190;stroke:none;stroke-width:0.386434;stroke-linecap:round;stroke-dasharray:none;stroke-opacity:1;paint-order:fill markers stroke"
     id="path10-7"
     sodipodi:type="arc"
     sodipodi:cx="16.594589"
     sodipodi:cy="15.78505"
     sodipodi:rx="7.990818"
     sodipodi:ry="7.990818"
     sodipodi:start="5.6186163"
     sodipodi:end="5.6099769"
     sodipodi:open="true"
     sodipodi:arc-type="arc"
     d="M 22.884823,10.856954 A 7.990818,7.990818 0 0 1 21.53626,22.064625 7.990818,7.990818 0 0 1 10.325702,20.740273 7.990818,7.990818 0 0 1 11.625838,9.5268807 7.990818,7.990818 0 0 1 22.842013,10.802794" />
  <path
     style="fill:#ffffff;stroke:#0f1b2c;stroke-width:0.28295;stroke-linecap:round;stroke-dasharray:none;stroke-opacity:1;paint-order:fill markers stroke"
     id="path10"
     sodipodi:type="arc"
     sodipodi:cx="16.687134"
     sodipodi:cy="15.881094"
     sodipodi:rx="5.8509474"
     sodipodi:ry="5.8509474"
     sodipodi:start="5.6186163"
     sodipodi:end="5.6099769"
     sodipodi:open="true"
     sodipodi:arc-type="arc"
     d="m 21.292898,12.272698 a 5.8509474,5.8509474 0 0 1 -0.987429,8.206356 5.8509474,5.8509474 0 0 1 -8.208469,-0.969702 5.8509474,5.8509474 0 0 1 0.951971,-8.210545 5.8509474,5.8509474 0 0 1 8.212581,0.934235" />
  <g
     id="g8"
     transform="matrix(1.2993775,0,0,1.2993775,-4.7900351,-4.6973484)"
     style="stroke-width:0.687371;stroke-dasharray:none">
    <path
       class="cls-2"
       d="m 16.56,9.39 c -3.54,0 -6.43,2.88 -6.43,6.43 0,1.1 0.28,2.12 0.77,3.03 0.09,0.17 0.19,0.35 0.3,0.5 0.82,1.26 2.08,2.2 3.55,2.63 0.01,-0.03 0.02,-0.08 0.03,-0.11 0.04,-0.15 0.19,-0.23 0.35,-0.19 0.15,0.04 0.23,0.2 0.19,0.35 -0.01,0.03 -0.01,0.06 -0.02,0.09 0.4,0.09 0.83,0.13 1.25,0.13 0.49,0 0.96,-0.06 1.42,-0.17 0,-0.02 -0.01,-0.04 -0.01,-0.06 -0.04,-0.15 0.04,-0.3 0.19,-0.35 0.16,-0.04 0.3,0.04 0.35,0.19 0.01,0.02 0.01,0.04 0.02,0.07 1.44,-0.46 2.67,-1.43 3.45,-2.69 0.11,-0.17 0.21,-0.34 0.29,-0.51 0.46,-0.87 0.72,-1.87 0.72,-2.91 0,-3.54 -2.88,-6.43 -6.43,-6.43 z m 5.28,8.96 c -0.08,0.17 -0.16,0.32 -0.27,0.47 -1.02,1.71 -2.88,2.86 -5.02,2.86 -2.14,0 -3.92,-1.1 -4.95,-2.75 -0.12,-0.17 -0.21,-0.34 -0.29,-0.51 -0.4,-0.78 -0.63,-1.68 -0.63,-2.6 0,-3.24 2.64,-5.87 5.87,-5.87 3.23,0 5.87,2.63 5.87,5.87 0,0.91 -0.21,1.77 -0.58,2.54 z"
       id="path1"
       style="stroke:#0f1b2c;stroke-width:0.305498;stroke-dasharray:none;stroke-opacity:1" />
    <path
       class="cls-2"
       d="m 16.524694,11.393147 c -2.439198,0 -4.439154,1.99061 -4.439154,4.439154 0,2.448544 1.99061,4.439155 4.439154,4.439155 2.448544,0 4.439155,-1.990611 4.439155,-4.439155 0,-2.448544 -1.990611,-4.439154 -4.439155,-4.439154 z m 0,8.354956 c -2.158831,0 -3.915801,-1.756971 -3.915801,-3.915802 0,-2.158831 1.75697,-3.915801 3.915801,-3.915801 2.158831,0 3.915802,1.75697 3.915802,3.915801 0,2.158831 -1.756971,3.915802 -3.915802,3.915802 z"
       id="path2"
       style="stroke:#0f1b2c;stroke-width:0.356883;stroke-dasharray:none;stroke-opacity:1" />
    <path
       class="cls-2"
       d="m 15.33,22.01 c 0,0 -0.01,0.06 -0.02,0.09 -0.35,1.2 -1.46,4.6 -2.66,4.6 -0.76,0 -1.07,-0.95 -1.39,-1.87 -0.21,-0.66 -0.49,-1.49 -0.85,-1.49 -0.38,0 -0.77,0.15 -1.12,0.28 -0.45,0.18 -0.83,0.32 -1.13,0.12 -0.27,-0.19 -0.27,-0.56 -0.27,-0.68 0,-0.98 2.02,-3.21 3.01,-4.24 0.09,0.17 0.19,0.35 0.3,0.5 -1.24,1.3 -2.75,3.1 -2.75,3.73 0,0.18 0.03,0.22 0.03,0.22 0.07,0.02 0.39,-0.1 0.6,-0.18 0.38,-0.15 0.84,-0.32 1.32,-0.32 0.76,0 1.07,0.95 1.39,1.87 0.21,0.66 0.49,1.49 0.85,1.49 0.54,0 1.51,-2.15 2.11,-4.18 0.01,-0.03 0.02,-0.08 0.03,-0.11 0.04,-0.15 0.19,-0.23 0.35,-0.19 0.15,0.04 0.23,0.2 0.19,0.35 z"
       id="path3"
       style="stroke:#0f1b2c;stroke-width:0.381873;stroke-dasharray:none;stroke-opacity:1" />
    <path
       class="cls-2"
       d="m 25.4,23.08 c 0,0.12 0,0.49 -0.27,0.68 -0.3,0.2 -0.68,0.06 -1.13,-0.12 -0.35,-0.13 -0.74,-0.28 -1.12,-0.28 -0.36,0 -0.64,0.83 -0.85,1.49 -0.31,0.92 -0.63,1.87 -1.39,1.87 -1.21,0 -2.34,-3.49 -2.67,-4.64 0,-0.02 -0.01,-0.04 -0.01,-0.06 -0.04,-0.15 0.04,-0.3 0.19,-0.35 0.16,-0.04 0.3,0.04 0.35,0.19 0.01,0.02 0.01,0.04 0.02,0.07 0.6,2.04 1.59,4.22 2.12,4.22 0.36,0 0.64,-0.83 0.85,-1.49 0.31,-0.92 0.63,-1.87 1.39,-1.87 0.48,0 0.94,0.18 1.32,0.32 0.21,0.08 0.53,0.21 0.61,0.17 0,0 0.02,-0.06 0.02,-0.21 0,-0.65 -1.61,-2.55 -2.86,-3.84 0.11,-0.17 0.21,-0.34 0.29,-0.51 0.93,0.96 3.13,3.33 3.13,4.36 z"
       id="path4"
       style="stroke:#0f1b2c;stroke-width:0.381873;stroke-dasharray:none;stroke-opacity:1" />
    <path
       class="cls-1"
       d="M 22.15,10.23 C 21.65,8.88 20.8,8.1 19.68,7.76 c 1.17,-0.3 2,-1.11 2.47,-2.47 0.36,1.21 1.11,2.12 2.47,2.47 -1.31,0.35 -2.11,1.2 -2.47,2.47 z"
       id="path5"
       style="stroke-width:0.687371;stroke-dasharray:none" />
    <path
       class="cls-1"
       d="m 25.5,14.69 c -0.5,-1.35 -1.35,-2.13 -2.47,-2.47 1.17,-0.3 2,-1.11 2.47,-2.47 0.36,1.21 1.11,2.12 2.47,2.47 -1.31,0.35 -2.11,1.2 -2.47,2.47 z"
       id="path6"
       style="stroke-width:0.687371;stroke-dasharray:none" />
    <path
       class="cls-1"
       d="M 6.5,19.16 C 6,17.81 5.15,17.03 4.03,16.69 c 1.17,-0.3 2,-1.11 2.47,-2.47 0.36,1.21 1.11,2.12 2.47,2.47 -1.31,0.35 -2.11,1.2 -2.47,2.47 z"
       id="path7"
       style="stroke-width:0.687371;stroke-dasharray:none" />
    <path
       class="cls-1"
       d="M 8.74,12.46 C 8.24,11.11 7.39,10.33 6.27,9.99 7.44,9.69 8.27,8.88 8.74,7.52 9.1,8.73 9.85,9.64 11.21,9.99 9.9,10.34 9.1,11.19 8.74,12.46 Z"
       id="path8"
       style="stroke-width:0.687371;stroke-dasharray:none" />
  </g>
</svg>
